<?xml version="1.0" encoding="utf-8"?>
<!-- Generator: Adobe Illustrator 26.0.0, SVG Export Plug-In . SVG Version: 6.00 Build 0)  -->
<svg version="1.1" id="Capa_1" xmlns="http://www.w3.org/2000/svg" xmlns:xlink="http://www.w3.org/1999/xlink" x="0px" y="0px"
	 viewBox="0 0 726.61 306.76" style="enable-background:new 0 0 726.61 306.76;" xml:space="preserve">
<style type="text/css">
	.st0{clip-path:url(#SVGID_00000157296993651452910790000014540583187971874236_);}
	.st1{clip-path:url(#SVGID_00000143607240082162349610000004552463014931144348_);}
	.st2{fill:none;}
	.st3{fill:#143A61;}
	.st4{fill:#0B7798;}
	.st5{fill:#90CDD1;}
	.st6{fill:#E23E48;}
	.st7{fill:#020203;}
	.st8{fill:#FFFFFF;}
	.st9{clip-path:url(#SVGID_00000112616053672145258490000006793342644372321711_);}
	.st10{clip-path:url(#SVGID_00000173860576773486421390000012453331247757888173_);}
	.st11{clip-path:url(#SVGID_00000132072213223210189390000017334959827811900062_);}
	.st12{fill:url(#SVGID_00000144307145668155645140000007544166831526293930_);}
	.st13{fill:url(#SVGID_00000040543120759304924590000006466591591419670968_);}
	.st14{fill:#219991;}
	.st15{fill:#01613B;}
	.st16{fill:#056734;}
	.st17{fill:#06A099;}
	.st18{fill:#123A5E;}
	.st19{fill:url(#SVGID_00000076573371038882880250000006624059019703837337_);}
	.st20{fill:url(#SVGID_00000148656285446961331740000013426332310554089353_);}
	.st21{clip-path:url(#SVGID_00000087370859872916688550000010666721598538150802_);}
	.st22{fill:url(#SVGID_00000081642356025776217730000006218498762503821247_);}
	.st23{fill:url(#SVGID_00000183971308358104956500000001442433360751476888_);}
	.st24{fill:#BA1E41;}
	.st25{fill:#C08F5A;}
</style>
<g>
	<path class="st2" d="M134.43,124.48c-0.88,1.97-1.98,3.83-3.26,5.55c-2.26-1.02-4.69-1.74-7.21-2.09c0.75-3.37,2.5-6.37,4.91-8.67
		C130.46,121.25,132.33,123.01,134.43,124.48z"/>
	<path class="st2" d="M127.47,134.1c-1.01,0.91-2.09,1.77-3.22,2.54c-0.34-1.13-0.57-2.31-0.66-3.53
		C124.93,133.32,126.23,133.64,127.47,134.1z"/>
	<path class="st2" d="M130.53,94.47c-0.31,0.05-0.63,0.09-0.95,0.14c0.11-0.29,0.23-0.58,0.35-0.86
		C130.14,93.98,130.34,94.22,130.53,94.47z"/>
	<path class="st2" d="M121.55,138.27c-1.36,0.72-2.76,1.34-4.23,1.84c-0.69-2.27-1.55-4.48-2.55-6.6c1.73-0.44,3.52-0.71,5.39-0.71
		c0.11,0,0.23,0.02,0.34,0.02C120.61,134.72,120.96,136.55,121.55,138.27z"/>
	<path class="st2" d="M136.93,111.77c-2,0.38-3.89,1.05-5.64,1.97c-1.06-1.73-1.88-3.62-2.41-5.62c2.56-0.22,5.07-0.63,7.5-1.23
		C136.7,108.47,136.88,110.11,136.93,111.77z"/>
	<path class="st2" d="M136.85,114.94c-0.11,1.5-0.35,2.97-0.69,4.4c-1.12-0.91-2.16-1.92-3.07-3.04
		C134.27,115.72,135.54,115.25,136.85,114.94z"/>
	<path class="st2" d="M121.55,170.84c-0.6,1.72-0.95,3.54-1.05,5.45c-0.11,0-0.23,0.02-0.34,0.02c-1.87,0-3.67-0.27-5.39-0.71
		c1-2.12,1.86-4.33,2.55-6.6C118.79,169.5,120.2,170.12,121.55,170.84z"/>
	<path class="st2" d="M103.6,141.35c-0.21-0.03-0.41-0.06-0.61-0.1c0.12-0.16,0.24-0.33,0.37-0.49
		C103.45,140.95,103.52,141.15,103.6,141.35z"/>
	<path class="st2" d="M103.6,167.76c-0.08,0.2-0.15,0.4-0.24,0.6c-0.13-0.16-0.25-0.33-0.37-0.49
		C103.19,167.82,103.4,167.79,103.6,167.76z"/>
	<path class="st2" d="M106.12,154.55c0,1.6-0.11,3.17-0.32,4.72c-2.26,0.13-4.47,0.46-6.61,0.98c-0.49-1.82-0.78-3.72-0.78-5.69
		c0-1.97,0.29-3.87,0.78-5.69c2.14,0.51,4.35,0.84,6.61,0.98C106.01,151.38,106.12,152.95,106.12,154.55z"/>
	<path class="st2" d="M153.06,80.98c-0.09,0.11-0.18,0.23-0.28,0.35c-0.05-0.13-0.09-0.28-0.14-0.41
		C152.78,80.93,152.91,80.96,153.06,80.98z"/>
	<path class="st2" d="M199.74,92.86c-1.3,1.2-2.71,2.28-4.22,3.23c-1.26-1.48-2.73-2.76-4.37-3.83c1.03-1.92,2.33-3.69,3.86-5.21
		C196.44,89.1,198.03,91.05,199.74,92.86z"/>
	<path class="st2" d="M192.76,97.64c-1.25,0.61-2.55,1.12-3.88,1.54c0.21-1.4,0.55-2.75,1.02-4.05
		C190.94,95.85,191.89,96.71,192.76,97.64z"/>
	<path class="st2" d="M207.56,80.92c-0.05,0.13-0.09,0.28-0.14,0.41c-0.09-0.12-0.19-0.24-0.28-0.35
		C207.28,80.96,207.42,80.93,207.56,80.92z"/>
	<path class="st2" d="M185.24,92.84c-0.9,2.35-1.48,4.87-1.69,7.49c-1.13,0.13-2.28,0.22-3.45,0.22s-2.32-0.08-3.45-0.22
		c-0.21-2.62-0.78-5.14-1.69-7.49c1.62-0.51,3.35-0.78,5.14-0.78C181.89,92.06,183.61,92.33,185.24,92.84z"/>
	<path class="st2" d="M171.32,99.18c-1.34-0.42-2.63-0.93-3.88-1.54c0.86-0.93,1.82-1.79,2.87-2.51
		C170.77,96.43,171.12,97.79,171.32,99.18z"/>
	<path class="st2" d="M127.47,175.01c-1.24,0.45-2.54,0.78-3.87,1c0.09-1.22,0.32-2.4,0.66-3.53
		C125.39,173.24,126.46,174.09,127.47,175.01z"/>
	<path class="st2" d="M225.43,86.83c-1.53,1.58-2.92,3.31-4.15,5.15c-2.7-1.17-5.23-2.67-7.54-4.45c0.91-1.93,1.67-3.96,2.25-6.05
		C219.59,82.46,222.82,84.32,225.43,86.83z"/>
	<path class="st2" d="M169.04,92.26c-1.63,1.07-3.1,2.35-4.37,3.83c-1.51-0.95-2.92-2.02-4.22-3.23c1.72-1.82,3.3-3.76,4.73-5.82
		C166.71,88.57,168.01,90.34,169.04,92.26z"/>
	<path class="st2" d="M146.46,87.53c-2.31,1.78-4.84,3.28-7.54,4.45c-1.23-1.84-2.62-3.57-4.15-5.15c2.61-2.52,5.84-4.38,9.44-5.35
		C144.78,83.58,145.54,85.6,146.46,87.53z"/>
	<path class="st2" d="M236.6,176.01c-1.34-0.22-2.63-0.54-3.87-1c1.01-0.91,2.09-1.77,3.22-2.54
		C236.28,173.6,236.5,174.78,236.6,176.01z"/>
	<path class="st2" d="M231.32,200.98c-2.56,0.22-5.07,0.63-7.5,1.23c-0.32-1.58-0.5-3.22-0.55-4.88c2-0.38,3.89-1.05,5.64-1.97
		C229.96,197.09,230.78,198.98,231.32,200.98z"/>
	<path class="st2" d="M257.2,141.25c-0.2,0.04-0.4,0.07-0.61,0.1c0.08-0.2,0.15-0.4,0.24-0.6
		C256.96,140.92,257.07,141.08,257.2,141.25z"/>
	<path class="st2" d="M207.56,228.19c-0.14-0.01-0.28-0.04-0.42-0.06c0.09-0.11,0.18-0.23,0.28-0.35
		C207.47,227.91,207.51,228.06,207.56,228.19z"/>
	<path class="st2" d="M225.43,222.27c-2.61,2.52-5.84,4.38-9.44,5.35c-0.58-2.1-1.34-4.12-2.25-6.05c2.31-1.78,4.84-3.28,7.54-4.45
		C222.51,218.96,223.9,220.69,225.43,222.27z"/>
	<path class="st2" d="M236.24,181.16c-0.75,3.37-2.5,6.37-4.91,8.67c-1.59-1.98-3.46-3.74-5.56-5.21c0.88-1.97,1.98-3.83,3.26-5.55
		C231.29,180.1,233.71,180.81,236.24,181.16z"/>
	<path class="st2" d="M261.78,154.55c0,1.97-0.29,3.87-0.78,5.69c-2.14-0.51-4.35-0.84-6.61-0.98c-0.21-1.54-0.32-3.11-0.32-4.72
		c0-1.6,0.11-3.17,0.32-4.72c2.26-0.13,4.47-0.46,6.61-0.98C261.49,150.68,261.78,152.58,261.78,154.55z"/>
	<path class="st2" d="M199.74,216.24c-1.72,1.82-3.3,3.76-4.73,5.82c-1.53-1.52-2.84-3.29-3.86-5.21c1.63-1.07,3.1-2.35,4.37-3.83
		C197.03,213.96,198.44,215.04,199.74,216.24z"/>
	<path class="st2" d="M230.61,94.61c-0.32-0.05-0.64-0.09-0.95-0.14c0.2-0.25,0.39-0.48,0.6-0.72
		C230.38,94.04,230.49,94.32,230.61,94.61z"/>
	<path class="st2" d="M134.43,184.63c-2.1,1.47-3.97,3.23-5.56,5.21c-2.41-2.3-4.16-5.3-4.91-8.67c2.53-0.35,4.95-1.07,7.21-2.09
		C132.44,180.79,133.54,182.65,134.43,184.63z"/>
	<path class="st2" d="M245.42,175.6c-1.73,0.44-3.52,0.71-5.39,0.71c-0.11,0-0.23-0.02-0.34-0.02c-0.1-1.9-0.45-3.73-1.05-5.45
		c1.36-0.72,2.76-1.34,4.23-1.84C243.56,171.27,244.43,173.48,245.42,175.6z"/>
	<path class="st2" d="M257.2,167.86c-0.12,0.16-0.24,0.33-0.37,0.49c-0.08-0.2-0.15-0.4-0.24-0.6
		C256.8,167.79,257,167.82,257.2,167.86z"/>
	<path class="st2" d="M192.76,211.46c-0.86,0.93-1.82,1.79-2.87,2.51c-0.46-1.29-0.81-2.65-1.02-4.05
		C190.21,210.34,191.5,210.86,192.76,211.46z"/>
	<path class="st2" d="M136.93,197.34c-0.05,1.66-0.24,3.3-0.55,4.88c-2.43-0.61-4.94-1.02-7.5-1.23c0.53-2,1.36-3.89,2.41-5.62
		C133.04,196.29,134.93,196.96,136.93,197.34z"/>
	<path class="st2" d="M136.85,194.16c-1.32-0.31-2.58-0.77-3.76-1.36c0.91-1.12,1.95-2.13,3.07-3.04
		C136.5,191.19,136.74,192.66,136.85,194.16z"/>
	<path class="st2" d="M146.46,221.57c-0.91,1.93-1.67,3.96-2.25,6.05c-3.61-0.98-6.83-2.84-9.44-5.35c1.53-1.58,2.92-3.31,4.15-5.15
		C141.62,218.3,144.15,219.8,146.46,221.57z"/>
	<path class="st2" d="M130.53,214.64c-0.2,0.25-0.39,0.48-0.6,0.72c-0.12-0.29-0.24-0.58-0.35-0.86
		C129.91,214.55,130.23,214.59,130.53,214.64z"/>
	<path class="st2" d="M171.32,209.92c-0.21,1.4-0.55,2.75-1.02,4.05c-1.05-0.72-2-1.57-2.87-2.51
		C168.69,210.86,169.99,210.34,171.32,209.92z"/>
	<path class="st2" d="M153.06,228.13c-0.14,0.02-0.28,0.05-0.42,0.06c0.05-0.13,0.09-0.28,0.14-0.41
		C152.87,227.9,152.96,228.02,153.06,228.13z"/>
	<path class="st2" d="M185.24,216.26c-1.62,0.51-3.35,0.78-5.14,0.78c-1.79,0-3.51-0.27-5.14-0.78c0.9-2.35,1.48-4.87,1.69-7.49
		c1.13-0.13,2.28-0.22,3.45-0.22s2.32,0.08,3.45,0.22C183.76,211.39,184.33,213.91,185.24,216.26z"/>
	<path class="st2" d="M169.04,216.85c-1.03,1.92-2.33,3.69-3.86,5.21c-1.43-2.05-3.01-4-4.73-5.82c1.3-1.2,2.71-2.28,4.22-3.23
		C165.94,214.49,167.41,215.78,169.04,216.85z"/>
	<path class="st2" d="M230.61,214.49c-0.11,0.29-0.23,0.58-0.35,0.86c-0.21-0.24-0.4-0.47-0.6-0.72
		C229.97,214.59,230.29,214.55,230.61,214.49z"/>
	<path class="st2" d="M231.75,143.73c-3.12,3.21-7.48,5.2-12.31,5.2c-0.12,0-0.26-0.02-0.39-0.02c1.1-4.08,3.35-7.68,6.39-10.44
		C227.34,140.45,229.46,142.21,231.75,143.73z"/>
	<path class="st2" d="M216.57,123.29c-1.97,0.6-4.06,0.92-6.23,0.92c-2.07,0-4.06-0.31-5.96-0.85c2.26-4.06,6.12-7.1,10.72-8.3
		C215.29,117.9,215.79,120.66,216.57,123.29z"/>
	<path class="st2" d="M222.12,134.51c-3.95,3.53-6.84,8.21-8.17,13.51c-1.28-0.43-2.5-1.02-3.63-1.73
		c-1.45-5.33-4.27-10.1-8.08-13.9c-0.01-0.23-0.03-0.45-0.03-0.69c0-1.19,0.12-2.36,0.36-3.5c2.46,0.75,5.07,1.15,7.77,1.15
		c2.8,0,5.51-0.43,8.05-1.22C219.42,130.38,220.67,132.51,222.12,134.51z"/>
	<path class="st2" d="M207.41,165.09c-1.12,2.89-2.68,5.56-4.6,7.92C203.61,169.96,205.22,167.24,207.41,165.09z"/>
	<path class="st2" d="M213.14,154.55c0,1.17,0.09,2.33,0.24,3.46c-0.77,0.24-1.52,0.54-2.25,0.87c0.2-1.42,0.31-2.87,0.31-4.34
		c0-1.47-0.11-2.92-0.31-4.34c0.73,0.33,1.48,0.64,2.25,0.87C213.23,152.22,213.14,153.38,213.14,154.55z"/>
	<path class="st2" d="M209.38,154.55c0,1.9-0.18,3.75-0.53,5.55c-5.64,3.46-9.45,9.6-9.68,16.64c-2.68,2.3-5.77,4.14-9.15,5.36
		c-2.94-1.64-6.31-2.6-9.91-2.6s-6.98,0.96-9.91,2.6c-3.38-1.22-6.47-3.06-9.15-5.36c-0.23-7.05-4.04-13.18-9.68-16.64
		c-0.35-1.8-0.53-3.65-0.53-5.55c0-1.9,0.18-3.75,0.53-5.55c5.64-3.46,9.45-9.6,9.68-16.64c2.68-2.3,5.77-4.14,9.15-5.36
		c2.94,1.64,6.31,2.6,9.91,2.6s6.98-0.96,9.91-2.6c3.38,1.22,6.47,3.06,9.15,5.36c0.23,7.05,4.04,13.18,9.68,16.64
		C209.2,150.8,209.38,152.65,209.38,154.55z"/>
	<path class="st2" d="M215.98,104.26c-0.56,2.47-0.88,5.01-0.93,7.63c-5.91,1.3-10.84,5.18-13.58,10.4c-1.45-0.65-2.8-1.46-4.07-2.4
		c1.9-3.08,3.02-6.71,3.02-10.6c0-2.08-0.32-4.08-0.9-5.97c2.31-1.42,4.45-3.07,6.38-4.93C208.99,100.71,212.37,102.7,215.98,104.26
		z"/>
	<path class="st2" d="M191.78,121.9c-1.01,0.95-2.13,1.77-3.35,2.45c-2.65-0.73-5.45-1.13-8.33-1.13s-5.68,0.4-8.33,1.13
		c-1.22-0.68-2.34-1.5-3.35-2.45c3.72-3.55,6.42-8.17,7.62-13.36c1.34,0.14,2.68,0.23,4.06,0.23s2.72-0.08,4.06-0.23
		C185.36,113.73,188.06,118.35,191.78,121.9z"/>
	<path class="st2" d="M170.95,107.63c-0.97,3.94-2.98,7.47-5.76,10.23c-1.47-2.53-2.32-5.46-2.32-8.58c0-1.53,0.23-3.02,0.61-4.44
		C165.84,106.03,168.33,106.97,170.95,107.63z"/>
	<path class="st2" d="M197.33,109.28c0,3.12-0.85,6.05-2.32,8.58c-2.78-2.76-4.8-6.3-5.76-10.23c2.62-0.66,5.12-1.6,7.48-2.78
		C197.1,106.26,197.33,107.75,197.33,109.28z"/>
	<path class="st2" d="M207.41,144.01c-2.19-2.15-3.8-4.87-4.6-7.92C204.73,138.45,206.29,141.12,207.41,144.01z"/>
	<path class="st2" d="M199.67,127.14c-0.2,0.85-0.35,1.72-0.43,2.61c-2.17-1.67-4.55-3.07-7.11-4.14c0.71-0.51,1.39-1.08,2.02-1.68
		C195.85,125.2,197.7,126.29,199.67,127.14z"/>
	<path class="st2" d="M168.07,125.61c-2.56,1.07-4.94,2.47-7.11,4.14c-0.08-0.89-0.24-1.76-0.43-2.61c1.97-0.85,3.82-1.94,5.52-3.22
		C166.68,124.53,167.36,125.1,168.07,125.61z"/>
	<path class="st2" d="M199.67,181.97c-1.97,0.85-3.82,1.94-5.52,3.22c-0.64-0.61-1.32-1.17-2.02-1.69c2.56-1.07,4.94-2.47,7.11-4.14
		C199.32,180.25,199.48,181.11,199.67,181.97z"/>
	<path class="st2" d="M162.81,119.89c-1.26,0.95-2.62,1.76-4.07,2.4c-2.74-5.22-7.68-9.09-13.58-10.4
		c-0.05-2.62-0.37-5.17-0.93-7.63c3.61-1.56,6.99-3.54,10.09-5.88c1.93,1.86,4.07,3.51,6.38,4.93c-0.59,1.89-0.9,3.89-0.9,5.97
		C159.79,113.18,160.91,116.8,162.81,119.89z"/>
	<path class="st2" d="M231.32,108.12c-0.53,2-1.36,3.89-2.41,5.62c-1.75-0.92-3.64-1.59-5.64-1.97c0.05-1.66,0.24-3.3,0.55-4.88
		C226.25,107.5,228.76,107.91,231.32,108.12z"/>
	<path class="st2" d="M148.76,154.55c0,1.47,0.11,2.92,0.31,4.34c-0.73-0.33-1.48-0.64-2.25-0.87c0.14-1.13,0.24-2.29,0.24-3.46
		s-0.09-2.33-0.24-3.46c0.77-0.24,1.52-0.54,2.25-0.87C148.87,151.63,148.76,153.08,148.76,154.55z"/>
	<path class="st2" d="M185.22,183.37c-1.66,0.3-3.38,0.46-5.13,0.46c-1.75,0-3.46-0.16-5.13-0.46c1.62-0.5,3.34-0.78,5.13-0.78
		C181.89,182.59,183.6,182.87,185.22,183.37z"/>
	<path class="st2" d="M185.22,125.73c-1.62,0.5-3.34,0.78-5.13,0.78c-1.79,0-3.5-0.28-5.13-0.78c1.66-0.3,3.38-0.46,5.13-0.46
		C181.84,125.27,183.56,125.43,185.22,125.73z"/>
	<path class="st2" d="M157.39,173.02c-1.92-2.36-3.48-5.03-4.6-7.92C154.98,167.24,156.59,169.96,157.39,173.02z"/>
	<path class="st2" d="M157.39,136.09c-0.8,3.05-2.41,5.77-4.6,7.92C153.91,141.12,155.47,138.45,157.39,136.09z"/>
	<path class="st2" d="M168.07,183.5c-0.71,0.51-1.39,1.08-2.02,1.69c-1.7-1.27-3.54-2.36-5.52-3.22c0.2-0.85,0.35-1.72,0.43-2.61
		C163.12,181.03,165.51,182.43,168.07,183.5z"/>
	<path class="st2" d="M240.72,154.55c0,2.16,0.15,4.27,0.42,6.35c-2.34,0.73-4.58,1.69-6.69,2.85c-3.72-4.08-9.05-6.66-15.01-6.66
		c-0.33,0-0.66,0.03-0.99,0.05c-0.1-0.85-0.17-1.72-0.17-2.59c0-0.87,0.07-1.74,0.17-2.59c0.33,0.02,0.66,0.05,0.99,0.05
		c5.96,0,11.29-2.58,15.01-6.66c2.11,1.16,4.35,2.12,6.69,2.85C240.87,150.28,240.72,152.4,240.72,154.55z"/>
	<path class="st2" d="M222.12,174.6c-1.45,1.99-2.7,4.13-3.73,6.38c-2.54-0.79-5.24-1.22-8.05-1.22c-2.7,0-5.31,0.4-7.77,1.15
		c-0.24-1.14-0.36-2.31-0.36-3.5c0-0.24,0.02-0.46,0.03-0.69c3.8-3.8,6.63-8.57,8.08-13.9c1.13-0.71,2.34-1.29,3.63-1.73
		C215.28,166.39,218.18,171.06,222.12,174.6z"/>
	<path class="st2" d="M231.75,165.37c-2.29,1.52-4.41,3.29-6.31,5.26c-3.04-2.76-5.29-6.36-6.39-10.44c0.13,0,0.27-0.02,0.39-0.02
		C224.27,160.17,228.62,162.17,231.75,165.37z"/>
	<path class="st2" d="M215.98,204.85c-3.61,1.56-6.99,3.54-10.09,5.88c-1.93-1.86-4.07-3.51-6.38-4.93c0.59-1.89,0.9-3.89,0.9-5.97
		c0-3.89-1.12-7.52-3.02-10.6c1.26-0.95,2.62-1.76,4.07-2.4c2.74,5.22,7.68,9.09,13.58,10.4
		C215.09,199.83,215.41,202.38,215.98,204.85z"/>
	<path class="st2" d="M216.57,185.82c-0.78,2.63-1.28,5.38-1.47,8.23c-4.59-1.2-8.46-4.24-10.72-8.3c1.9-0.54,3.89-0.85,5.96-0.85
		C212.51,184.89,214.6,185.22,216.57,185.82z"/>
	<path class="st2" d="M197.33,199.82c0,1.53-0.23,3.02-0.61,4.44c-2.36-1.18-4.86-2.13-7.48-2.78c0.97-3.94,2.98-7.47,5.76-10.23
		C196.48,193.77,197.33,196.7,197.33,199.82z"/>
	<path class="st2" d="M236.24,127.94c-2.53,0.35-4.95,1.07-7.21,2.09c-1.27-1.72-2.37-3.58-3.26-5.55c2.1-1.47,3.97-3.23,5.56-5.21
		C233.74,121.57,235.49,124.57,236.24,127.94z"/>
	<path class="st2" d="M227.1,116.3c-0.91,1.12-1.95,2.13-3.07,3.04c-0.34-1.43-0.58-2.9-0.69-4.4
		C224.66,115.25,225.92,115.72,227.1,116.3z"/>
	<path class="st2" d="M236.6,133.1c-0.09,1.22-0.32,2.4-0.66,3.53c-1.13-0.77-2.21-1.62-3.22-2.54
		C233.97,133.64,235.26,133.32,236.6,133.1z"/>
	<path class="st2" d="M245.42,133.51c-1,2.12-1.86,4.33-2.55,6.6c-1.47-0.5-2.88-1.12-4.23-1.84c0.6-1.72,0.95-3.54,1.05-5.45
		c0.11,0,0.23-0.02,0.34-0.02C241.9,132.8,243.7,133.07,245.42,133.51z"/>
	<path class="st2" d="M157.98,131.7c0,0.24-0.02,0.46-0.03,0.69c-3.8,3.8-6.63,8.57-8.08,13.9c-1.13,0.71-2.34,1.29-3.63,1.73
		c-1.33-5.3-4.22-9.98-8.17-13.51c1.45-1.99,2.7-4.13,3.73-6.38c2.54,0.79,5.24,1.22,8.05,1.22c2.7,0,5.31-0.4,7.77-1.15
		C157.85,129.34,157.98,130.51,157.98,131.7z"/>
	<path class="st2" d="M141.92,154.55c0,0.87-0.07,1.74-0.17,2.59c-0.33-0.02-0.66-0.05-0.99-0.05c-5.96,0-11.29,2.58-15.01,6.66
		c-2.11-1.16-4.35-2.12-6.69-2.85c0.27-2.08,0.42-4.19,0.42-6.35c0-2.16-0.15-4.27-0.42-6.35c2.34-0.73,4.58-1.69,6.69-2.85
		c3.72,4.08,9.05,6.66,15.01,6.66c0.33,0,0.66-0.03,0.99-0.05C141.85,152.82,141.92,153.68,141.92,154.55z"/>
	<path class="st2" d="M141.15,160.19c-1.1,4.08-3.35,7.68-6.39,10.44c-1.9-1.97-4.02-3.74-6.31-5.26c3.12-3.21,7.48-5.2,12.31-5.2
		C140.88,160.17,141.01,160.19,141.15,160.19z"/>
	<path class="st2" d="M141.15,148.91c-0.13,0-0.27,0.02-0.39,0.02c-4.83,0-9.19-1.99-12.31-5.2c2.29-1.52,4.41-3.29,6.31-5.26
		C137.8,141.24,140.05,144.83,141.15,148.91z"/>
	<path class="st2" d="M191.78,187.21c-3.72,3.56-6.42,8.17-7.62,13.36c-1.34-0.14-2.68-0.23-4.06-0.23s-2.72,0.08-4.06,0.23
		c-1.2-5.19-3.9-9.8-7.62-13.36c1.01-0.95,2.13-1.77,3.35-2.45c2.65,0.73,5.45,1.13,8.33,1.13s5.68-0.4,8.33-1.13
		C189.65,185.44,190.77,186.26,191.78,187.21z"/>
	<path class="st2" d="M155.81,123.36c-1.9,0.54-3.89,0.85-5.96,0.85c-2.17,0-4.25-0.33-6.23-0.92c0.78-2.63,1.28-5.38,1.47-8.23
		C149.69,116.26,153.55,119.3,155.81,123.36z"/>
	<path class="st2" d="M170.95,201.48c-2.62,0.66-5.12,1.6-7.48,2.78c-0.38-1.42-0.61-2.91-0.61-4.44c0-3.12,0.85-6.05,2.32-8.58
		C167.97,194.01,169.99,197.54,170.95,201.48z"/>
	<path class="st2" d="M159.79,199.82c0,2.08,0.32,4.08,0.9,5.97c-2.31,1.42-4.45,3.07-6.38,4.93c-3.1-2.33-6.48-4.32-10.09-5.88
		c0.57-2.47,0.88-5.01,0.93-7.63c5.91-1.3,10.84-5.18,13.58-10.4c1.45,0.65,2.8,1.46,4.07,2.4
		C160.91,192.3,159.79,195.93,159.79,199.82z"/>
	<path class="st2" d="M155.81,185.75c-2.26,4.06-6.12,7.1-10.72,8.3c-0.18-2.85-0.69-5.6-1.47-8.23c1.97-0.6,4.06-0.92,6.23-0.92
		C151.91,184.89,153.91,185.2,155.81,185.75z"/>
	<path class="st2" d="M157.98,177.4c0,1.19-0.12,2.36-0.36,3.5c-2.46-0.75-5.07-1.15-7.77-1.15c-2.8,0-5.51,0.43-8.05,1.22
		c-1.03-2.25-2.28-4.39-3.73-6.38c3.95-3.53,6.84-8.21,8.17-13.51c1.28,0.43,2.5,1.02,3.63,1.73c1.45,5.33,4.27,10.1,8.08,13.9
		C157.96,176.94,157.98,177.17,157.98,177.4z"/>
	<path class="st2" d="M227.1,192.8c-1.18,0.59-2.45,1.05-3.76,1.36c0.11-1.5,0.35-2.97,0.69-4.4
		C225.15,190.68,226.19,191.69,227.1,192.8z"/>
	<path class="st2" d="M126.03,89.98c-0.82,1.57-1.49,3.24-1.99,4.97c-9.47-0.15-18.06-3.99-24.41-10.12
		c2.63-0.79,5.41-1.21,8.3-1.21C114.77,83.62,121.07,86,126.03,89.98z"/>
	<path class="st2" d="M127.07,116.73c-3.12,2.86-5.36,6.65-6.23,10.95c-0.23-0.01-0.45-0.02-0.68-0.02c-2.75,0-5.41,0.42-7.91,1.18
		c-7.09-11.58-18.82-20-32.62-22.7c1.28-5.57,4.16-10.53,8.15-14.37c8.82,9.91,21.58,16.23,35.83,16.52
		C124.28,111.33,125.47,114.17,127.07,116.73z"/>
	<path class="st2" d="M209.13,237.59c0,8.03-3.29,15.32-8.59,20.59c-0.6-2.6-0.92-5.3-0.92-8.08c0-6.28,1.62-12.18,4.46-17.31
		c1.54,0.36,3.12,0.61,4.76,0.69C209.02,234.83,209.13,236.19,209.13,237.59z"/>
	<path class="st2" d="M271.54,250.11c0,19.83-16.13,35.96-35.96,35.96c-13.92,0-26.03-7.96-32-19.57
		c8.39-6.83,13.77-17.24,13.77-28.9c0-1.66-0.12-3.3-0.34-4.9c4.71-1.19,8.91-3.64,12.25-6.95c6.34,4.98,14.32,7.96,23,7.96
		c4.88,0,9.53-0.95,13.8-2.65C269.53,236.58,271.54,243.12,271.54,250.11z"/>
	<path class="st2" d="M260.57,224.28c-2.63,0.79-5.41,1.21-8.3,1.21c-6.84,0-13.14-2.38-18.1-6.36c0.82-1.57,1.49-3.24,1.99-4.97
		C245.63,214.31,254.22,218.14,260.57,224.28z"/>
	<path class="st2" d="M100.86,135.84c-1.18,1.22-2.24,2.55-3.17,3.97c-8.74-3.31-15.49-10.73-17.87-19.89
		C88.68,122.39,96.17,128.17,100.86,135.84z"/>
	<path class="st2" d="M142.84,71.51c0,1.66,0.12,3.3,0.34,4.9c-4.71,1.19-8.91,3.64-12.25,6.95c-6.34-4.98-14.32-7.96-23-7.96
		c-4.88,0-9.53,0.95-13.8,2.65c-3.46-5.53-5.48-12.06-5.48-19.05c0-19.83,16.13-35.96,35.96-35.96c13.92,0,26.03,7.96,31.99,19.57
		C148.22,49.44,142.84,59.85,142.84,71.51z"/>
	<path class="st2" d="M100.86,173.26c-4.7,7.68-12.19,13.45-21.04,15.93c2.37-9.16,9.12-16.58,17.87-19.89
		C98.62,170.71,99.68,172.04,100.86,173.26z"/>
	<path class="st2" d="M156.61,266.49c-5.97,11.61-18.07,19.57-31.99,19.57c-19.83,0-35.96-16.13-35.96-35.96
		c0-6.99,2.01-13.52,5.48-19.05c4.26,1.71,8.92,2.65,13.8,2.65c8.68,0,16.67-2.98,23-7.96c3.34,3.31,7.54,5.75,12.25,6.95
		c-0.22,1.6-0.34,3.24-0.34,4.9C142.84,249.25,148.22,259.66,156.61,266.49z"/>
	<path class="st2" d="M160.58,250.11c0,2.77-0.33,5.48-0.92,8.08c-5.3-5.27-8.59-12.56-8.59-20.59c0-1.4,0.11-2.76,0.3-4.11
		c1.63-0.08,3.22-0.33,4.76-0.69C158.95,237.93,160.58,243.83,160.58,250.11z"/>
	<path class="st2" d="M280.38,119.92c-2.37,9.16-9.12,16.58-17.87,19.89c-0.93-1.42-1.99-2.74-3.17-3.97
		C264.03,128.17,271.52,122.39,280.38,119.92z"/>
	<path class="st2" d="M126.03,219.13c-4.96,3.98-11.26,6.36-18.1,6.36c-2.89,0-5.67-0.42-8.3-1.21c6.35-6.13,14.94-9.97,24.41-10.12
		C124.54,215.89,125.21,217.56,126.03,219.13z"/>
	<path class="st2" d="M93.28,154.55c0,2.52,0.35,4.94,1,7.24c-12.03,4.75-21,15.57-23.12,28.7c-0.33,0-0.66,0.02-1,0.02
		c-19.83,0-35.96-16.13-35.96-35.96s16.13-35.96,35.96-35.96c0.34,0,0.67,0.02,1,0.02c2.12,13.13,11.09,23.95,23.12,28.7
		C93.63,149.61,93.28,152.04,93.28,154.55z"/>
	<path class="st2" d="M160.58,59c0,6.28-1.62,12.18-4.46,17.31c-1.54-0.36-3.12-0.61-4.76-0.69c-0.18-1.35-0.3-2.71-0.3-4.11
		c0-8.03,3.29-15.32,8.59-20.59C160.25,53.52,160.58,56.23,160.58,59z"/>
	<path class="st2" d="M127.07,192.37c-1.6,2.56-2.79,5.4-3.46,8.44c-14.25,0.29-27.01,6.61-35.83,16.52
		c-3.99-3.84-6.86-8.81-8.15-14.37c13.8-2.69,25.53-11.12,32.62-22.7c2.5,0.76,5.16,1.18,7.91,1.18c0.23,0,0.45-0.01,0.68-0.02
		C121.71,185.73,123.95,189.52,127.07,192.37z"/>
	<path class="st2" d="M280.38,189.19c-8.86-2.48-16.35-8.25-21.04-15.93c1.18-1.22,2.24-2.55,3.17-3.97
		C271.25,172.61,278,180.02,280.38,189.19z"/>
	<path class="st2" d="M280.56,202.96c-1.28,5.57-4.16,10.53-8.15,14.37c-8.82-9.91-21.58-16.23-35.83-16.52
		c-0.67-3.03-1.86-5.88-3.46-8.44c3.12-2.86,5.36-6.65,6.23-10.95c0.23,0.01,0.45,0.02,0.68,0.02c2.75,0,5.41-0.42,7.91-1.18
		C255.03,191.84,266.76,200.26,280.56,202.96z"/>
	<path class="st2" d="M271.54,59c0,6.99-2.01,13.52-5.48,19.05c-4.26-1.71-8.92-2.65-13.8-2.65c-8.68,0-16.67,2.98-23,7.96
		c-3.34-3.31-7.54-5.75-12.25-6.95c0.22-1.6,0.34-3.24,0.34-4.9c0-11.66-5.37-22.07-13.77-28.9c5.97-11.61,18.07-19.57,32-19.57
		C255.41,23.04,271.54,39.17,271.54,59z"/>
	<path class="st2" d="M209.13,71.51c0,1.4-0.11,2.76-0.3,4.11c-1.63,0.08-3.22,0.33-4.76,0.69c-2.84-5.14-4.46-11.03-4.46-17.31
		c0-2.77,0.33-5.48,0.92-8.08C205.85,56.19,209.13,63.48,209.13,71.51z"/>
	<path class="st2" d="M280.56,106.15c-13.8,2.69-25.53,11.12-32.62,22.7c-2.5-0.76-5.16-1.18-7.91-1.18c-0.23,0-0.45,0.01-0.68,0.02
		c-0.86-4.31-3.1-8.1-6.23-10.95c1.6-2.56,2.79-5.4,3.46-8.44c14.25-0.29,27.01-6.61,35.83-16.52
		C276.4,95.62,279.28,100.58,280.56,106.15z"/>
	<path class="st2" d="M192.25,82.57c-2.32,2.12-4.27,4.64-5.74,7.46c-2.01-0.68-4.17-1.05-6.41-1.05s-4.4,0.37-6.41,1.05
		c-1.47-2.82-3.42-5.34-5.74-7.46c3.82-7,5.99-15.03,5.99-23.57c0-5.31-0.85-10.43-2.4-15.23c2.71-0.83,5.59-1.28,8.57-1.28
		c2.98,0,5.86,0.45,8.57,1.28c-1.55,4.8-2.4,9.91-2.4,15.23C186.26,67.54,188.43,75.57,192.25,82.57z"/>
	<path class="st2" d="M260.57,84.83c-6.35,6.13-14.94,9.97-24.41,10.12c-0.5-1.74-1.17-3.4-1.99-4.97
		c4.96-3.98,11.26-6.36,18.1-6.36C255.15,83.62,257.94,84.04,260.57,84.83z"/>
	<path class="st2" d="M186.26,250.11c0,5.31,0.85,10.43,2.4,15.23c-2.71,0.83-5.59,1.28-8.57,1.28c-2.98,0-5.86-0.45-8.57-1.28
		c1.55-4.8,2.4-9.91,2.4-15.23c0-8.54-2.17-16.57-5.99-23.57c2.32-2.12,4.27-4.64,5.74-7.46c2.01,0.68,4.17,1.05,6.41,1.05
		s4.4-0.37,6.41-1.05c1.47,2.82,3.42,5.34,5.74,7.46C188.43,233.53,186.26,241.57,186.26,250.11z"/>
	<path class="st2" d="M326,154.55c0,19.83-16.13,35.96-35.96,35.96c-0.34,0-0.67-0.02-1-0.02c-2.12-13.13-11.09-23.95-23.12-28.7
		c0.65-2.3,1-4.73,1-7.24c0-2.52-0.35-4.94-1-7.24c12.03-4.75,21-15.57,23.12-28.7c0.33,0,0.66-0.02,1-0.02
		C309.87,118.59,326,134.72,326,154.55z"/>
	<path class="st3" d="M173.93,59c0,8.54-2.17,16.57-5.99,23.57c-3.3-3-7.35-5.18-11.83-6.26c2.84-5.14,4.46-11.03,4.46-17.31
		c0-2.77-0.33-5.48-0.92-8.08c-0.68-2.92-1.71-5.71-3.04-8.31c-5.97-11.61-18.07-19.57-31.99-19.57
		c-19.83,0-35.96,16.13-35.96,35.96c0,6.99,2.01,13.52,5.48,19.05c-4.2,1.67-8.03,4.09-11.32,7.1C78.05,77.57,75.3,68.61,75.3,59
		c0-27.24,22.08-49.32,49.32-49.32c19,0,35.48,10.75,43.72,26.49c1.26,2.42,2.34,4.96,3.2,7.6C173.08,48.57,173.93,53.69,173.93,59z
		"/>
	<path class="st3" d="M136.38,106.89c-2.43,0.61-4.94,1.02-7.5,1.23c-1.41,0.12-2.83,0.2-4.26,0.2c-0.34,0-0.67-0.02-1.01-0.02
		c-14.25-0.29-27.01-6.61-35.83-16.52c3.3-3.19,7.35-5.6,11.85-6.95c6.35,6.13,14.94,9.97,24.41,10.12c0.2,0,0.38,0.01,0.58,0.01
		c1.69,0,3.35-0.12,4.97-0.35c0.32-0.05,0.64-0.09,0.95-0.14C133.4,98.02,135.44,102.26,136.38,106.89z"/>
	<path class="st3" d="M165.18,87.05c-1.43,2.05-3.01,4-4.73,5.82c-1.89,2-3.95,3.85-6.14,5.52c-3.1,2.33-6.48,4.32-10.09,5.88
		c-1.03-4.45-2.84-8.59-5.3-12.28c2.7-1.17,5.23-2.67,7.54-4.45c2.35-1.8,4.47-3.88,6.32-6.21c0.09-0.12,0.19-0.24,0.28-0.35
		C157.74,81.68,161.95,83.84,165.18,87.05z"/>
	<path class="st3" d="M117.32,169c-0.69,2.27-1.55,4.48-2.55,6.6c-0.76,1.6-1.6,3.15-2.52,4.66c-7.09,11.58-18.82,20-32.62,22.7
		c-0.48-2.1-0.74-4.26-0.74-6.49c0-2.52,0.32-4.95,0.92-7.27c8.86-2.48,16.35-8.25,21.04-15.93c0.96-1.56,1.79-3.21,2.51-4.91
		c0.08-0.2,0.15-0.4,0.24-0.6c1.41-0.22,2.86-0.33,4.33-0.33C111.22,167.43,114.37,167.98,117.32,169z"/>
	<path class="st3" d="M119.48,154.55c0,2.16-0.15,4.27-0.42,6.35c-3.51-1.1-7.25-1.7-11.13-1.7c-0.72,0-1.43,0.03-2.13,0.06
		c0.21-1.54,0.32-3.11,0.32-4.72c0-1.6-0.11-3.17-0.32-4.72c-0.39-2.96-1.14-5.79-2.2-8.49c-0.08-0.2-0.15-0.4-0.24-0.6
		c2.89-3.51,6.86-6.08,11.4-7.24c1,2.12,1.86,4.33,2.55,6.6c0.8,2.61,1.38,5.32,1.74,8.1C119.32,150.28,119.48,152.4,119.48,154.55z
		"/>
	<path class="st3" d="M112.26,128.85c-4.38,1.36-8.28,3.79-11.39,7c-4.7-7.68-12.19-13.45-21.04-15.93
		c-2.77-0.77-5.67-1.22-8.66-1.3c-0.33,0-0.66-0.02-1-0.02c-19.83,0-35.96,16.13-35.96,35.96s16.13,35.96,35.96,35.96
		c0.34,0,0.67-0.02,1-0.02c-0.32,1.94-0.48,3.94-0.48,5.97c0,2.53,0.26,4.99,0.73,7.38c-0.41,0.01-0.82,0.03-1.24,0.03
		c-27.24,0-49.32-22.08-49.32-49.32s22.08-49.32,49.32-49.32c0.42,0,0.83,0.02,1.24,0.03c2.82,0.07,5.56,0.37,8.23,0.88
		C93.43,108.84,105.17,117.27,112.26,128.85z"/>
	<path class="st3" d="M272.41,217.33c-3.3,3.19-7.35,5.6-11.85,6.95c-6.35-6.13-14.94-9.97-24.41-10.12c-0.2,0-0.38-0.01-0.58-0.01
		c-1.69,0-3.35,0.12-4.97,0.35c-0.32,0.05-0.64,0.09-0.95,0.14c-2.87-3.56-4.91-7.79-5.85-12.42c2.43-0.61,4.94-1.02,7.5-1.23
		c1.41-0.12,2.83-0.2,4.26-0.2c0.34,0,0.67,0.02,1.01,0.02C250.84,201.1,263.6,207.42,272.41,217.33z"/>
	<path class="st3" d="M221.28,217.12c-2.7,1.17-5.23,2.67-7.54,4.45c-2.35,1.8-4.47,3.88-6.32,6.21c-0.09,0.12-0.19,0.24-0.28,0.35
		c-4.69-0.7-8.9-2.87-12.12-6.07c1.43-2.05,3.01-4,4.73-5.82c1.89-2,3.95-3.85,6.14-5.52c3.1-2.33,6.48-4.32,10.09-5.88
		C217,209.3,218.81,213.44,221.28,217.12z"/>
	<path class="st3" d="M284.9,250.11c0,27.24-22.08,49.32-49.32,49.32c-19,0-35.48-10.75-43.72-26.49c-1.26-2.42-2.34-4.96-3.2-7.6
		c-1.55-4.8-2.4-9.91-2.4-15.23c0-8.54,2.17-16.57,5.99-23.57c3.3,3,7.35,5.18,11.83,6.26c-2.84,5.14-4.46,11.03-4.46,17.31
		c0,2.77,0.33,5.48,0.92,8.08c0.68,2.92,1.71,5.71,3.04,8.31c5.97,11.61,18.07,19.57,32,19.57c19.83,0,35.96-16.13,35.96-35.96
		c0-6.99-2.01-13.52-5.48-19.05c4.2-1.67,8.03-4.09,11.32-7.1C282.14,231.54,284.9,240.5,284.9,250.11z"/>
	<path class="st3" d="M154.31,210.72c-3.23,3.1-5.9,6.76-7.85,10.85c-2.31-1.78-4.84-3.28-7.54-4.45c-2.64-1.16-5.46-1.99-8.38-2.49
		c-0.31-0.05-0.63-0.09-0.95-0.14c-0.95-2.44-1.49-5.08-1.49-7.85c0-1.96,0.29-3.85,0.78-5.66c2.56,0.22,5.07,0.63,7.5,1.23
		c2.71,0.66,5.32,1.54,7.84,2.63C147.83,206.41,151.21,208.39,154.31,210.72z"/>
	<path class="st3" d="M173.93,250.11c0,5.31-0.85,10.43-2.4,15.23c-4.53-1.41-8.59-3.89-11.88-7.15c0.6-2.6,0.92-5.3,0.92-8.08
		c0-6.28-1.62-12.18-4.46-17.31c-0.9-1.64-1.93-3.2-3.06-4.66c-0.09-0.11-0.18-0.23-0.28-0.35c1.6-4.45,4.26-8.39,7.68-11.54
		c1.72,1.82,3.3,3.76,4.73,5.82c1,1.44,1.92,2.93,2.76,4.48C171.77,233.53,173.93,241.57,173.93,250.11z"/>
	<path class="st3" d="M168.33,272.94c-8.24,15.74-24.72,26.49-43.72,26.49c-27.24,0-49.32-22.08-49.32-49.32
		c0-9.61,2.75-18.57,7.51-26.15c1.47-2.34,3.13-4.56,4.97-6.63c8.82-9.91,21.58-16.23,35.83-16.52c-0.42,1.88-0.65,3.83-0.65,5.84
		c0,2.61,0.38,5.13,1.08,7.51c-9.47,0.15-18.06,3.99-24.41,10.12c-2.09,2.02-3.94,4.31-5.5,6.78c-3.46,5.53-5.48,12.06-5.48,19.05
		c0,19.83,16.13,35.96,35.96,35.96c13.92,0,26.03-7.96,31.99-19.57C160.05,269.3,164.02,271.5,168.33,272.94z"/>
	<path class="st3" d="M281.3,112.64c0,2.52-0.32,4.95-0.92,7.27c-8.86,2.48-16.35,8.25-21.04,15.93c-0.96,1.56-1.79,3.21-2.51,4.91
		c-0.08,0.2-0.15,0.4-0.24,0.6c-1.41,0.22-2.86,0.33-4.33,0.33c-3.29,0-6.44-0.55-9.39-1.57c0.69-2.27,1.55-4.48,2.55-6.6
		c0.76-1.6,1.6-3.15,2.52-4.66c7.09-11.58,18.82-20,32.62-22.7C281.05,108.25,281.3,110.41,281.3,112.64z"/>
	<path class="st3" d="M339.35,154.55c0,27.24-22.08,49.32-49.32,49.32c-0.42,0-0.83-0.02-1.24-0.03c-2.82-0.07-5.56-0.37-8.23-0.88
		c-13.8-2.69-25.53-11.12-32.62-22.7c4.38-1.36,8.28-3.79,11.39-7c4.7,7.68,12.19,13.45,21.04,15.93c2.77,0.77,5.67,1.22,8.66,1.3
		c0.33,0,0.66,0.02,1,0.02c19.83,0,35.96-16.13,35.96-35.96s-16.13-35.96-35.96-35.96c-0.34,0-0.67,0.02-1,0.02
		c0.32-1.94,0.48-3.94,0.48-5.97c0-2.53-0.26-4.99-0.73-7.38c0.41-0.01,0.82-0.03,1.24-0.03
		C317.27,105.24,339.35,127.32,339.35,154.55z"/>
	<path class="st3" d="M256.83,168.35c-2.89,3.51-6.86,6.08-11.4,7.24c-1-2.12-1.86-4.33-2.55-6.6c-0.8-2.61-1.38-5.32-1.74-8.1
		c-0.27-2.08-0.42-4.19-0.42-6.35c0-2.16,0.15-4.27,0.42-6.35c3.51,1.1,7.25,1.7,11.13,1.7c0.72,0,1.43-0.03,2.13-0.06
		c-0.21,1.54-0.32,3.11-0.32,4.72c0,1.6,0.11,3.17,0.32,4.72c0.39,2.96,1.14,5.79,2.2,8.49
		C256.67,167.95,256.75,168.16,256.83,168.35z"/>
	<path class="st3" d="M284.9,59c0,9.61-2.75,18.57-7.51,26.15c-1.47,2.34-3.13,4.56-4.97,6.63c-8.82,9.91-21.58,16.23-35.83,16.52
		c0.42-1.88,0.65-3.83,0.65-5.84c0-2.61-0.38-5.13-1.08-7.51c9.47-0.15,18.06-3.99,24.41-10.12c2.09-2.02,3.93-4.31,5.5-6.78
		c3.46-5.53,5.48-12.06,5.48-19.05c0-19.83-16.13-35.96-35.96-35.96c-13.92,0-26.03,7.96-32,19.57c-3.44-2.8-7.41-5-11.72-6.44
		c8.24-15.74,24.72-26.49,43.72-26.49C262.82,9.68,284.9,31.76,284.9,59z"/>
	<path class="st3" d="M232.1,102.46c0,1.96-0.29,3.85-0.78,5.66c-2.56-0.22-5.07-0.63-7.5-1.23c-2.71-0.66-5.32-1.54-7.84-2.63
		c-3.61-1.56-6.99-3.54-10.09-5.88c3.23-3.1,5.9-6.76,7.85-10.85c2.31,1.78,4.84,3.28,7.54,4.45c2.64,1.16,5.46,1.99,8.38,2.49
		c0.31,0.05,0.63,0.09,0.95,0.14C231.55,97.05,232.1,99.69,232.1,102.46z"/>
	<path class="st3" d="M207.42,81.33c-1.6,4.45-4.26,8.39-7.68,11.54c-1.72-1.82-3.3-3.76-4.73-5.82c-1-1.44-1.92-2.93-2.76-4.48
		c-3.82-7-5.99-15.03-5.99-23.57c0-5.31,0.85-10.43,2.4-15.23c4.53,1.41,8.59,3.89,11.88,7.15c-0.6,2.6-0.92,5.3-0.92,8.08
		c0,6.28,1.62,12.18,4.46,17.31c0.9,1.64,1.93,3.2,3.06,4.66C207.23,81.09,207.33,81.2,207.42,81.33z"/>
	<path class="st4" d="M141.8,180.98c-2.66,0.84-5.15,2.09-7.38,3.65c-0.88-1.97-1.98-3.83-3.26-5.55c-1.11-1.47-2.34-2.83-3.7-4.07
		c-1.01-0.91-2.09-1.77-3.22-2.54c0.81-2.7,2.26-5.13,4.19-7.1c2.29,1.52,4.41,3.29,6.31,5.26c1.19,1.24,2.3,2.57,3.32,3.97
		C139.52,176.59,140.78,178.73,141.8,180.98z"/>
	<path class="st4" d="M145.17,196.46c0,0.25-0.01,0.5-0.02,0.75c-0.05,2.62-0.37,5.17-0.93,7.63c-2.52-1.09-5.13-1.97-7.84-2.63
		c0.32-1.58,0.5-3.22,0.55-4.88c0.01-0.29,0.02-0.59,0.02-0.87c0-0.78-0.04-1.54-0.1-2.3c-0.11-1.5-0.35-2.97-0.69-4.4
		c2.18-1.77,4.71-3.12,7.46-3.95c0.78,2.63,1.28,5.38,1.47,8.23C145.14,194.85,145.17,195.65,145.17,196.46z"/>
	<path class="st4" d="M138.92,217.12c-1.23,1.84-2.62,3.57-4.15,5.15c-1.2,1.24-2.48,2.4-3.83,3.47c-6.34,4.98-14.32,7.96-23,7.96
		c-4.88,0-9.53-0.95-13.8-2.65c1.56-2.48,3.41-4.76,5.5-6.78c2.63,0.79,5.41,1.21,8.3,1.21c6.84,0,13.14-2.38,18.1-6.36
		c1.42-1.14,2.72-2.39,3.9-3.77c0.21-0.24,0.4-0.47,0.6-0.72C133.46,215.13,136.28,215.96,138.92,217.12z"/>
	<path class="st4" d="M79.63,202.96c1.28,5.57,4.16,10.53,8.15,14.37c-1.84,2.07-3.5,4.28-4.97,6.63
		c-5.73-5.23-9.81-12.22-11.4-20.12c-0.47-2.38-0.73-4.85-0.73-7.38c0-2.03,0.16-4.03,0.48-5.97c2.12-13.13,11.09-23.95,23.12-28.7
		c0.75,2.7,1.91,5.22,3.41,7.5c-8.74,3.31-15.49,10.73-17.87,19.89c-0.61,2.32-0.92,4.76-0.92,7.27
		C78.89,198.69,79.15,200.86,79.63,202.96z"/>
	<path class="st4" d="M125.75,163.75c-1.85,2.02-3.29,4.43-4.19,7.09c-1.36-0.72-2.76-1.34-4.23-1.84c-2.95-1.02-6.1-1.57-9.39-1.57
		c-1.47,0-2.92,0.11-4.33,0.33c-0.21,0.03-0.41,0.06-0.61,0.1c-1.74-2.24-3.04-4.81-3.8-7.61c2.14-0.51,4.35-0.84,6.61-0.98
		c0.7-0.03,1.41-0.06,2.13-0.06c3.87,0,7.61,0.6,11.13,1.7C121.4,161.63,123.64,162.59,125.75,163.75z"/>
	<path class="st4" d="M191.86,272.94c-3.7,1.23-7.65,1.9-11.76,1.9c-4.11,0-8.07-0.67-11.76-1.9c-4.32-1.44-8.28-3.64-11.72-6.44
		c-8.39-6.83-13.77-17.24-13.77-28.9c0-1.66,0.12-3.3,0.34-4.9c2.13,0.54,4.37,0.84,6.67,0.84c0.51,0,1.02-0.02,1.51-0.05
		c-0.18,1.35-0.3,2.71-0.3,4.11c0,8.03,3.29,15.32,8.59,20.59c3.29,3.26,7.35,5.74,11.88,7.15c2.71,0.83,5.59,1.28,8.57,1.28
		c2.98,0,5.86-0.45,8.57-1.28C189.52,267.97,190.6,270.51,191.86,272.94z"/>
	<path class="st4" d="M164.68,213.01c-1.51,0.95-2.92,2.02-4.22,3.23c-3.41,3.14-6.07,7.09-7.68,11.54
		c-0.05,0.13-0.09,0.28-0.14,0.41c-0.91,0.12-1.84,0.21-2.78,0.21c-1.95,0-3.84-0.29-5.64-0.77c0.58-2.1,1.34-4.12,2.25-6.05
		c1.95-4.09,4.62-7.75,7.85-10.85c1.93-1.86,4.07-3.51,6.38-4.93C161.51,208.48,162.89,210.93,164.68,213.01z"/>
	<path class="st4" d="M205.89,210.72c-2.2,1.66-4.25,3.51-6.14,5.52c-1.3-1.2-2.71-2.28-4.22-3.23c-0.89-0.57-1.82-1.08-2.76-1.55
		c-1.25-0.61-2.55-1.12-3.88-1.54c-0.16-1.08-0.28-2.16-0.28-3.28c0-1.79,0.24-3.51,0.65-5.17c2.62,0.66,5.12,1.6,7.48,2.78
		c0.96,0.47,1.88,0.98,2.78,1.53C201.82,207.21,203.96,208.86,205.89,210.72z"/>
	<path class="st4" d="M183.46,206.64c0,0.72,0.04,1.43,0.09,2.13c-1.13-0.13-2.28-0.22-3.45-0.22s-2.32,0.08-3.45,0.22
		c-1.83,0.22-3.61,0.61-5.32,1.15c-1.34,0.42-2.63,0.93-3.88,1.54c-1.86-2.01-3.24-4.48-3.97-7.2c2.36-1.18,4.86-2.13,7.48-2.78
		c1.65-0.42,3.35-0.73,5.09-0.91c1.34-0.14,2.68-0.23,4.06-0.23s2.72,0.08,4.06,0.23C183.7,202.51,183.46,204.55,183.46,206.64z"/>
	<path class="st4" d="M217.35,237.59c0,11.66-5.37,22.07-13.77,28.9c-1.34-2.6-2.36-5.39-3.04-8.31c5.3-5.27,8.59-12.56,8.59-20.59
		c0-1.4-0.11-2.76-0.3-4.11c-0.26-1.82-0.69-3.59-1.27-5.29c-0.05-0.13-0.09-0.28-0.14-0.41c1.85-2.32,3.97-4.41,6.32-6.21
		c0.91,1.93,1.67,3.96,2.25,6.05c0.46,1.64,0.8,3.34,1.03,5.07C217.23,234.29,217.35,235.93,217.35,237.59z"/>
	<path class="st4" d="M235.94,136.63c-0.81,2.7-2.26,5.13-4.19,7.1c-2.29-1.52-4.41-3.29-6.31-5.26c-1.19-1.24-2.3-2.57-3.32-3.97
		c-1.45-1.99-2.7-4.13-3.73-6.38c2.66-0.84,5.15-2.09,7.38-3.65c0.88,1.97,1.98,3.83,3.26,5.55c1.11,1.47,2.34,2.83,3.7,4.07
		C233.73,135.01,234.81,135.86,235.94,136.63z"/>
	<path class="st4" d="M224.03,119.34c-2.18,1.77-4.71,3.12-7.46,3.95c-0.78-2.63-1.28-5.38-1.47-8.23c-0.05-0.8-0.08-1.6-0.08-2.41
		c0-0.25,0.01-0.5,0.02-0.75c0.05-2.62,0.37-5.17,0.93-7.63c2.52,1.09,5.13,1.97,7.84,2.63c-0.32,1.58-0.5,3.22-0.55,4.88
		c-0.01,0.29-0.02,0.59-0.02,0.87c0,0.78,0.04,1.54,0.1,2.3C223.46,116.44,223.69,117.91,224.03,119.34z"/>
	<path class="st4" d="M261,148.86c-2.14,0.51-4.35,0.84-6.61,0.98c-0.7,0.03-1.41,0.06-2.13,0.06c-3.87,0-7.61-0.6-11.13-1.7
		c-2.34-0.73-4.58-1.69-6.69-2.85c1.85-2.02,3.29-4.43,4.19-7.09c1.36,0.72,2.76,1.34,4.23,1.84c2.95,1.02,6.1,1.57,9.39,1.57
		c1.47,0,2.92-0.11,4.33-0.33c0.21-0.03,0.41-0.06,0.61-0.1C258.93,143.49,260.24,146.06,261,148.86z"/>
	<path class="st4" d="M266.06,78.05c-1.56,2.48-3.41,4.76-5.5,6.78c-2.63-0.79-5.41-1.21-8.3-1.21c-6.84,0-13.14,2.38-18.1,6.36
		c-1.42,1.14-2.72,2.39-3.9,3.77c-0.21,0.24-0.4,0.47-0.6,0.72c-2.93-0.49-5.74-1.33-8.38-2.49c1.23-1.84,2.62-3.57,4.15-5.15
		c1.2-1.24,2.48-2.4,3.83-3.47c6.34-4.98,14.32-7.96,23-7.96C257.15,75.4,261.8,76.34,266.06,78.05z"/>
	<path class="st4" d="M289.52,112.64c0,2.03-0.16,4.03-0.48,5.97c-2.12,13.13-11.09,23.95-23.12,28.7c-0.75-2.7-1.91-5.22-3.41-7.5
		c8.74-3.31,15.49-10.73,17.87-19.89c0.61-2.32,0.92-4.76,0.92-7.27c0-2.23-0.26-4.4-0.74-6.49c-1.28-5.57-4.16-10.53-8.15-14.37
		c1.84-2.07,3.5-4.28,4.97-6.63c5.73,5.23,9.81,12.22,11.4,20.12C289.26,107.65,289.52,110.12,289.52,112.64z"/>
	<path class="st4" d="M288.79,203.84c-1.59,7.9-5.67,14.89-11.4,20.12c-3.29,3.01-7.12,5.42-11.32,7.1
		c-4.26,1.71-8.92,2.65-13.8,2.65c-8.68,0-16.67-2.98-23-7.96c1.95-1.93,3.61-4.17,4.9-6.62c4.96,3.98,11.26,6.36,18.1,6.36
		c2.89,0,5.67-0.42,8.3-1.21c4.5-1.35,8.55-3.76,11.85-6.95c3.99-3.84,6.86-8.81,8.15-14.37
		C283.23,203.47,285.98,203.77,288.79,203.84z"/>
	<path class="st4" d="M242.88,169c-1.47,0.5-2.88,1.12-4.23,1.84c-0.92,0.49-1.83,1.04-2.7,1.63c-1.13,0.77-2.21,1.62-3.22,2.54
		c-2.72-0.98-5.19-2.47-7.28-4.38c1.9-1.97,4.02-3.74,6.31-5.26c0.87-0.58,1.78-1.12,2.7-1.62c2.11-1.16,4.35-2.12,6.69-2.85
		C241.5,163.68,242.07,166.39,242.88,169z"/>
	<path class="st4" d="M229.03,179.08c-1.27,1.72-2.37,3.58-3.26,5.55c-0.73,1.64-1.32,3.36-1.74,5.14c-0.34,1.43-0.58,2.9-0.69,4.4
		c-1.25,0.3-2.56,0.46-3.9,0.46c-1.5,0-2.95-0.22-4.34-0.58c0.18-2.85,0.69-5.6,1.47-8.23c0.49-1.66,1.1-3.28,1.82-4.84
		c1.03-2.25,2.28-4.39,3.73-6.38C224.17,176.43,226.5,177.95,229.03,179.08z"/>
	<path class="st4" d="M289.04,190.49c-2.99-0.08-5.89-0.53-8.66-1.3c-2.37-9.16-9.12-16.58-17.87-19.89
		c-1.71-0.64-3.47-1.13-5.31-1.44c-0.2-0.04-0.4-0.07-0.61-0.1c-1.06-2.69-1.81-5.53-2.2-8.49c2.26,0.13,4.47,0.46,6.61,0.98
		c1.68,0.41,3.33,0.92,4.92,1.55C277.95,166.54,286.92,177.36,289.04,190.49z"/>
	<path class="st4" d="M230.26,215.36c-1.15,2.62-2.79,4.96-4.83,6.91c-1.53-1.58-2.92-3.31-4.15-5.15
		c-2.47-3.69-4.27-7.83-5.3-12.28c-0.56-2.47-0.88-5.01-0.93-7.63c1.42,0.32,2.89,0.49,4.4,0.49c1.32,0,2.59-0.13,3.82-0.37
		c0.05,1.66,0.24,3.3,0.55,4.88c0.93,4.63,2.98,8.87,5.85,12.42C229.86,214.88,230.05,215.12,230.26,215.36z"/>
	<path class="st4" d="M171.6,102.46c0,1.79-0.24,3.51-0.65,5.17c-2.62-0.66-5.12-1.6-7.48-2.78c-0.96-0.47-1.88-0.98-2.78-1.53
		c-2.31-1.42-4.45-3.07-6.38-4.93c2.2-1.66,4.25-3.51,6.14-5.52c1.3,1.2,2.71,2.28,4.22,3.23c0.89,0.57,1.82,1.08,2.76,1.55
		c1.25,0.61,2.55,1.12,3.88,1.54C171.49,100.26,171.6,101.34,171.6,102.46z"/>
	<path class="st4" d="M196.72,104.84c-2.36,1.18-4.86,2.13-7.48,2.78c-1.65,0.42-3.35,0.73-5.09,0.91
		c-1.34,0.14-2.68,0.23-4.06,0.23s-2.72-0.08-4.06-0.23c0.45-1.95,0.7-3.99,0.7-6.08c0-0.72-0.04-1.43-0.09-2.13
		c1.13,0.13,2.28,0.22,3.45,0.22s2.32-0.08,3.45-0.22c1.83-0.22,3.61-0.61,5.32-1.15c1.34-0.42,2.63-0.93,3.88-1.54
		C194.62,99.66,195.99,102.12,196.72,104.84z"/>
	<path class="st4" d="M217.35,71.51c0,1.66-0.12,3.3-0.34,4.9c-2.13-0.54-4.37-0.84-6.67-0.84c-0.51,0-1.02,0.02-1.51,0.05
		c0.18-1.35,0.3-2.71,0.3-4.11c0-8.03-3.29-15.32-8.59-20.59c-3.29-3.26-7.35-5.74-11.88-7.15c-2.71-0.83-5.59-1.28-8.57-1.28
		c-2.98,0-5.86,0.45-8.57,1.28c-0.85-2.64-1.93-5.18-3.2-7.6c3.7-1.23,7.65-1.9,11.76-1.9c4.11,0,8.07,0.67,11.76,1.9
		c4.32,1.44,8.28,3.64,11.72,6.44C211.98,49.44,217.35,59.85,217.35,71.51z"/>
	<path class="st4" d="M215.99,81.48c-0.58,2.1-1.34,4.12-2.25,6.05c-1.95,4.09-4.62,7.75-7.85,10.85c-1.93,1.86-4.07,3.51-6.38,4.93
		c-0.82-2.69-2.2-5.14-3.99-7.22c1.51-0.95,2.92-2.02,4.22-3.23c3.41-3.14,6.07-7.09,7.68-11.54c0.05-0.13,0.09-0.28,0.14-0.41
		c0.91-0.12,1.84-0.21,2.78-0.21C212.3,80.71,214.19,81,215.99,81.48z"/>
	<path class="st4" d="M152.63,80.92c0.05,0.13,0.09,0.28,0.14,0.41c-1.85,2.32-3.97,4.41-6.32,6.21c-0.91-1.93-1.67-3.96-2.25-6.05
		c-0.46-1.64-0.8-3.34-1.03-5.07c-0.22-1.6-0.34-3.24-0.34-4.9c0-11.66,5.37-22.07,13.77-28.9c1.34,2.6,2.36,5.39,3.04,8.31
		c-5.3,5.27-8.59,12.56-8.59,20.59c0,1.4,0.11,2.76,0.3,4.11C151.62,77.44,152.05,79.21,152.63,80.92z"/>
	<path class="st4" d="M130.93,83.36c-1.95,1.93-3.61,4.17-4.9,6.62c-4.96-3.98-11.26-6.36-18.1-6.36c-2.89,0-5.67,0.42-8.3,1.21
		c-4.5,1.35-8.55,3.76-11.85,6.95c-3.99,3.84-6.86,8.81-8.15,14.37c-2.67-0.51-5.41-0.81-8.23-0.88c1.59-7.9,5.67-14.89,11.4-20.12
		c3.29-3.01,7.12-5.42,11.32-7.1c4.26-1.71,8.92-2.65,13.8-2.65C116.61,75.4,124.59,78.38,130.93,83.36z"/>
	<path class="st4" d="M134.76,138.47c-1.9,1.97-4.02,3.74-6.31,5.26c-0.87,0.58-1.78,1.12-2.7,1.62c-2.11,1.16-4.35,2.12-6.69,2.85
		c-0.36-2.77-0.94-5.49-1.74-8.1c1.47-0.5,2.88-1.12,4.23-1.84c0.92-0.49,1.83-1.04,2.7-1.63c1.13-0.77,2.21-1.62,3.22-2.54
		C130.19,135.07,132.66,136.56,134.76,138.47z"/>
	<path class="st4" d="M145.09,115.06c-0.18,2.85-0.69,5.6-1.47,8.23c-0.49,1.66-1.1,3.28-1.82,4.84c-1.03,2.25-2.28,4.39-3.73,6.38
		c-2.04-1.83-4.38-3.35-6.9-4.48c1.27-1.72,2.37-3.58,3.26-5.55c0.73-1.64,1.32-3.36,1.74-5.14c0.34-1.43,0.58-2.9,0.69-4.4
		c1.25-0.3,2.56-0.46,3.9-0.46C142.26,114.48,143.71,114.7,145.09,115.06z"/>
	<path class="st4" d="M105.8,149.84c-2.26-0.13-4.47-0.46-6.61-0.98c-1.69-0.41-3.33-0.92-4.92-1.55
		c-12.03-4.75-21-15.57-23.12-28.7c2.99,0.08,5.89,0.53,8.66,1.3c2.37,9.16,9.12,16.58,17.87,19.89c1.71,0.64,3.47,1.13,5.31,1.44
		c0.2,0.04,0.4,0.07,0.61,0.1C104.66,144.04,105.41,146.88,105.8,149.84z"/>
	<path class="st4" d="M145.15,111.89c-1.42-0.32-2.89-0.49-4.4-0.49c-1.32,0-2.59,0.13-3.82,0.37c-0.05-1.66-0.24-3.3-0.55-4.88
		c-0.93-4.63-2.98-8.87-5.85-12.42c-0.2-0.25-0.39-0.48-0.6-0.72c1.15-2.62,2.79-4.96,4.83-6.91c1.53,1.58,2.92,3.31,4.15,5.15
		c2.47,3.69,4.27,7.83,5.3,12.28C144.78,106.72,145.1,109.27,145.15,111.89z"/>
	<path class="st5" d="M173.69,90.03c-1.65,0.54-3.21,1.29-4.64,2.23c-1.03-1.92-2.33-3.69-3.86-5.21
		c-3.23-3.21-7.44-5.37-12.12-6.07c-0.14-0.02-0.28-0.05-0.42-0.06c-0.59-1.71-1.02-3.47-1.27-5.29c1.63,0.08,3.22,0.33,4.76,0.69
		c4.48,1.08,8.53,3.26,11.83,6.26C170.26,84.69,172.22,87.21,173.69,90.03z"/>
	<path class="st5" d="M144.21,81.48c-3.61,0.98-6.83,2.84-9.44,5.35c-2.03,1.95-3.68,4.29-4.83,6.91c-0.12,0.29-0.24,0.58-0.35,0.86
		c-1.62,0.23-3.29,0.35-4.97,0.35c-0.2,0-0.38-0.01-0.58-0.01c0.5-1.74,1.17-3.4,1.99-4.97c1.29-2.45,2.95-4.69,4.9-6.62
		c3.34-3.31,7.54-5.75,12.25-6.95C143.41,78.14,143.75,79.84,144.21,81.48z"/>
	<path class="st5" d="M166.04,123.92c-1.7,1.27-3.54,2.36-5.52,3.22c-0.95,0.41-1.91,0.76-2.91,1.06c-2.46,0.75-5.07,1.15-7.77,1.15
		c-2.8,0-5.51-0.43-8.05-1.22c0.72-1.56,1.33-3.17,1.82-4.84c1.97,0.6,4.06,0.92,6.23,0.92c2.07,0,4.06-0.31,5.96-0.85
		c1.01-0.29,1.98-0.65,2.93-1.07c1.45-0.65,2.8-1.46,4.07-2.4C163.71,121.37,164.8,122.72,166.04,123.92z"/>
	<path class="st5" d="M176.74,102.46c0,2.1-0.25,4.13-0.7,6.08c-1.2,5.19-3.9,9.8-7.62,13.36c-1.27-1.17-2.36-2.53-3.23-4.04
		c2.78-2.76,4.8-6.3,5.76-10.23c0.41-1.65,0.65-3.38,0.65-5.17c0-1.12-0.11-2.2-0.28-3.28c-0.21-1.4-0.55-2.75-1.02-4.05
		c1.41-0.99,2.97-1.77,4.65-2.29c0.9,2.35,1.48,4.87,1.69,7.49C176.7,101.03,176.74,101.74,176.74,102.46z"/>
	<path class="st5" d="M136.16,119.34c-0.42,1.78-1.01,3.49-1.74,5.14c-2.1-1.47-3.97-3.23-5.56-5.21c-0.65-0.81-1.24-1.65-1.8-2.54
		c-1.6-2.56-2.79-5.4-3.46-8.44c0.34,0,0.67,0.02,1.01,0.02c1.44,0,2.86-0.07,4.26-0.2c0.53,2,1.36,3.89,2.41,5.62
		c0.54,0.89,1.13,1.76,1.8,2.56C134.01,117.42,135.04,118.43,136.16,119.34z"/>
	<path class="st5" d="M147.06,154.55c0,1.17-0.09,2.33-0.24,3.46c-0.13,1.05-0.32,2.07-0.58,3.07c-1.33,5.3-4.22,9.98-8.17,13.51
		c-1.02-1.4-2.13-2.72-3.32-3.97c3.04-2.76,5.29-6.36,6.39-10.44c0.27-1,0.47-2.01,0.6-3.05c0.1-0.85,0.17-1.72,0.17-2.59
		c0-0.87-0.07-1.74-0.17-2.59c1.76-0.08,3.46-0.37,5.08-0.87C146.96,152.22,147.06,153.38,147.06,154.55z"/>
	<path class="st5" d="M103.37,168.35c-0.72,1.71-1.55,3.35-2.51,4.91c-1.18-1.22-2.24-2.55-3.17-3.97c-1.5-2.28-2.66-4.8-3.41-7.5
		c-0.65-2.3-1-4.73-1-7.24c0-2.52,0.35-4.94,1-7.24c1.59,0.63,3.24,1.14,4.92,1.55c-0.49,1.82-0.78,3.72-0.78,5.69
		c0,1.97,0.29,3.87,0.78,5.69c0.76,2.8,2.07,5.37,3.8,7.61C103.12,168.02,103.23,168.19,103.37,168.35z"/>
	<path class="st5" d="M146.24,148.02c-1.6,0.54-3.32,0.85-5.1,0.89c-1.1-4.08-3.35-7.68-6.39-10.44c-2.1-1.91-4.56-3.4-7.28-4.38
		c-1.24-0.45-2.54-0.78-3.87-1c-0.04-0.46-0.07-0.92-0.07-1.4c0-1.29,0.15-2.55,0.43-3.76c2.53,0.35,4.95,1.07,7.21,2.09
		c2.53,1.13,4.86,2.65,6.9,4.48C142.02,138.04,144.92,142.72,146.24,148.02z"/>
	<path class="st5" d="M120.44,131.7c0,0.38,0.04,0.75,0.06,1.12c-0.11,0-0.23-0.02-0.34-0.02c-1.87,0-3.67,0.27-5.39,0.71
		c-4.54,1.16-8.52,3.73-11.4,7.24c-0.13,0.16-0.25,0.33-0.37,0.49c-1.84-0.31-3.61-0.8-5.31-1.44c0.93-1.42,1.99-2.74,3.17-3.97
		c3.11-3.21,7.02-5.64,11.39-7c2.5-0.76,5.16-1.18,7.91-1.18c0.23,0,0.45,0.01,0.68,0.02C120.59,128.98,120.44,130.33,120.44,131.7z
		"/>
	<path class="st5" d="M131.17,179.08c-2.26,1.02-4.69,1.74-7.21,2.09c-1.02,0.14-2.05,0.24-3.11,0.26
		c-0.23,0.01-0.45,0.02-0.68,0.02c-2.75,0-5.41-0.42-7.91-1.18c0.91-1.51,1.76-3.06,2.52-4.66c1.73,0.44,3.52,0.71,5.39,0.71
		c0.11,0,0.23-0.02,0.34-0.02c1.05-0.01,2.08-0.12,3.09-0.28c1.34-0.22,2.63-0.54,3.87-1C128.83,176.25,130.06,177.61,131.17,179.08
		z"/>
	<path class="st5" d="M218.39,180.98c-0.72,1.56-1.33,3.17-1.82,4.84c-1.97-0.6-4.06-0.92-6.23-0.92c-2.07,0-4.06,0.31-5.96,0.85
		c-1.01,0.29-1.98,0.65-2.93,1.07c-1.45,0.65-2.8,1.46-4.07,2.4c-0.9-1.48-1.99-2.84-3.24-4.04c1.7-1.27,3.54-2.36,5.52-3.22
		c0.95-0.41,1.91-0.76,2.91-1.06c2.46-0.75,5.07-1.15,7.77-1.15C213.15,179.76,215.85,180.19,218.39,180.98z"/>
	<path class="st5" d="M208.84,233.48c-1.63-0.08-3.22-0.33-4.76-0.69c-4.48-1.08-8.53-3.26-11.83-6.26
		c-2.32-2.12-4.27-4.64-5.74-7.46c1.65-0.54,3.21-1.29,4.64-2.23c1.03,1.92,2.33,3.69,3.86,5.21c3.23,3.21,7.44,5.37,12.12,6.07
		c0.14,0.02,0.28,0.05,0.42,0.06C208.15,229.9,208.58,231.66,208.84,233.48z"/>
	<path class="st5" d="M236.16,214.16c-0.5,1.74-1.17,3.4-1.99,4.97c-1.29,2.45-2.95,4.69-4.9,6.62c-3.34,3.31-7.54,5.75-12.25,6.95
		c-0.23-1.73-0.57-3.42-1.03-5.07c3.61-0.98,6.83-2.84,9.44-5.35c2.03-1.95,3.68-4.29,4.83-6.91c0.12-0.29,0.24-0.58,0.35-0.86
		c1.62-0.23,3.29-0.35,4.97-0.35C235.78,214.15,235.96,214.16,236.16,214.16z"/>
	<path class="st5" d="M236.59,200.81c-0.34,0-0.67-0.02-1.01-0.02c-1.44,0-2.86,0.07-4.26,0.2c-0.53-2-1.36-3.89-2.41-5.62
		c-0.54-0.89-1.13-1.76-1.8-2.56c-0.91-1.12-1.95-2.13-3.07-3.04c0.42-1.78,1.01-3.49,1.74-5.14c2.1,1.47,3.97,3.23,5.56,5.21
		c0.65,0.81,1.24,1.65,1.8,2.54C234.73,194.93,235.92,197.78,236.59,200.81z"/>
	<path class="st5" d="M188.87,209.92c0.21,1.4,0.55,2.75,1.02,4.05c-1.41,0.99-2.97,1.77-4.65,2.29c-0.9-2.35-1.48-4.87-1.69-7.49
		c-0.05-0.7-0.09-1.41-0.09-2.13c0-2.1,0.25-4.13,0.7-6.08c1.2-5.19,3.9-9.8,7.62-13.36c1.27,1.17,2.36,2.53,3.23,4.04
		c-2.78,2.76-4.8,6.3-5.76,10.23c-0.41,1.65-0.65,3.38-0.65,5.17C188.59,207.76,188.71,208.84,188.87,209.92z"/>
	<path class="st5" d="M176.04,200.56c-1.74,0.18-3.43,0.49-5.09,0.91c-0.97-3.94-2.98-7.47-5.76-10.23
		c-0.74-0.74-1.55-1.41-2.38-2.02c-1.26-0.95-2.62-1.76-4.07-2.4c0.79-1.51,1.4-3.14,1.79-4.85c1.97,0.85,3.82,1.94,5.52,3.22
		c0.83,0.63,1.62,1.3,2.37,2.02C172.14,190.76,174.84,195.37,176.04,200.56z"/>
	<path class="st5" d="M156.12,232.79c-1.54,0.36-3.12,0.61-4.76,0.69c-0.49,0.03-1,0.05-1.51,0.05c-2.3,0-4.54-0.3-6.67-0.84
		c-4.71-1.19-8.91-3.64-12.25-6.95c1.36-1.07,2.63-2.23,3.83-3.47c2.61,2.52,5.84,4.38,9.44,5.35c1.8,0.48,3.69,0.77,5.64,0.77
		c0.95,0,1.87-0.08,2.78-0.21c0.14-0.01,0.28-0.04,0.42-0.06C154.19,229.6,155.21,231.15,156.12,232.79z"/>
	<path class="st5" d="M176.65,208.77c-0.21,2.62-0.78,5.14-1.69,7.49c-0.37,0.97-0.8,1.91-1.27,2.82c-1.47,2.82-3.42,5.34-5.74,7.46
		c-0.84-1.55-1.77-3.04-2.76-4.48c1.53-1.52,2.84-3.29,3.86-5.21c0.49-0.92,0.9-1.88,1.26-2.88c0.46-1.29,0.81-2.65,1.02-4.05
		C173.04,209.38,174.82,208.99,176.65,208.77z"/>
	<path class="st5" d="M129.59,214.49c0.11,0.29,0.23,0.58,0.35,0.86c-1.18,1.38-2.49,2.63-3.9,3.77c-0.82-1.57-1.49-3.24-1.99-4.97
		c-0.7-2.38-1.08-4.9-1.08-7.51c0-2,0.23-3.96,0.65-5.84c0.67-3.03,1.86-5.88,3.46-8.44c1.27,1.16,2.68,2.18,4.22,2.99
		c-1.06,1.73-1.88,3.62-2.41,5.62c-0.49,1.81-0.78,3.7-0.78,5.66C128.1,209.42,128.64,212.06,129.59,214.49z"/>
	<path class="st5" d="M157.62,180.91c-0.36,1.72-0.98,3.35-1.81,4.84c-1.9-0.54-3.89-0.85-5.96-0.85c-2.17,0-4.25,0.33-6.23,0.92
		c-2.75,0.82-5.28,2.18-7.46,3.95c-1.12,0.91-2.16,1.92-3.07,3.04c-1.56-0.78-2.98-1.78-4.22-2.97c1.59-1.98,3.46-3.74,5.56-5.21
		c2.23-1.56,4.72-2.8,7.38-3.65c2.54-0.79,5.24-1.22,8.05-1.22C152.55,179.76,155.16,180.16,157.62,180.91z"/>
	<path class="st5" d="M236.67,177.4c0,1.29-0.15,2.55-0.43,3.76c-2.53-0.35-4.95-1.07-7.21-2.09c-2.53-1.13-4.86-2.65-6.9-4.48
		c-3.95-3.53-6.84-8.21-8.17-13.51c1.6-0.54,3.32-0.85,5.1-0.89c1.1,4.08,3.35,7.68,6.39,10.44c2.1,1.91,4.56,3.4,7.28,4.38
		c1.24,0.45,2.54,0.78,3.87,1C236.64,176.47,236.67,176.93,236.67,177.4z"/>
	<path class="st5" d="M262.51,169.3c-0.93,1.42-1.99,2.74-3.17,3.97c-3.11,3.21-7.02,5.64-11.39,7c-2.5,0.76-5.16,1.18-7.91,1.18
		c-0.23,0-0.45-0.01-0.68-0.02c0.26-1.29,0.4-2.64,0.4-4.02c0-0.38-0.04-0.75-0.06-1.12c0.11,0,0.23,0.02,0.34,0.02
		c1.87,0,3.67-0.27,5.39-0.71c4.54-1.16,8.52-3.73,11.4-7.24c0.13-0.16,0.25-0.33,0.37-0.49
		C259.04,168.17,260.8,168.66,262.51,169.3z"/>
	<path class="st5" d="M266.92,154.55c0,2.52-0.35,4.94-1,7.24c-1.59-0.63-3.24-1.14-4.92-1.55c0.49-1.82,0.78-3.72,0.78-5.69
		c0-1.97-0.29-3.87-0.78-5.69c-0.76-2.8-2.07-5.37-3.8-7.61c-0.12-0.16-0.24-0.33-0.37-0.49c0.72-1.71,1.55-3.35,2.51-4.91
		c1.18,1.22,2.24,2.55,3.17,3.97c1.5,2.28,2.66,4.8,3.41,7.5C266.57,149.61,266.92,152.04,266.92,154.55z"/>
	<path class="st5" d="M247.94,128.85c-0.91,1.51-1.76,3.06-2.52,4.66c-1.73-0.44-3.52-0.71-5.39-0.71c-0.11,0-0.23,0.02-0.34,0.02
		c-1.05,0.01-2.08,0.12-3.09,0.28c-1.34,0.22-2.63,0.54-3.87,1c-1.36-1.24-2.59-2.6-3.7-4.07c2.26-1.02,4.68-1.74,7.21-2.09
		c1.02-0.14,2.05-0.24,3.11-0.26c0.23-0.01,0.45-0.02,0.68-0.02C242.78,127.66,245.44,128.09,247.94,128.85z"/>
	<path class="st5" d="M225.44,138.47c-3.04,2.76-5.29,6.36-6.39,10.44c-0.27,1-0.47,2.01-0.6,3.05c-0.1,0.85-0.17,1.72-0.17,2.59
		c0,0.87,0.07,1.74,0.17,2.59c-1.76,0.08-3.46,0.37-5.08,0.87c-0.14-1.13-0.24-2.29-0.24-3.46s0.09-2.33,0.24-3.46
		c0.13-1.05,0.32-2.07,0.58-3.07c1.33-5.3,4.22-9.98,8.17-13.51C223.14,135.9,224.25,137.23,225.44,138.47z"/>
	<path class="st5" d="M229.26,83.36c-1.36,1.07-2.63,2.23-3.83,3.47c-2.61-2.52-5.84-4.38-9.44-5.35c-1.8-0.48-3.69-0.77-5.64-0.77
		c-0.95,0-1.87,0.08-2.78,0.21c-0.14,0.01-0.28,0.04-0.42,0.06c-1.13-1.47-2.16-3.02-3.06-4.66c1.54-0.36,3.12-0.61,4.76-0.69
		c0.49-0.03,1-0.05,1.51-0.05c2.3,0,4.54,0.3,6.67,0.84C221.72,77.61,225.92,80.05,229.26,83.36z"/>
	<path class="st5" d="M201.46,122.29c-0.79,1.51-1.4,3.14-1.79,4.85c-1.97-0.85-3.82-1.94-5.52-3.22c-0.83-0.63-1.62-1.3-2.37-2.02
		c-3.72-3.55-6.42-8.17-7.62-13.36c1.74-0.18,3.43-0.49,5.09-0.91c0.97,3.94,2.98,7.47,5.76,10.23c0.74,0.74,1.55,1.41,2.38,2.02
		C198.65,120.83,200.01,121.64,201.46,122.29z"/>
	<path class="st5" d="M231.33,119.27c-1.59,1.98-3.46,3.74-5.56,5.21c-2.23,1.56-4.72,2.8-7.38,3.65c-2.54,0.79-5.24,1.22-8.05,1.22
		c-2.7,0-5.31-0.4-7.77-1.15c0.36-1.72,0.98-3.35,1.81-4.84c1.9,0.54,3.89,0.85,5.96,0.85c2.17,0,4.25-0.33,6.23-0.92
		c2.75-0.82,5.28-2.18,7.46-3.95c1.12-0.91,2.16-1.92,3.07-3.04C228.67,117.08,230.08,118.08,231.33,119.27z"/>
	<path class="st5" d="M195.02,87.05c-1.53,1.52-2.84,3.29-3.86,5.21c-0.49,0.92-0.9,1.88-1.26,2.88c-0.46,1.29-0.81,2.65-1.02,4.05
		c-1.72,0.54-3.49,0.93-5.32,1.15c0.21-2.62,0.78-5.14,1.69-7.49c0.37-0.97,0.8-1.91,1.27-2.82c1.47-2.82,3.42-5.34,5.74-7.46
		C193.1,84.12,194.02,85.61,195.02,87.05z"/>
	<path class="st5" d="M237.23,102.46c0,2-0.23,3.96-0.65,5.84c-0.67,3.03-1.86,5.88-3.46,8.44c-1.27-1.16-2.68-2.18-4.22-2.99
		c1.06-1.73,1.88-3.62,2.41-5.62c0.49-1.81,0.78-3.7,0.78-5.66c0-2.77-0.54-5.41-1.49-7.85c-0.11-0.29-0.23-0.58-0.35-0.86
		c1.18-1.38,2.49-2.63,3.9-3.77c0.82,1.57,1.49,3.24,1.99,4.97C236.85,97.33,237.23,99.85,237.23,102.46z"/>
	<path class="st4" d="M141.74,157.14c-0.12,1.04-0.33,2.05-0.6,3.05c-0.13,0-0.27-0.02-0.39-0.02c-4.83,0-9.19,1.99-12.31,5.2
		c-1.93,1.97-3.38,4.4-4.19,7.1c-0.34,1.13-0.57,2.31-0.66,3.53c-1.02,0.15-2.04,0.27-3.09,0.28c0.1-1.9,0.45-3.73,1.05-5.45
		c0.9-2.66,2.34-5.07,4.19-7.09c3.72-4.08,9.05-6.66,15.01-6.66C141.09,157.09,141.41,157.12,141.74,157.14z"/>
	<path class="st4" d="M136.96,196.46c0,0.29-0.01,0.59-0.02,0.87c-2-0.38-3.89-1.05-5.64-1.97c-1.54-0.81-2.95-1.83-4.22-2.99
		c-3.12-2.86-5.36-6.65-6.23-10.95c1.06-0.02,2.1-0.11,3.11-0.26c0.75,3.37,2.5,6.37,4.91,8.67c1.24,1.19,2.66,2.19,4.22,2.97
		c1.18,0.59,2.45,1.05,3.76,1.36C136.91,194.92,136.96,195.68,136.96,196.46z"/>
	<path class="st4" d="M160.96,179.36c-0.08,0.89-0.24,1.76-0.43,2.61c-0.39,1.71-1,3.34-1.79,4.85c-2.74,5.22-7.68,9.09-13.58,10.4
		c0.01-0.25,0.02-0.5,0.02-0.75c0-0.81-0.03-1.61-0.08-2.41c4.59-1.2,8.46-4.24,10.72-8.3c0.83-1.49,1.45-3.12,1.81-4.84
		c0.24-1.14,0.36-2.31,0.36-3.5c0-0.24-0.02-0.46-0.03-0.69C158.89,177.66,159.9,178.54,160.96,179.36z"/>
	<path class="st4" d="M161.03,176.75c-1.32-1.13-2.54-2.38-3.64-3.73c-0.8-3.05-2.41-5.77-4.6-7.92c-0.88-0.86-1.87-1.62-2.92-2.28
		c-1.13-0.71-2.34-1.29-3.63-1.73c0.26-1.01,0.44-2.02,0.58-3.07c0.77,0.24,1.52,0.54,2.25,0.87c0.79,0.35,1.55,0.76,2.28,1.21
		C156.99,163.56,160.8,169.7,161.03,176.75z"/>
	<path class="st4" d="M200.41,199.82c0,2.08-0.32,4.08-0.9,5.97c-0.9-0.55-1.83-1.06-2.78-1.53c0.38-1.42,0.61-2.91,0.61-4.44
		c0-3.12-0.85-6.05-2.32-8.58c-0.86-1.51-1.95-2.87-3.23-4.04c-1.01-0.95-2.13-1.77-3.35-2.45c1.27-0.35,2.51-0.77,3.7-1.26
		c0.71,0.51,1.39,1.08,2.02,1.69c1.24,1.2,2.33,2.56,3.24,4.04C199.29,192.3,200.41,195.93,200.41,199.82z"/>
	<path class="st4" d="M170.31,213.97c-0.36,1-0.77,1.95-1.26,2.88c-1.63-1.07-3.1-2.35-4.37-3.83c-1.79-2.09-3.16-4.53-3.99-7.22
		c-0.59-1.89-0.9-3.89-0.9-5.97c0-3.89,1.12-7.52,3.02-10.6c0.83,0.62,1.64,1.28,2.38,2.02c-1.47,2.53-2.32,5.46-2.32,8.58
		c0,1.53,0.23,3.02,0.61,4.44c0.73,2.72,2.11,5.19,3.97,7.2C168.3,212.4,169.26,213.25,170.31,213.97z"/>
	<path class="st4" d="M195.52,213.01c-1.26,1.48-2.73,2.76-4.37,3.83c-1.44,0.93-2.99,1.68-4.64,2.23
		c-2.01,0.68-4.17,1.05-6.41,1.05s-4.4-0.37-6.41-1.05c0.47-0.9,0.9-1.85,1.27-2.82c1.62,0.51,3.35,0.78,5.14,0.78
		c1.79,0,3.51-0.27,5.14-0.78c1.69-0.52,3.25-1.3,4.65-2.29c1.05-0.72,2-1.57,2.87-2.51C193.7,211.94,194.63,212.45,195.52,213.01z"
		/>
	<path class="st4" d="M239.69,132.82c-0.1,1.9-0.45,3.73-1.05,5.45c-0.9,2.66-2.34,5.07-4.19,7.09c-3.72,4.08-9.05,6.66-15.01,6.66
		c-0.33,0-0.66-0.03-0.99-0.05c0.12-1.04,0.33-2.05,0.6-3.05c0.13,0,0.27,0.02,0.39,0.02c4.83,0,9.19-1.99,12.31-5.2
		c1.93-1.97,3.38-4.4,4.19-7.1c0.34-1.13,0.56-2.31,0.66-3.53C237.61,132.95,238.64,132.83,239.69,132.82z"/>
	<path class="st4" d="M215.1,115.06c-4.59,1.2-8.46,4.24-10.72,8.3c-0.83,1.49-1.45,3.12-1.81,4.84c-0.24,1.14-0.36,2.31-0.36,3.5
		c0,0.24,0.02,0.46,0.03,0.69c-0.95-0.95-1.95-1.83-3.01-2.64c0.08-0.89,0.24-1.76,0.43-2.61c0.39-1.71,1-3.34,1.79-4.85
		c2.74-5.22,7.68-9.09,13.58-10.4c-0.01,0.25-0.02,0.5-0.02,0.75C215.02,113.45,215.05,114.26,215.1,115.06z"/>
	<path class="st4" d="M239.35,127.68c-1.06,0.02-2.1,0.11-3.11,0.26c-0.75-3.37-2.5-6.37-4.91-8.67c-1.24-1.19-2.66-2.19-4.22-2.97
		c-1.18-0.59-2.45-1.05-3.76-1.36c-0.06-0.76-0.1-1.52-0.1-2.3c0-0.29,0.01-0.59,0.02-0.87c2,0.38,3.89,1.05,5.64,1.97
		c1.54,0.81,2.95,1.83,4.22,2.99C236.25,119.59,238.49,123.38,239.35,127.68z"/>
	<path class="st4" d="M213.95,148.02c-0.26,1.01-0.44,2.02-0.58,3.07c-0.77-0.24-1.52-0.54-2.25-0.87
		c-0.79-0.35-1.55-0.76-2.28-1.21c-5.64-3.46-9.45-9.6-9.68-16.64c1.32,1.13,2.54,2.38,3.64,3.73c0.8,3.05,2.41,5.77,4.6,7.92
		c0.88,0.86,1.87,1.62,2.92,2.28C211.46,147,212.67,147.59,213.95,148.02z"/>
	<path class="st4" d="M228.9,195.36c-1.75,0.92-3.64,1.59-5.64,1.97c-1.23,0.24-2.51,0.37-3.82,0.37c-1.51,0-2.98-0.17-4.4-0.49
		c-5.91-1.3-10.84-5.18-13.58-10.4c0.95-0.42,1.92-0.78,2.93-1.07c2.26,4.06,6.12,7.1,10.72,8.3c1.39,0.36,2.84,0.58,4.34,0.58
		c1.35,0,2.65-0.16,3.9-0.46c1.32-0.31,2.58-0.77,3.76-1.36C227.77,193.61,228.36,194.47,228.9,195.36z"/>
	<path class="st4" d="M234.45,163.75c-0.92,0.5-1.83,1.05-2.7,1.62c-3.12-3.21-7.48-5.2-12.31-5.2c-0.12,0-0.26,0.02-0.39,0.02
		c-1.78,0.04-3.49,0.35-5.1,0.89c-1.28,0.43-2.5,1.02-3.63,1.73c0.35-1.28,0.62-2.59,0.8-3.92c0.73-0.33,1.48-0.64,2.25-0.87
		c1.61-0.5,3.32-0.79,5.08-0.87c0.33-0.02,0.66-0.05,0.99-0.05C225.4,157.09,230.73,159.67,234.45,163.75z"/>
	<path class="st4" d="M208.85,160.1c-0.33,1.73-0.81,3.39-1.44,4.99c-2.19,2.15-3.8,4.87-4.6,7.92c-0.31,1.19-0.5,2.42-0.55,3.7
		c-0.01,0.23-0.03,0.45-0.03,0.69c0,1.19,0.12,2.36,0.36,3.5c-1,0.3-1.96,0.65-2.91,1.06c-0.2-0.85-0.35-1.72-0.43-2.61
		c-0.06-0.64-0.1-1.29-0.1-1.95c0-0.23,0.02-0.44,0.03-0.66C199.39,169.7,203.21,163.56,208.85,160.1z"/>
	<path class="st4" d="M239.75,177.4c0,1.38-0.14,2.72-0.4,4.02c-0.86,4.31-3.1,8.1-6.23,10.95c-0.55-0.88-1.15-1.73-1.8-2.54
		c2.41-2.3,4.16-5.3,4.91-8.67c0.28-1.21,0.43-2.47,0.43-3.76c0-0.47-0.03-0.94-0.07-1.4c-0.09-1.22-0.32-2.4-0.66-3.53
		c0.87-0.6,1.78-1.14,2.7-1.63c0.6,1.72,0.95,3.54,1.05,5.45C239.71,176.65,239.75,177.02,239.75,177.4z"/>
	<path class="st4" d="M186.51,90.03c-0.47,0.9-0.9,1.85-1.27,2.82c-1.62-0.51-3.35-0.78-5.14-0.78c-1.79,0-3.51,0.27-5.14,0.78
		c-1.69,0.52-3.25,1.3-4.65,2.29c-1.05,0.72-2,1.57-2.87,2.51c-0.95-0.47-1.87-0.99-2.76-1.55c1.26-1.48,2.73-2.76,4.37-3.83
		c1.44-0.94,2.99-1.69,4.64-2.23c2.01-0.68,4.17-1.05,6.41-1.05S184.5,89.35,186.51,90.03z"/>
	<path class="st4" d="M200.41,109.28c0,3.89-1.12,7.52-3.02,10.6c-0.83-0.62-1.64-1.28-2.38-2.02c1.47-2.53,2.32-5.46,2.32-8.58
		c0-1.53-0.23-3.02-0.61-4.44c-0.73-2.72-2.11-5.19-3.97-7.2c-0.86-0.93-1.82-1.79-2.87-2.51c0.36-1,0.77-1.95,1.26-2.88
		c1.63,1.07,3.1,2.35,4.37,3.83c1.79,2.09,3.16,4.53,3.99,7.22C200.09,105.2,200.41,107.21,200.41,109.28z"/>
	<path class="st4" d="M171.77,124.35c-1.27,0.35-2.51,0.77-3.7,1.26c-0.71-0.51-1.39-1.08-2.02-1.68c-1.24-1.2-2.33-2.56-3.24-4.04
		c-1.9-3.08-3.02-6.71-3.02-10.6c0-2.08,0.32-4.08,0.9-5.97c0.9,0.55,1.83,1.06,2.78,1.53c-0.38,1.42-0.61,2.91-0.61,4.44
		c0,3.12,0.85,6.05,2.32,8.58c0.86,1.51,1.95,2.87,3.23,4.04C169.42,122.85,170.54,123.67,171.77,124.35z"/>
	<path class="st4" d="M194.15,123.92c-0.64,0.61-1.32,1.17-2.02,1.68c-0.68,0.5-1.38,0.98-2.12,1.39c-2.94,1.64-6.31,2.6-9.91,2.6
		s-6.98-0.96-9.91-2.6c1.54-0.55,3.14-0.98,4.79-1.26c1.62,0.5,3.34,0.78,5.13,0.78c1.79,0,3.5-0.28,5.13-0.78
		c1.13-0.36,2.2-0.82,3.21-1.39c1.22-0.68,2.34-1.5,3.35-2.45C192.53,122.62,193.32,123.3,194.15,123.92z"/>
	<path class="st4" d="M158.74,122.29c-0.95,0.42-1.92,0.78-2.93,1.07c-2.26-4.06-6.12-7.1-10.72-8.3c-1.39-0.36-2.84-0.58-4.34-0.58
		c-1.35,0-2.65,0.16-3.9,0.46c-1.32,0.31-2.58,0.77-3.76,1.36c-0.67-0.8-1.25-1.66-1.8-2.56c1.75-0.92,3.64-1.59,5.64-1.97
		c1.23-0.24,2.51-0.37,3.82-0.37c1.51,0,2.98,0.17,4.4,0.49C151.06,113.2,155.99,117.07,158.74,122.29z"/>
	<path class="st4" d="M149.87,146.29c-0.35,1.28-0.62,2.59-0.8,3.92c-0.73,0.33-1.48,0.64-2.25,0.87c-1.61,0.5-3.32,0.79-5.08,0.87
		c-0.33,0.02-0.66,0.05-0.99,0.05c-5.96,0-11.29-2.58-15.01-6.66c0.92-0.5,1.83-1.05,2.7-1.62c3.12,3.21,7.48,5.2,12.31,5.2
		c0.12,0,0.26-0.02,0.39-0.02c1.78-0.04,3.49-0.35,5.1-0.89C147.53,147.59,148.74,147,149.87,146.29z"/>
	<path class="st4" d="M161.06,131.7c0,0.23-0.02,0.44-0.03,0.66c-0.23,7.05-4.04,13.18-9.68,16.64c0.33-1.73,0.81-3.39,1.44-4.99
		c2.19-2.15,3.8-4.87,4.6-7.92c0.31-1.19,0.5-2.42,0.55-3.7c0.01-0.23,0.03-0.45,0.03-0.69c0-1.19-0.12-2.36-0.36-3.5
		c1-0.3,1.96-0.65,2.91-1.06c0.2,0.85,0.35,1.72,0.43,2.61C161.02,130.39,161.06,131.04,161.06,131.7z"/>
	<path class="st4" d="M123.6,133.1c0.09,1.22,0.32,2.4,0.66,3.53c-0.87,0.6-1.78,1.14-2.7,1.63c-0.6-1.72-0.95-3.54-1.05-5.45
		c-0.02-0.37-0.06-0.74-0.06-1.12c0-1.38,0.14-2.72,0.4-4.02c0.86-4.31,3.1-8.1,6.23-10.95c0.55,0.88,1.15,1.73,1.8,2.54
		c-2.41,2.3-4.16,5.3-4.91,8.67c-0.28,1.21-0.43,2.47-0.43,3.76C123.53,132.17,123.56,132.64,123.6,133.1z"/>
	<path class="st6" d="M150.82,154.55c0,1.9,0.18,3.75,0.53,5.55c-0.73-0.45-1.49-0.86-2.28-1.21c-0.2-1.42-0.31-2.87-0.31-4.34
		c0-1.47,0.11-2.92,0.31-4.34c0.79-0.35,1.55-0.76,2.28-1.21C151,150.8,150.82,152.65,150.82,154.55z"/>
	<path class="st6" d="M199.24,179.36c-2.17,1.67-4.55,3.07-7.11,4.14c-0.68-0.5-1.38-0.98-2.12-1.39c3.38-1.22,6.47-3.06,9.15-5.36
		c-0.01,0.22-0.03,0.43-0.03,0.66C199.14,178.06,199.18,178.72,199.24,179.36z"/>
	<path class="st6" d="M161.03,132.36c0.01-0.22,0.03-0.43,0.03-0.66c0-0.66-0.04-1.32-0.1-1.95c2.17-1.67,4.55-3.07,7.11-4.14
		c0.68,0.5,1.38,0.98,2.12,1.39C166.8,128.22,163.71,130.06,161.03,132.36z"/>
	<path class="st6" d="M199.14,131.7c0,0.23,0.02,0.44,0.03,0.66c-2.68-2.3-5.77-4.14-9.15-5.36c0.74-0.41,1.44-0.88,2.12-1.39
		c2.56,1.07,4.94,2.47,7.11,4.14C199.18,130.39,199.14,131.04,199.14,131.7z"/>
	<path class="st6" d="M170.18,182.11c-0.74,0.41-1.44,0.88-2.12,1.39c-2.56-1.07-4.94-2.47-7.11-4.14c0.06-0.64,0.1-1.29,0.1-1.95
		c0-0.23-0.02-0.44-0.03-0.66C163.71,179.05,166.8,180.89,170.18,182.11z"/>
	<path class="st6" d="M157.95,176.72c-3.8-3.8-6.63-8.57-8.08-13.9c1.05,0.66,2.03,1.42,2.92,2.28c1.12,2.89,2.68,5.56,4.6,7.92
		C157.7,174.21,157.89,175.44,157.95,176.72z"/>
	<path class="st6" d="M157.95,132.39c-0.05,1.27-0.25,2.51-0.55,3.7c-1.92,2.36-3.48,5.03-4.6,7.92c-0.88,0.86-1.87,1.62-2.92,2.28
		C151.32,140.96,154.14,136.19,157.95,132.39z"/>
	<path class="st6" d="M188.43,124.35c-1.01,0.57-2.08,1.03-3.21,1.39c-1.66-0.3-3.38-0.46-5.13-0.46c-1.75,0-3.46,0.16-5.13,0.46
		c-1.13-0.36-2.2-0.82-3.21-1.39c2.65-0.73,5.45-1.13,8.33-1.13S185.78,123.62,188.43,124.35z"/>
	<path class="st6" d="M210.33,162.81c-1.45,5.33-4.27,10.1-8.08,13.9c0.05-1.27,0.25-2.51,0.55-3.7c1.92-2.36,3.48-5.03,4.6-7.92
		C208.29,164.23,209.28,163.47,210.33,162.81z"/>
	<path class="st6" d="M188.43,184.76c-2.65,0.73-5.45,1.13-8.33,1.13s-5.68-0.4-8.33-1.13c1.01-0.57,2.08-1.03,3.21-1.39
		c1.66,0.3,3.38,0.46,5.13,0.46c1.75,0,3.46-0.16,5.13-0.46C186.36,183.73,187.42,184.19,188.43,184.76z"/>
	<path class="st6" d="M211.44,154.55c0,1.47-0.11,2.92-0.31,4.34c-0.79,0.35-1.55,0.76-2.28,1.21c0.35-1.8,0.53-3.65,0.53-5.55
		c0-1.9-0.18-3.75-0.53-5.55c0.73,0.45,1.49,0.86,2.28,1.21C211.32,151.63,211.44,153.08,211.44,154.55z"/>
	<path class="st6" d="M210.33,146.29c-1.05-0.66-2.03-1.42-2.92-2.28c-1.12-2.89-2.68-5.56-4.6-7.92c-0.31-1.19-0.5-2.42-0.55-3.7
		C206.05,136.19,208.88,140.96,210.33,146.29z"/>
	<path class="st6" d="M161.06,177.4c0,0.66-0.04,1.32-0.1,1.95c-1.06-0.81-2.07-1.7-3.01-2.64c-0.05-1.27-0.25-2.51-0.55-3.7
		c1.1,1.35,2.32,2.6,3.64,3.73C161.04,176.96,161.06,177.18,161.06,177.4z"/>
	<path class="st4" d="M190.01,182.11c-1.54,0.55-3.14,0.98-4.79,1.26c-1.62-0.5-3.34-0.78-5.13-0.78c-1.79,0-3.5,0.28-5.13,0.78
		c-1.13,0.36-2.2,0.82-3.21,1.39c-1.22,0.68-2.34,1.5-3.35,2.45c-0.75-0.72-1.54-1.4-2.37-2.02c0.64-0.61,1.32-1.17,2.02-1.69
		c0.68-0.5,1.38-0.98,2.12-1.39c2.94-1.64,6.31-2.6,9.91-2.6S187.07,180.47,190.01,182.11z"/>
	<path class="st6" d="M192.13,183.5c-1.19,0.49-2.42,0.91-3.7,1.26c-1.01-0.57-2.08-1.03-3.21-1.39c1.64-0.29,3.25-0.71,4.79-1.26
		C190.75,182.52,191.45,182.99,192.13,183.5z"/>
	<path class="st6" d="M202.8,136.09c-1.1-1.35-2.32-2.6-3.64-3.73c-0.01-0.22-0.03-0.43-0.03-0.66c0-0.66,0.04-1.32,0.1-1.95
		c1.06,0.81,2.07,1.7,3.01,2.64C202.3,133.66,202.5,134.9,202.8,136.09z"/>
	<path class="st6" d="M211.13,158.89c-0.18,1.34-0.45,2.64-0.8,3.92c-1.05,0.66-2.03,1.42-2.92,2.28c0.63-1.6,1.11-3.27,1.44-4.99
		C209.58,159.65,210.34,159.24,211.13,158.89z"/>
	<path class="st6" d="M174.97,125.73c-1.64,0.29-3.25,0.71-4.79,1.26c-0.74-0.41-1.44-0.88-2.12-1.39c1.19-0.49,2.42-0.91,3.7-1.26
		C172.77,124.91,173.84,125.37,174.97,125.73z"/>
	<path class="st6" d="M152.79,144.01c-0.63,1.6-1.11,3.27-1.44,4.99c-0.73,0.45-1.49,0.86-2.28,1.21c0.18-1.34,0.45-2.64,0.8-3.92
		C150.92,145.63,151.9,144.87,152.79,144.01z"/>
	<circle class="st6" cx="179.58" cy="154.04" r="16.32"/>
	<g>
		<path class="st7" d="M440.26,75.78c17.68,0.82,31.79,8.25,41.48,17.6l1.82,1.76l-20.13,19.95l-1.88-1.73
			c-6.95-6.4-15.01-9.52-24.53-9.52c-9.69,0-17.7,2.88-24.43,8.76c-6.86,5.99-10.19,12.94-10.19,21.15
			c0,8.31,3.34,15.24,10.18,21.14c6.78,5.85,14.8,8.71,24.44,8.71c9.69,0,17.76-3.12,24.59-9.5l1.88-1.76l20.12,19.94l-1.77,1.76
			c-5.49,5.44-11.96,9.76-19.65,12.95c-7.81,3.13-16.24,4.68-25.25,4.68c-17.8-0.05-33.18-5.72-45.77-16.91
			c-11.83-11.33-17.81-25.13-17.81-41.08c0-15.91,5.98-29.73,17.8-41.14c12.69-11.37,28.07-17.12,45.79-17.12h3.41L440.26,75.78z"/>
		<path class="st7" d="M493.56,190.88V76.34h28v114.55H493.56z"/>
		<path class="st7" d="M531.51,76.34h89.39v27.78h-29.21l1.07,86.76h-31.62l-0.34-86.76h-29.29V76.34z"/>
		<path class="st7" d="M630.84,76.05h79.02v27.93h-49.68v15.63h38.17v27.93h-38.17v15.63h49.68v27.86h-79.02V76.05z"/>
	</g>
	<g>
		<g>
			<path class="st3" d="M391.49,218.19c-1.11-1.45-2.95-2.25-4.76-2.25c-4.42,0-7.34,3.53-7.34,8.01c0,4.14,2.75,7.67,7.34,7.67
				c2.25,0,3.98-1,5.14-2.64l2.25,1.7c-0.58,0.81-2.95,3.45-7.45,3.45c-6.26,0-10.12-5.23-10.12-10.18c0-6.12,4.2-10.51,10.26-10.51
				c2.59,0,5.31,0.97,6.9,3.06L391.49,218.19z"/>
			<path class="st3" d="M398.6,227.95c0,2.31,2.14,3.84,4.45,3.84c1.53,0,2.64-0.78,3.62-1.97l1.89,1.45
				c-1.39,1.81-3.31,2.7-5.84,2.7c-4.17,0-6.78-3-6.78-6.92c0-3.95,2.86-6.92,6.81-6.92c4.64,0,6.42,3.56,6.42,6.95v0.89H398.6z
				 M406.5,225.95c-0.06-2.2-1.28-3.84-3.81-3.84c-2.47,0-4.09,2.09-4.09,3.84H406.5z"/>
			<path class="st3" d="M412.17,220.44h2.5v2.03h0.06c0.64-1.39,2.31-2.36,4.34-2.36c2.56,0,4.78,1.53,4.78,5.03v8.48h-2.5v-7.79
				c0-2.47-1.42-3.39-3-3.39c-2.09,0-3.67,1.33-3.67,4.39v6.78h-2.5V220.44z"/>
			<path class="st3" d="M434.7,222.61h-3.59v5.98c0,1.47,0,3.03,1.89,3.03c0.58,0,1.28-0.08,1.78-0.39v2.28
				c-0.58,0.33-1.75,0.44-2.25,0.44c-3.87,0-3.92-2.36-3.92-4.48v-6.87h-2.89v-2.17h2.89v-3.7h2.5v3.7h3.59V222.61z"/>
			<path class="st3" d="M437.92,220.44h2.5v2.03h0.06c0.64-1.39,2.31-2.36,3.95-2.36c0.39,0,0.78,0.06,1.11,0.17l-0.11,2.7
				c-0.42-0.11-0.83-0.19-1.22-0.19c-2.45,0-3.78,1.33-3.78,4.23v6.62h-2.5V220.44z"/>
			<path class="st3" d="M454.08,220.11c3.92,0,7.01,3.09,7.01,6.92c0,3.84-3.09,6.92-7.01,6.92c-3.92,0-7.01-3.09-7.01-6.92
				C447.07,223.2,450.16,220.11,454.08,220.11z M454.08,231.62c2.67,0,4.34-1.92,4.34-4.59c0-2.67-1.67-4.59-4.34-4.59
				c-2.67,0-4.34,1.92-4.34,4.59C449.74,229.7,451.41,231.62,454.08,231.62z"/>
			<path class="st3" d="M485.17,233.62h-2.5v-1.89h-0.06c-0.97,1.42-2.81,2.22-4.59,2.22c-4.09,0-6.7-3.03-6.7-6.92
				c0-3.95,2.64-6.92,6.7-6.92c1.89,0,3.7,0.86,4.59,2.22h0.06v-9.73h2.5V233.62z M482.67,227.03c0-2.67-1.67-4.59-4.34-4.59
				c-2.67,0-4.34,1.92-4.34,4.59c0,2.67,1.67,4.59,4.34,4.59C481,231.62,482.67,229.7,482.67,227.03z"/>
			<path class="st3" d="M490.84,227.95c0,2.31,2.14,3.84,4.45,3.84c1.53,0,2.64-0.78,3.62-1.97l1.89,1.45
				c-1.39,1.81-3.31,2.7-5.84,2.7c-4.17,0-6.78-3-6.78-6.92c0-3.95,2.86-6.92,6.81-6.92c4.64,0,6.42,3.56,6.42,6.95v0.89H490.84z
				 M498.74,225.95c-0.06-2.2-1.28-3.84-3.81-3.84c-2.47,0-4.09,2.09-4.09,3.84H498.74z"/>
			<path class="st3" d="M512.78,213.94h2.67v19.69h-2.67V213.94z"/>
			<path class="st3" d="M519.87,220.44h2.5v2.03h0.06c0.64-1.39,2.31-2.36,4.34-2.36c2.56,0,4.78,1.53,4.78,5.03v8.48h-2.5v-7.79
				c0-2.47-1.42-3.39-3-3.39c-2.09,0-3.67,1.33-3.67,4.39v6.78h-2.5V220.44z"/>
			<path class="st3" d="M533.75,220.44h2.89l3.95,10.09l3.78-10.09h2.67l-5.17,13.18h-2.75L533.75,220.44z"/>
			<path class="st3" d="M551.13,227.95c0,2.31,2.14,3.84,4.45,3.84c1.53,0,2.64-0.78,3.62-1.97l1.89,1.45
				c-1.39,1.81-3.31,2.7-5.84,2.7c-4.17,0-6.78-3-6.78-6.92c0-3.95,2.86-6.92,6.81-6.92c4.64,0,6.42,3.56,6.42,6.95v0.89H551.13z
				 M559.02,225.95c-0.06-2.2-1.28-3.84-3.81-3.84c-2.47,0-4.09,2.09-4.09,3.84H559.02z"/>
			<path class="st3" d="M571.7,223.75c-0.58-0.72-1.45-1.31-2.7-1.31c-1.17,0-2.2,0.53-2.2,1.47c0,1.59,2.25,1.81,3.36,2.06
				c2.17,0.53,3.84,1.36,3.84,3.84c0,2.98-2.72,4.14-5.34,4.14c-2.17,0-3.78-0.56-5.09-2.34l1.89-1.56c0.81,0.81,1.75,1.56,3.2,1.56
				c1.28,0,2.67-0.53,2.67-1.67c0-1.5-2.09-1.78-3.17-2.03c-2.14-0.53-4.03-1.22-4.03-3.75c0-2.75,2.53-4.06,5.01-4.06
				c1.75,0,3.56,0.61,4.5,2.17L571.7,223.75z"/>
			<path class="st3" d="M584.11,222.61h-3.59v5.98c0,1.47,0,3.03,1.89,3.03c0.58,0,1.28-0.08,1.78-0.39v2.28
				c-0.58,0.33-1.75,0.44-2.25,0.44c-3.87,0-3.92-2.36-3.92-4.48v-6.87h-2.89v-2.17h2.89v-3.7h2.5v3.7h3.59V222.61z"/>
			<path class="st3" d="M588.78,213.88c1,0,1.84,0.83,1.84,1.84c0,1-0.83,1.83-1.84,1.83c-1,0-1.83-0.83-1.83-1.83
				C586.94,214.71,587.78,213.88,588.78,213.88z M587.53,220.44h2.5v13.18h-2.5V220.44z"/>
			<path class="st3" d="M607.21,233.51c0,3.98-2.89,6.78-7.2,6.78c-2.5,0-4.59-0.64-6.45-2.36l1.7-2.11
				c1.31,1.39,2.78,2.14,4.7,2.14c3.73,0,4.75-2.34,4.75-4.56v-1.95h-0.08c-0.95,1.59-2.75,2.34-4.56,2.34
				c-3.87,0-6.73-2.92-6.7-6.76c0-3.89,2.61-6.92,6.7-6.92c1.78,0,3.62,0.81,4.59,2.22h0.06v-1.89h2.5V233.51z M596.03,227.03
				c0,2.67,1.67,4.42,4.34,4.42c2.67,0,4.34-1.75,4.34-4.42c0-2.67-1.67-4.59-4.34-4.59C597.7,222.44,596.03,224.36,596.03,227.03z"
				/>
			<path class="st3" d="M611.05,222.05c1.39-1.31,3.39-1.95,5.23-1.95c3.89,0,5.51,2.11,5.51,4.39v6.73c0,0.92,0.03,1.7,0.11,2.39
				h-2.22c-0.06-0.67-0.08-1.33-0.08-2h-0.06c-1.11,1.7-2.61,2.34-4.62,2.34c-2.45,0-4.56-1.39-4.56-3.95
				c0-3.39,3.25-4.56,7.26-4.56h1.84v-0.56c0-1.36-1-2.78-3.14-2.78c-1.92,0-2.84,0.81-3.75,1.5L611.05,222.05z M618.11,227.28
				c-2.36,0-5.26,0.42-5.26,2.53c0,1.5,1.11,2.14,2.84,2.14c2.78,0,3.75-2.06,3.75-3.84v-0.83H618.11z"/>
			<path class="st3" d="M634.85,223.95c-0.92-0.97-1.89-1.47-3.28-1.47c-2.72,0-4.12,2.2-4.12,4.67c0,2.47,1.67,4.48,4.25,4.48
				c1.39,0,2.36-0.5,3.2-1.47l1.78,1.78c-1.31,1.45-3.09,2.03-5.01,2.03c-4.06,0-6.9-2.81-6.9-6.87c0-4.06,2.78-6.95,6.9-6.95
				c1.92,0,3.75,0.67,5.06,2.09L634.85,223.95z"/>
			<path class="st3" d="M640.28,213.88c1,0,1.84,0.83,1.84,1.84c0,1-0.83,1.83-1.84,1.83c-1,0-1.83-0.83-1.83-1.83
				C638.44,214.71,639.28,213.88,640.28,213.88z M639.03,220.44h2.5v13.18h-2.5V220.44z"/>
			<path class="st3" d="M651.87,220.11c3.92,0,7.01,3.09,7.01,6.92c0,3.84-3.09,6.92-7.01,6.92c-3.92,0-7.01-3.09-7.01-6.92
				C644.86,223.2,647.95,220.11,651.87,220.11z M651.87,231.62c2.67,0,4.34-1.92,4.34-4.59c0-2.67-1.67-4.59-4.34-4.59
				c-2.67,0-4.34,1.92-4.34,4.59C647.53,229.7,649.2,231.62,651.87,231.62z M652.93,213.94h3.56l-4.14,4h-2.31L652.93,213.94z"/>
			<path class="st3" d="M662.02,220.44h2.5v2.03h0.06c0.64-1.39,2.31-2.36,4.34-2.36c2.56,0,4.78,1.53,4.78,5.03v8.48h-2.5v-7.79
				c0-2.47-1.42-3.39-3-3.39c-2.09,0-3.67,1.33-3.67,4.39v6.78h-2.5V220.44z"/>
			<path class="st3" d="M687.1,227.95c0,2.31,2.14,3.84,4.45,3.84c1.53,0,2.64-0.78,3.62-1.97l1.89,1.45
				c-1.39,1.81-3.31,2.7-5.84,2.7c-4.17,0-6.78-3-6.78-6.92c0-3.95,2.86-6.92,6.81-6.92c4.64,0,6.42,3.56,6.42,6.95v0.89H687.1z
				 M695,225.95c-0.06-2.2-1.28-3.84-3.81-3.84c-2.47,0-4.09,2.09-4.09,3.84H695z"/>
			<path class="st3" d="M700.67,220.44h2.5v2.03h0.06c0.64-1.39,2.31-2.36,4.34-2.36c2.56,0,4.78,1.53,4.78,5.03v8.48h-2.5v-7.79
				c0-2.47-1.42-3.39-3-3.39c-2.09,0-3.67,1.33-3.67,4.39v6.78h-2.5V220.44z"/>
			<path class="st3" d="M381.89,249.81h-6.34v-2.5h15.35v2.5h-6.34v17.18h-2.67V249.81z"/>
			<path class="st3" d="M391.9,261.32c0,2.31,2.14,3.84,4.45,3.84c1.53,0,2.64-0.78,3.62-1.97l1.89,1.45
				c-1.39,1.81-3.31,2.7-5.84,2.7c-4.17,0-6.78-3-6.78-6.92c0-3.95,2.86-6.92,6.81-6.92c4.64,0,6.42,3.56,6.42,6.95v0.89H391.9z
				 M399.8,259.32c-0.06-2.2-1.28-3.84-3.81-3.84c-2.47,0-4.09,2.09-4.09,3.84H399.8z"/>
			<path class="st3" d="M414.9,257.32c-0.92-0.97-1.89-1.47-3.28-1.47c-2.72,0-4.12,2.2-4.12,4.67c0,2.47,1.67,4.48,4.25,4.48
				c1.39,0,2.36-0.5,3.2-1.47l1.78,1.78c-1.31,1.45-3.09,2.03-5.01,2.03c-4.06,0-6.9-2.81-6.9-6.87c0-4.06,2.78-6.95,6.9-6.95
				c1.92,0,3.75,0.67,5.06,2.09L414.9,257.32z"/>
			<path class="st3" d="M418.88,253.81h2.5v2.03h0.06c0.64-1.39,2.31-2.36,4.34-2.36c2.56,0,4.78,1.53,4.78,5.03v8.48h-2.5v-7.79
				c0-2.47-1.42-3.39-3-3.39c-2.09,0-3.67,1.33-3.67,4.39v6.78h-2.5V253.81z"/>
			<path class="st3" d="M440.7,253.48c3.92,0,7.01,3.09,7.01,6.92c0,3.84-3.09,6.92-7.01,6.92c-3.92,0-7.01-3.09-7.01-6.92
				C433.7,256.56,436.78,253.48,440.7,253.48z M440.7,264.99c2.67,0,4.34-1.92,4.34-4.59c0-2.67-1.67-4.59-4.34-4.59
				c-2.67,0-4.34,1.92-4.34,4.59C436.37,263.07,438.04,264.99,440.7,264.99z"/>
			<path class="st3" d="M451.05,245.97h2.5v21.02h-2.5V245.97z"/>
			<path class="st3" d="M463.9,253.48c3.92,0,7.01,3.09,7.01,6.92c0,3.84-3.09,6.92-7.01,6.92c-3.92,0-7.01-3.09-7.01-6.92
				C456.89,256.56,459.97,253.48,463.9,253.48z M463.9,264.99c2.67,0,4.34-1.92,4.34-4.59c0-2.67-1.67-4.59-4.34-4.59
				c-2.67,0-4.34,1.92-4.34,4.59C459.56,263.07,461.23,264.99,463.9,264.99z"/>
			<path class="st3" d="M487.25,266.88c0,3.98-2.89,6.78-7.2,6.78c-2.5,0-4.59-0.64-6.45-2.36l1.7-2.11
				c1.31,1.39,2.78,2.14,4.7,2.14c3.73,0,4.75-2.34,4.75-4.56v-1.95h-0.08c-0.95,1.59-2.75,2.34-4.56,2.34
				c-3.87,0-6.73-2.92-6.7-6.76c0-3.89,2.61-6.92,6.7-6.92c1.78,0,3.61,0.81,4.59,2.22h0.06v-1.89h2.5V266.88z M476.07,260.4
				c0,2.67,1.67,4.42,4.34,4.42c2.67,0,4.34-1.75,4.34-4.42c0-2.67-1.67-4.59-4.34-4.59C477.74,255.81,476.07,257.73,476.07,260.4z"
				/>
			<path class="st3" d="M493.54,247.3h3.56l-4.14,4h-2.31L493.54,247.3z M491.23,253.81h2.5v13.18h-2.5V253.81z"/>
			<path class="st3" d="M497.76,255.42c1.39-1.31,3.39-1.95,5.23-1.95c3.89,0,5.51,2.11,5.51,4.39v6.73c0,0.92,0.03,1.7,0.11,2.39
				h-2.22c-0.06-0.67-0.08-1.33-0.08-2h-0.06c-1.11,1.7-2.61,2.34-4.62,2.34c-2.45,0-4.56-1.39-4.56-3.95
				c0-3.39,3.25-4.56,7.26-4.56h1.84v-0.56c0-1.36-1-2.78-3.14-2.78c-1.92,0-2.84,0.81-3.75,1.5L497.76,255.42z M504.83,260.65
				c-2.36,0-5.26,0.42-5.26,2.53c0,1.5,1.11,2.14,2.84,2.14c2.78,0,3.75-2.06,3.75-3.84v-0.83H504.83z"/>
			<path class="st3" d="M520.51,247.3h12.71v2.5h-10.04v5.87h9.34v2.5h-9.34v6.31h10.54v2.5h-13.21V247.3z"/>
			<path class="st3" d="M550.07,266.99h-2.5v-1.89h-0.06c-0.97,1.42-2.81,2.22-4.59,2.22c-4.09,0-6.7-3.03-6.7-6.92
				c0-3.95,2.64-6.92,6.7-6.92c1.89,0,3.7,0.86,4.59,2.22h0.06v-9.73h2.5V266.99z M547.57,260.4c0-2.67-1.67-4.59-4.34-4.59
				c-2.67,0-4.34,1.92-4.34,4.59c0,2.67,1.67,4.59,4.34,4.59C545.9,264.99,547.57,263.07,547.57,260.4z"/>
			<path class="st3" d="M565.53,266.99h-2.5v-2.03h-0.06c-0.64,1.39-2.31,2.36-4.34,2.36c-2.56,0-4.78-1.53-4.78-5.03v-8.48h2.5
				v7.79c0,2.48,1.42,3.39,3,3.39c2.09,0,3.67-1.33,3.67-4.39v-6.79h2.5V266.99z"/>
			<path class="st3" d="M578.74,257.32c-0.92-0.97-1.89-1.47-3.28-1.47c-2.73,0-4.12,2.2-4.12,4.67c0,2.47,1.67,4.48,4.25,4.48
				c1.39,0,2.36-0.5,3.2-1.47l1.78,1.78c-1.31,1.45-3.09,2.03-5.01,2.03c-4.06,0-6.9-2.81-6.9-6.87c0-4.06,2.78-6.95,6.9-6.95
				c1.92,0,3.75,0.67,5.06,2.09L578.74,257.32z"/>
			<path class="st3" d="M582.77,255.42c1.39-1.31,3.39-1.95,5.23-1.95c3.89,0,5.51,2.11,5.51,4.39v6.73c0,0.92,0.03,1.7,0.11,2.39
				h-2.22c-0.06-0.67-0.08-1.33-0.08-2h-0.06c-1.11,1.7-2.61,2.34-4.62,2.34c-2.45,0-4.56-1.39-4.56-3.95
				c0-3.39,3.25-4.56,7.26-4.56h1.84v-0.56c0-1.36-1-2.78-3.14-2.78c-1.92,0-2.84,0.81-3.75,1.5L582.77,255.42z M589.83,260.65
				c-2.36,0-5.26,0.42-5.26,2.53c0,1.5,1.11,2.14,2.84,2.14c2.78,0,3.75-2.06,3.75-3.84v-0.83H589.83z"/>
			<path class="st3" d="M604.21,255.98h-3.59v5.98c0,1.47,0,3.03,1.89,3.03c0.58,0,1.28-0.08,1.78-0.39v2.28
				c-0.58,0.33-1.75,0.44-2.25,0.44c-3.87,0-3.92-2.36-3.92-4.48v-6.87h-2.89v-2.17h2.89v-3.7h2.5v3.7h3.59V255.98z"/>
			<path class="st3" d="M608.88,247.25c1,0,1.84,0.83,1.84,1.84c0,1-0.83,1.83-1.84,1.83c-1,0-1.83-0.83-1.83-1.83
				C607.05,248.08,607.88,247.25,608.88,247.25z M607.63,253.81h2.5v13.18h-2.5V253.81z"/>
			<path class="st3" d="M612.52,253.81h2.89l3.95,10.09l3.78-10.09h2.67l-5.17,13.18h-2.75L612.52,253.81z"/>
			<path class="st3" d="M628.07,255.42c1.39-1.31,3.39-1.95,5.23-1.95c3.89,0,5.51,2.11,5.51,4.39v6.73c0,0.92,0.03,1.7,0.11,2.39
				h-2.22c-0.06-0.67-0.08-1.33-0.08-2h-0.06c-1.11,1.7-2.61,2.34-4.62,2.34c-2.45,0-4.56-1.39-4.56-3.95
				c0-3.39,3.25-4.56,7.26-4.56h1.84v-0.56c0-1.36-1-2.78-3.14-2.78c-1.92,0-2.84,0.81-3.75,1.5L628.07,255.42z M635.13,260.65
				c-2.36,0-5.26,0.42-5.26,2.53c0,1.5,1.11,2.14,2.84,2.14c2.78,0,3.75-2.06,3.75-3.84v-0.83H635.13z"/>
		</g>
	</g>
	<rect x="375.72" y="198.78" class="st6" width="334.32" height="9.52"/>
</g>
</svg>
