<?xml version="1.0" encoding="utf-8"?>
<!-- Generator: Adobe Illustrator 26.0.0, SVG Export Plug-In . SVG Version: 6.00 Build 0)  -->
<svg version="1.1" id="Capa_1" xmlns="http://www.w3.org/2000/svg" xmlns:xlink="http://www.w3.org/1999/xlink" x="0px" y="0px"
	 viewBox="0 0 214.71 269.09" style="enable-background:new 0 0 214.71 269.09;" xml:space="preserve">
<style type="text/css">
	.st0{clip-path:url(#SVGID_00000105399027513717237410000005678571199101914030_);}
	.st1{clip-path:url(#SVGID_00000183236983995033466070000007569818381909635461_);}
	.st2{fill:none;}
	.st3{fill:#143A61;}
	.st4{fill:#0B7798;}
	.st5{fill:#90CDD1;}
	.st6{fill:#E23E48;}
	.st7{fill:#020203;}
	.st8{fill:#FFFFFF;}
	.st9{clip-path:url(#SVGID_00000161611047813903167230000011617645628377939901_);}
	.st10{clip-path:url(#SVGID_00000080900867466484274780000000289432466682389142_);}
	.st11{clip-path:url(#SVGID_00000107563799506958353070000005424024568965191868_);}
	.st12{fill:url(#SVGID_00000139975282044852884060000007082125935782353546_);}
	.st13{fill:url(#SVGID_00000117636160965491040840000005763872848187123083_);}
	.st14{fill:#219991;}
	.st15{fill:#01613B;}
	.st16{fill:#056734;}
	.st17{fill:#06A099;}
	.st18{fill:#123A5E;}
	.st19{fill:url(#SVGID_00000104702318769509398510000009845026781956052120_);}
	.st20{fill:url(#SVGID_00000085966156558926320180000005967743304604335498_);}
	.st21{clip-path:url(#SVGID_00000177459111178049708520000013879688577755777455_);}
	.st22{fill:url(#SVGID_00000103243954870822337850000006030621040108662205_);}
	.st23{fill:url(#SVGID_00000015316528432594882000000008798069345493376703_);}
	.st24{fill:#BA1E41;}
	.st25{fill:#C08F5A;}
</style>
<g>
	<g>
		<g>
			<path class="st18" d="M200.19,12.37c-0.02,51.36,0.06,103.16,0,154.77c-0.02,0-0.02,0.01-0.02,0.04
				c-0.9,21.21-7.11,36.77-16.55,49.46c-7.07,9.54-15.64,17.42-25.45,24.19c-1.64,1.12-3.32,2.1-5.1,3.09
				c-1.69,1.06-3.49,2.02-5.34,2.94c-11.56,6.19-24.56,11.34-39.59,14.06c-0.69,0.16-0.99,0.11-1.72,0
				c-12.24-2.26-22.74-6.13-32.64-10.7c-7.57-3.48-14.67-7.44-20.94-12.13c-12.7-9.56-23.23-20.76-30.19-35.82
				c-4.35-9.4-7.27-20.37-8.01-33.39c-0.09-2.59-0.07-5.34-0.07-8.16V12.11h138.9c15.36,0,30.75-0.08,46.24,0h0.33
				C200.19,12.14,200.19,12.11,200.19,12.37 M198.19,161.1V14.12c-1.82-0.12-3.99-0.06-5.95-0.06H16.69
				c-0.08,0.04-0.08,0.04-0.08,0.11V161.1c0,3.47,0,6.87,0.2,10.12c0.26,3.22,0.67,6.35,1.22,9.37
				c4.15,23.63,16.21,39.73,31.5,52.39c3.82,3.19,7.93,6.1,12.35,8.65c8.81,5.22,18.19,9.6,28.81,13.18
				c4.76,1.62,10.16,3.07,15.62,4.01c0.41,0.09,0.85,0.28,1.09,0.24c0.34,0,0.75-0.15,1.14-0.24c5.51-1,10.8-2.4,15.61-4.01
				c10.6-3.59,20.06-7.97,28.79-13.18c2.23-1.31,4.37-2.63,6.41-4.08c2-1.45,3.99-2.98,5.91-4.58
				c15.23-12.63,27.41-28.78,31.55-52.44c0.5-2.97,0.9-6.1,1.15-9.32C198.19,167.97,198.19,164.57,198.19,161.1"/>
			<path class="st18" d="M196.48,91.58c0.14,2.54-0.74,4.34-1.96,5.64c-1.32,1.35-2.83,2.29-5.17,2.48c-2.5,0.16-4.44-0.8-5.77-1.89
				c-1.39-1.2-2.33-2.78-2.58-5.1c-0.18-2.6,0.73-4.34,1.96-5.7c0.61-0.63,1.24-1.2,2.16-1.64c0.82-0.47,1.88-0.76,3.03-0.85
				c2.46-0.16,4.55,0.75,5.81,1.9C195.2,87.59,196.26,89.24,196.48,91.58 M191.44,97.61c1.9-0.91,3.65-2.7,3.65-5.59
				c0-2.06-0.97-3.47-2.01-4.43c-1.09-0.94-2.82-1.74-4.95-1.54c-1.47,0.1-2.44,0.6-3.33,1.26c-0.98,0.75-1.6,1.54-2.01,2.57
				c-0.5,1.29-0.52,2.77-0.15,3.93C183.58,96.97,187.54,99.4,191.44,97.61"/>
			<path class="st18" d="M196.37,131.01c0.18,2.48-0.7,4.37-1.93,5.66c-1.3,1.33-2.85,2.2-5.2,2.43c-2.5,0.18-4.43-0.78-5.67-1.94
				c-1.5-1.23-2.38-2.74-2.63-5.04c-0.19-2.64,0.83-4.38,1.97-5.73c0.59-0.64,1.25-1.2,2.12-1.63c0.9-0.46,1.93-0.75,3.06-0.81
				c2.45-0.17,4.53,0.71,5.79,1.9C195.15,127.08,196.23,128.7,196.37,131.01 M194.59,133.81c0.72-1.68,0.5-4.29-0.64-5.79
				c-1.05-1.39-3.02-2.81-5.88-2.55c-1.92,0.17-3.08,0.9-4.07,1.89c-0.88,0.94-1.71,2.34-1.67,4.23c0,2.29,1.17,3.8,2.53,4.77
				c1.57,1.14,3.72,1.63,5.82,0.9C192.43,136.72,193.85,135.55,194.59,133.81"/>
			<path class="st18" d="M196.23,68.71c-0.14,0.48,0.14,1.12,0,1.64c-0.06,0.26-0.61,0.44-0.87,0.6c-2.09,1.29-4.37,2.74-6.32,3.86
				c0.15-2.15-0.27-3.55-1.55-4.21c-1.33-0.77-3.26-0.21-3.98,0.71c-1.05,1.2-0.66,3.4-0.75,5.44h13.49v1.42h-14.9
				c0.12-2.45-0.32-4.78,0.33-6.5c0.54-1.6,1.99-2.83,3.95-2.97c2.64-0.2,4.47,1.28,4.78,3.56
				C192.25,71.23,194.35,69.8,196.23,68.71"/>
			<path class="st18" d="M196.23,154.32v1.44h-14.9v-1.44h6.61c0.11-2.3,0.05-4.7,0.05-7.07c-2.16-0.1-4.43-0.03-6.66-0.03v-1.35
				c0-0.06,0-0.1,0-0.1h14.9v1.46h-6.78c-0.03,2.31-0.01,4.71-0.01,7.06C191.63,154.38,193.95,154.32,196.23,154.32"/>
			<path class="st18" d="M196.17,106.28v1.66c-4.35,2.84-8.76,5.44-13.13,8.22c4.37-0.04,8.73-0.08,13.09-0.16
				c0.06,0.41,0,0.99,0.05,1.47h-14.89c0.14-0.48-0.17-1.23,0-1.71c0.05-0.2,0.5-0.42,0.75-0.59c4.07-2.51,8.39-5.2,12.33-7.67
				c-4.35,0.07-8.72,0.14-13.08,0.16v-1.35c0-0.03,0-0.03,0-0.03H196.17z"/>
			<path class="st18" d="M195.98,169.45c-0.3,2.22-0.49,4.48-0.75,6.68c-4.93-0.53-9.87-1.05-14.86-1.58
				c0.06-0.48,0.12-1.02,0.2-1.44c4.46,0.49,8.97,0.87,13.38,1.4c0.19-1.69,0.36-3.55,0.61-5.22
				C194.97,169.33,195.46,169.39,195.98,169.45"/>
			<path class="st18" d="M193.78,19.36c0.78,0.83,0.59,2.63,0.59,4.44c0,1.91,0.26,4.18-0.91,4.86c-0.8,0.46-2.32,0.37-2.97-0.29
				c-0.68-0.73-0.56-3-0.56-4.57c0-2.56-0.27-4.94,2.16-4.99C192.67,18.81,193.4,18.93,193.78,19.36 M193.35,26.01
				c0.05-1.38,0.01-2.79,0-4.24c-0.04-1.23-0.26-2.04-1.38-1.8c-0.85,0.09-0.97,0.98-0.97,1.85v2.06c0,1.23-0.16,3.29,0.45,3.76
				c0.38,0.27,1.22,0.14,1.42-0.04C193.2,27.39,193.31,26.63,193.35,26.01"/>
			<path class="st18" d="M192.8,182.99c0.44,0.12,0.92,0.25,1.34,0.35c-0.61,2.54-1.31,5.01-1.96,7.49
				c-4.77-1.25-9.56-2.54-14.44-3.86c0.67-2.47,1.38-4.9,2.02-7.49c0.51,0.18,0.92,0.28,1.44,0.39c-0.59,2.02-1.09,4.07-1.64,6.05
				c1.68,0.47,3.37,0.93,5.01,1.32c0.61-1.95,1.06-4,1.67-6c0.49,0.13,0.92,0.25,1.41,0.37c-0.54,2.04-1.08,3.99-1.63,5.99
				c1.65,0.52,3.41,0.94,5.11,1.41C191.75,187.08,192.21,184.96,192.8,182.99"/>
			<path class="st18" d="M188.65,28.78h-1.11c-0.41-1.17,0.23-3.93-0.87-4.42c-0.32-0.09-0.84,0-1.4,0v4.42h-1.11
				c0.04-3.28-0.06-6.67,0.04-9.87c1.5,0.17,3.06-0.48,3.88,0.53c0.97,1.05,0.73,4.23-0.95,4.29
				C189.15,23.88,188.07,27.18,188.65,28.78 M187.35,22.72c0.33-0.61,0.33-1.98-0.09-2.42c-0.43-0.43-1.15-0.24-1.93-0.33
				c-0.06,0-0.06,0.05-0.06,0.1v3.11C186.11,23.14,186.96,23.4,187.35,22.72"/>
			<path class="st18" d="M186.39,204.26c-0.23,0.53-0.56,0.95-0.83,1.53c-5.18,0.28-10.27,0.52-15.44,0.77
				c3.75,2.04,7.68,4.2,11.54,6.25c-0.21,0.43-0.4,0.85-0.71,1.22c-4.34-2.35-8.65-4.84-13.04-7.18c0.34-0.53,0.58-1.02,0.84-1.52
				c5.17-0.34,10.27-0.56,15.41-0.78c-3.72-2.08-7.68-4.22-11.51-6.26c0.25-0.4,0.46-0.84,0.73-1.22
				C177.74,199.44,182.06,201.83,186.39,204.26"/>
			<path class="st18" d="M183.02,28.73c-0.3,0.11-0.82,0.04-1.16,0.04c-0.09-0.74-0.26-1.38-0.34-2.2c-0.66-0.06-1.41,0-2.14,0
				c-0.14,0.68-0.25,1.47-0.39,2.2h-1.05c0.64-3.28,1.17-6.61,1.83-9.87h1.44C181.78,22.21,182.36,25.5,183.02,28.73 M179.57,25.47
				h1.71c-0.27-1.8-0.53-3.58-0.91-5.32C180.19,21.97,179.78,23.67,179.57,25.47"/>
			<path class="st18" d="M177.74,146.05v17.11c0,2.79-0.19,5.53-0.35,8.15c-0.21,2.54-0.71,5.01-1.21,7.42
				c-0.42,2.34-0.99,4.68-1.66,6.86c-1.37,4.34-3.19,8.36-5.21,11.91c-6.28,10.87-15.12,19.08-25.62,25.73
				c-5.12,3.34-10.86,6.24-16.88,8.75c-5.54,2.31-11.29,4.34-17.7,5.79c-0.68,0.19-1.3,0.42-1.8,0.39
				c-0.49-0.06-1.18-0.24-1.78-0.39c-3.94-0.97-7.93-2.18-11.51-3.44c-12.61-4.54-23.78-10.57-32.96-18.48
				c-9.2-7.94-16.72-17.4-20.84-30.45c-2.01-6.41-3.17-13.97-3.17-22.45c0-42.78,0.06-85.44,0.03-128.27c0-0.06-0.03-0.12,0.03-0.12
				h70.1c23.35,0,46.63-0.14,69.98,0c0.22,0,0.34-0.03,0.41,0c0.14,0.12,0.1,0.06,0.14,0.23c0.08,0.52,0,1.4,0,2.19V146.05z
				 M175.98,167.67c0.13-2,0.11-4.02,0.11-6.14c0-41.42,0-82.89-0.06-124.41c-1.15,1-2.41,2.31-3.53,3.49
				c-5.17,5.19-10.32,10.36-15.52,15.57c-0.63,0.58-1.24,1.13-1.66,1.82c-1.68,2.61-3.39,5.29-5.02,7.9
				c-0.11,0.15-0.27,0.37-0.24,0.53c7.67,1.85,15.29,3.64,22.92,5.57c-7.32,1.66-14.62,3.28-21.98,4.96
				c1.96,3.45,4.18,6.83,6.19,10.32c-3.52-2.07-7.04-4.33-10.52-6.31c-1.9,7.73-3.79,15.42-5.76,23.13
				c-1.89-7.79-3.81-15.49-5.62-23.22c-2.45,1.41-4.81,2.98-7.24,4.51c-1.08,0.7-2,1.93-2.97,2.91
				c-28.38,28.4-56.52,56.88-84.93,85.25c-0.28,0.37-0.6,0.57-0.65,0.83c-0.04,0.38,0.14,0.84,0.22,1.3c0.19,1.42,0.43,2.85,0.71,4
				c1.92,8.56,5.2,15.53,9.45,21.67c1.67,2.46,3.63,4.66,5.57,6.82c4.01,4.39,8.48,8.23,13.3,11.59c4.91,3.42,10.26,6.29,15.97,8.96
				c6.57,2.99,13.3,5.49,20.69,7.28c0.75,0.23,1.76,0.56,2.49,0.43c11.67-2.64,22.09-7.19,31.22-12.33
				c5.29-2.94,10.15-6.48,14.61-10.32c4.41-3.87,8.4-8.18,11.75-13.13c3.29-4.93,6.14-10.53,7.88-16.98
				c0.89-3.24,1.63-6.68,2.17-10.25C175.77,171.58,175.79,169.63,175.98,167.67 M174.29,36.43c0.06-0.07,0.23-0.13,0.06-0.18
				c-0.32-0.16-1.46,0-2.11,0H38.78c0,0,0,0.05,0,0.1c-0.06,39.64-0.06,79.37-0.06,119.11c0,5.64-0.17,11.34,0.46,16.59
				c0.16,0.03,0.27-0.2,0.36-0.27c28.61-28.59,57.1-57.44,85.7-86.08c0.5-0.45,1.1-1.02,1.43-1.49c0.81-1.2,1.51-2.42,2.28-3.57
				c0.6-1.1,1.27-2.24,1.9-3.2c0.1-0.12,0.23-0.22,0.15-0.42c-7.47-1.74-15.13-3.29-22.62-5.04c7.81-1.81,15.59-3.74,23.42-5.54
				c-2.22-3.71-4.49-7.45-6.56-11.15c3.21,1.92,6.56,3.84,9.78,5.78c0.19,0.08,0.34,0.28,0.58,0.28c1.85-6.93,3.52-13.96,5.38-20.93
				c1.73,7.1,3.61,14.1,5.42,21.08c2.15-1.17,4.21-2.52,6.25-3.73c0.34-0.21,0.71-0.37,1.06-0.66c0.26-0.21,0.49-0.54,0.83-0.86
				c4.41-4.41,8.87-8.87,13.3-13.39C169.98,40.75,172.29,38.7,174.29,36.43 M141.99,71.46c7.81-0.06,15.69,0.05,23.41-0.06
				c-6.34-1.42-12.61-3.01-18.99-4.43c-1.28,1.23-2.94,2.84-4.29,4.23C142.08,71.27,141.99,71.32,141.99,71.46 M153.97,83.13
				c0.07,0.01,0.12,0.01,0.07,0c-1.25-2.01-2.45-4.09-3.74-6.02c-0.64,0.18-1.22,0.32-1.85,0.41
				C150.15,79.38,152.2,81.23,153.97,83.13 M147.13,64.48c1.94-1.84,4.02-3.91,5.88-5.86c-2.1,1.32-4.32,2.54-6.35,3.99
				C146.79,63.23,146.9,63.83,147.13,64.48 M146.19,79.1c0.05-0.37,0.24-0.92,0.21-1.13c-0.01-0.32-0.76-0.91-1.06-1.17
				c-1.17-1.24-2.28-2.26-3.41-3.34c0-0.04-0.02-0.04-0.02,0.02c0.02,7.75-0.07,15.63,0.02,23.37
				C143.26,91.12,144.77,84.94,146.19,79.1 M140.98,69.88c0.09-0.19,0-0.95,0-1.38c0-7.34,0.02-14.78-0.07-21.9
				c-0.75,3.07-1.39,6.17-2.25,9.52c-0.61,2.68-1.29,5.43-1.9,8.18c-0.09,0.34-0.36,0.99-0.36,1.15c0.05,0.36,0.87,0.92,1.13,1.19
				c1.13,1.07,2.08,2.06,3.21,3.15C140.83,69.84,140.91,70.08,140.98,69.88 M138.72,72.13c0.13-0.1,0.31-0.15,0.16-0.26
				c-0.22-0.09-0.94,0-1.43,0c-7.36,0-14.74,0-21.88,0.06c5.76,1.36,11.87,2.78,17.71,4.19c0.36,0.1,0.99,0.28,1.21,0.25
				c0.36-0.03,0.86-0.82,1.12-1.03C136.7,74.23,137.67,73.28,138.72,72.13 M134.49,65.77c0-0.25,0.29-0.59,0.25-0.92
				c-0.07-0.21-0.64-0.58-0.82-0.78c-1.86-1.92-3.94-4-5.67-5.75c1.65,2.62,3.14,5.29,4.79,7.81
				C133.52,66.03,134.03,65.9,134.49,65.77 M135.02,79.71c-0.23-0.64-0.34-1.33-0.53-1.97c-0.39,0.13-0.6,0.49-0.79,0.73
				c-1.84,1.8-3.77,3.61-5.45,5.47C130.47,82.49,132.77,81.14,135.02,79.71"/>
			<path class="st18" d="M177.11,18.9v1.07h-1.84v8.8h-1.06v-8.75c-0.6-0.05-1.25-0.05-1.86-0.05c0.03-0.36-0.05-0.78,0.03-1.07
				H177.11z"/>
			<path class="st18" d="M175.57,218.83c0.19,0.24,0.28,0.36,0.46,0.55c-1.81,1.85-3.57,3.7-5.35,5.58
				c-3.35-3.11-6.66-6.59-10.1-9.75c-0.14-0.13-0.61-0.59-0.61-0.64c0-0.07,0.42-0.38,0.66-0.67c1.47-1.6,3.19-3.31,4.67-4.87
				c0.15,0.13,0.31,0.32,0.56,0.5c0.12,0.12,0.46,0.39,0.46,0.47c0,0.14-0.41,0.54-0.46,0.6c-1.28,1.26-2.67,2.74-3.83,3.97
				c1.01,1.08,2.14,2.03,3.27,3.15c0.15,0.11,0.41,0.45,0.44,0.45c0.17,0.04,0.95-0.95,1.1-1.09c0.98-1,1.74-1.81,2.75-2.82
				c0.06-0.15,0.47-0.57,0.53-0.57c0.07,0,0.45,0.36,0.55,0.52c0.2,0.15,0.32,0.38,0.5,0.43c-1.17,1.39-2.46,2.58-3.75,4
				c-0.16,0.14-0.57,0.49-0.57,0.52c0,0.16,0.33,0.39,0.5,0.49c0.98,0.98,1.87,1.78,2.82,2.75c0.12,0.09,0.38,0.5,0.5,0.5
				c0.17,0.01,0.95-0.97,1.05-1.14c0.96-0.96,1.77-1.83,2.7-2.81c0.18-0.13,0.52-0.58,0.57-0.58
				C175.1,218.36,175.47,218.76,175.57,218.83"/>
			<path class="st18" d="M171.46,27.68v1.1h-3.65c0.02-3.28-0.07-6.67,0.02-9.87h3.5v1.07h-2.42v3.13c0.67,0.12,1.57,0.03,2.31,0.08
				v1.08h-2.31v3.38C169.64,27.71,170.59,27.68,171.46,27.68"/>
			<path class="st18" d="M166.6,28.78h-1.15c-0.43-1.17,0.26-3.93-0.88-4.42c-0.31-0.09-0.83,0-1.36,0c-0.11,1.39,0,2.95-0.03,4.42
				h-1.09c0.04-3.28-0.04-6.67,0.04-9.87c1.43,0.2,2.86-0.45,3.84,0.46c1.01,0.94,0.71,4.34-0.98,4.37
				C167.06,23.88,166.06,27.18,166.6,28.78 M165.21,22.81c0.4-0.58,0.4-2.08-0.04-2.51c-0.47-0.43-1.14-0.24-1.93-0.33
				c-0.02,0-0.05,0.05-0.05,0.1v3.11C164.03,23.11,164.74,23.42,165.21,22.81"/>
			<path class="st18" d="M162.36,148.09c0,1.96-0.94,3.15-2.19,4.03c-0.51,3.47-1.58,6.22-3.45,8.35c1.44,3.33,2.46,6.94,2.66,11.43
				c0.23,4.49-0.52,8.32-1.66,11.59c-0.1,0.2-0.27,0.45-0.27,0.56c0,0.2,0.27,0.57,0.39,0.8c0.79,1.59,1.66,3.38,2.41,5.07
				c0.83,2.01,1.52,4.18,1.66,6.9c0.07,4.29-1.47,7.34-4.34,8.62c-0.73,0.35-1.5,0.49-2.67,0.56c-0.21,0-0.64,0.02-0.88,0.14
				c-0.19,0.09-0.25,0.43-0.45,0.64c-0.81,1.17-2.71,2.41-4.96,1.82c-2.06-0.47-3.38-2.12-3.57-4.59c-1.14-0.76-2.2-1.53-3.16-2.44
				c-3.8,1.92-8.14,3.23-13.43,3.39c-5.28,0.22-9.6-0.95-13.23-2.48c-0.18-0.08-0.63-0.3-0.71-0.3c-0.2,0-0.71,0.6-1.01,0.79
				c-2.21,1.87-5.12,3.31-8.81,3.64c-1.22,0.21-2.33-0.04-3.39-0.08c-3.26-0.21-5.08-2.12-6.12-4.64c-2.11-0.45-3.91-2.05-3.9-4.68
				c0.05-2.59,1.73-4.07,4.01-4.6c0.58-2.25,1.49-4.39,2.49-6.37c0.13-0.3,0.45-0.68,0.45-0.83c0-0.3-0.42-1.12-0.56-1.46
				c-0.49-1.42-0.95-2.99-1.3-4.5c-0.47-2.22-0.57-4.66-0.57-7.11c0-5.01,1.41-8.94,2.95-12.58c-0.05-0.22-0.24-0.41-0.4-0.59
				c-1.82-2.16-3.18-4.82-3.4-8.64c-0.13-1.31-0.17-2.8,0.12-4.07c0.33-1.44,1.18-2.64,2.12-3.49c1.03-0.91,2.28-1.52,3.78-1.81
				c0.51-2.13,1.96-3.77,4.23-3.98c1.53-0.13,2.81,0.49,3.65,1.29c0.85,0.8,1.45,1.92,1.48,3.41c1.92,0.53,3.75,1.1,5.44,1.81
				c1.79-0.71,3.64-1.28,5.75-1.72c4.12-0.8,9.43-0.62,13.31,0.29c1.44,0.34,2.85,0.74,4.24,1.29c0.39,0.15,1.06,0.58,1.3,0.58
				c0.19,0,0.81-0.37,1.19-0.58c2.62-1.34,5.41-2.49,8.83-3.06c4.49-0.74,8.45,0.4,9.64,3.65
				C161.26,144.91,162.32,146.1,162.36,148.09 M154.44,204.33c4.32,0,6.01-3.49,5.69-7.91c-0.29-4.24-2.1-7.21-3.54-10.18
				c-2.89,6.22-7.34,11.09-13.1,14.45c0.57,0.62,1.28,1.07,2,1.53c0.75-1.62,2.22-3.02,4.66-2.84
				C152.72,199.52,154.44,201.56,154.44,204.33 M158.36,152.83c-2.94,0.22-5.12-1.64-5.35-4.2c-0.24-2.95,1.78-4.95,4.61-5.18
				c-1.14-1.18-3.02-1.63-5.32-1.52c-3.95,0.21-7.06,1.84-9.99,3.12c5.98,3.15,10.47,7.77,13.61,13.65
				C157.14,157.16,157.94,155.12,158.36,152.83 M156.35,182.09c1.14-3.43,1.6-7.94,1.18-12.13c-0.48-4.1-1.66-7.58-3.17-10.52
				c-3.11-6.04-7.86-10.52-13.92-13.46c-3.5,1.89-6.69,4.01-9.81,6.3C140.83,160.6,149.47,170.51,156.35,182.09 M155.21,185.25
				c0.11-0.36,0.36-0.87,0.34-1.01c0-0.2-0.38-0.76-0.64-1.16c-0.55-1.15-1.35-2.29-1.98-3.32c-6.54-10.21-14.46-19.09-23.74-26.41
				c-2.21,1.77-4.58,3.62-6.66,5.48c-0.12,0.1-0.33,0.28-0.3,0.35c0.6,0.1,1.66-0.24,1.61,0.51c0.35-0.03,0.47,0.24,0.43,0.65
				c0.09,0.03,0.19-0.01,0.19,0.03v1.41c0.15,0.04,0.26-0.05,0.26,0.04c-0.03,0.43,0.17,0.61,0.47,0.71v1.13
				c0.09,0.04,0.27-0.02,0.29,0.04v0.87h-0.29v0.72c0.04,0.24,0.51,0.17,0.46,0.46c0.77-0.03,0.4,1.06,0.51,1.63
				c0.92,0,1.95-0.2,2.79,0v0.29c1.52,0.48,3.41-0.03,5.1,0c-0.03,0.23,0.13,0.26,0.16,0.45h0.32c0,0.1-0.04,0.17,0.03,0.22
				c0.4-0.05,0.4,0.41,0.88,0.22c0,0.21,0.03,0.32,0.11,0.41c0.28,0.32,0.82,0.38,1.04,0.78h0.28c-0.02,0.26,0.08,0.33,0.22,0.47
				c1.06,0.03,2.18-0.21,3.19-0.01c0.07,0.05,0.06,0.18,0.12,0.26c0.12,0,0.35-0.09,0.44,0.04c0.08,0.18,0.08,0.37,0.15,0.57
				c0.02,0.09,0.2,0.01,0.32,0.09v0.24c0.43-0.09,0.5,0.25,0.43,0.68c0.11,0,0.25-0.01,0.25,0.05v0.68c0.1,0.09,0.25,0.23,0.47,0.26
				c-0.06,0.2,0.16,0.16,0.22,0.2v0.23c0.34-0.08,0.17,0.33,0.47,0.26c0.11,0.59,0.7,0.66,0.91,1.12c0.29,0.03,0.53,0.03,0.71,0.18
				c0,0.8,0.57,0.99,0.94,1.49c0.79,0.1,1.48,0.29,2.4,0.29v0.62c0.04,0.04,0.18-0.02,0.19,0.04v1.61c-0.8,0.22-1,1.06-1.9,1.16
				c-0.37,0.43-0.75,0.78-1.16,1.15c0.08,0.56-0.48,0.49-0.48,0.95c-0.18,0-0.23,0.12-0.38,0.12c-0.18,0.59-0.59,0.97-1.1,1.17
				c0-0.06,0.17-0.2,0.05-0.35c-0.07,0.11-0.12,0.33-0.18,0.37c-0.12,0.05-0.23,0.1-0.44,0.1c-0.19,0.49-1.13,0.24-1.21,0.91
				c-0.3,0.06-0.52,0.1-0.67,0.24v0.52h-0.24v1.1c-0.14,0-0.19,0-0.24,0.1c0.05,0.23-0.07,0.39-0.2,0.43v0.68
				c-0.33-0.12-0.13,0.31-0.5,0.19c0,0.32,0,0.47-0.1,0.61c-0.26,0.51-0.95,0.33-0.87,1.09c-0.24,0-0.49,0.06-0.63,0.2
				c0,0.23-0.06,0.42-0.14,0.64c-0.32,0.14-0.68,0.12-0.82,0.31c0.21,0.85-0.64,0.63-0.93,0.93c0,0.34-0.06,0.59-0.26,0.7
				c-0.86-0.21-0.55,0.66-0.89,0.92c-0.23,0-0.4,0.09-0.6,0.09c-0.2,0.26-0.13,0.76-0.39,0.87c-0.32-0.04-0.54,0.07-0.65,0.27v0.42
				c-0.14,0-0.22-0.03-0.26,0.01c-0.2,1.03-0.07,2.23,0.03,3.31c-0.17,0.04-0.38,0.25-0.53,0.25c0-0.08,0.09-0.18,0-0.21
				c-0.13,0.07-0.18,0.38-0.23,0.59c-0.04,0.03-0.07,0.05-0.26,0.05c0.08,0.33-0.25,0.4-0.41,0.56v3.38
				c6.17-0.93,10.87-3.17,14.85-6.42C150.14,193.73,153.25,189.82,155.21,185.25 M136.05,146.58c0.79-0.48,1.56-0.93,2.42-1.45
				c-3.21-1.21-7.25-2.2-11.66-1.98c-3.18,0.09-6.15,0.52-8.64,1.46c4.09,1.83,7.65,4.06,11.01,6.59
				C131.44,149.62,133.71,148.04,136.05,146.58 M129.88,203.19c-0.07-0.72-0.13-1.48-0.3-2.13c-0.2-0.18-0.63-0.18-1.11-0.18v-0.46
				c0.12-0.04,0.27,0.05,0.23-0.1v-0.56c-0.41-0.13-0.74-0.4-0.68-0.98c-0.09,0-0.29,0.03-0.29-0.07c-0.19-0.76,0.07-1.63,0.07-2.44
				c-0.32-0.12-0.52-0.32-0.47-0.74c-0.05-0.03-0.25,0.01-0.26-0.09v-0.84h0.26v-0.97c0.25,0.08,0.18-0.27,0.47-0.27
				c-0.22-0.89,0.38-0.96,0.91-1.13v-0.67c0.09-0.04,0.25,0.06,0.25-0.12c0.24-1.2-0.08-2.44,0-3.7c0.09-1.88,0.44-4.07,0-5.77
				c0-0.09-0.25,0.03-0.25-0.05c0.04-0.98-0.78-1.04-1.23-1.47c-0.15-0.23-0.4-0.39-0.58-0.67c0-0.06,0.29-0.2,0.08-0.24
				c-0.78,0.13-0.95-0.34-1.24-0.72c0.09,0,0.29,0.11,0.37,0.01c-0.56,0-0.91-0.26-0.94-0.83c-0.1-0.09-0.32-0.07-0.44-0.13v-0.42
				c-0.06,0-0.23,0.04-0.26-0.05v-3.22h0.26v-1.89c0.34,0,0.24-0.27,0.51-0.25c0.18-0.22,0.18-0.41,0.25-0.64
				c0.08,0.03,0.11-0.02,0.21-0.02c-0.14-1.03,0.5-2.72-0.98-2.36c0-0.26-0.17-0.3-0.29-0.49h-0.39v-0.22
				c-0.15,0-0.35,0.05-0.47-0.05v-0.42c-0.03,0-0.2,0.04-0.24-0.04v-1.12c-0.74,0-1.57,0.22-2.3,0.07c-0.07-0.07,0.05-0.35-0.07-0.3
				h-0.63c-0.33-0.51-1.26-0.41-2.02-0.51c0.57-0.04,1.05-0.14,1.57-0.16c0.03,0,0.03-0.04-0.03-0.04
				c-1.27,0.07-2.95,0.39-4.16,0.04c-0.11-0.04,0-0.27-0.11-0.26c-5.92,5.93-11.27,12.37-15.44,19.97c2.22,4.78,5.48,8.86,9.8,12
				C114.83,201.06,121.22,203.76,129.88,203.19 M127.44,180.43c0.1,0,0.2,0.12,0.29,0.04C127.58,180.47,127.51,180.29,127.44,180.43
				 M124.14,155.21c1.18-1,2.5-1.97,3.66-2.93c-3.13-2.29-6.47-4.47-10.32-6.06c-0.31-0.16-1.33-0.72-1.69-0.72
				c-0.17,0-0.6,0.27-0.96,0.43c-7.01,3.45-12.34,8.95-15.27,16.35c-1.07,2.64-1.84,5.7-2.03,9.01c-0.2,4.54,0.46,8.81,1.8,12.12
				c4.01-7.01,9.05-12.92,14.41-18.55h-0.43c-0.04-0.1,0.06-0.27-0.08-0.27c-0.88,0.2-0.72-0.34-1.07-0.72h-0.72
				c-0.22-0.15-0.28-0.65-0.67-0.69v-0.44c-0.08,0-0.25,0.03-0.25-0.03c-0.01-0.25-0.16-0.42-0.23-0.52
				c-0.27,0.03-0.48,0.23-0.77,0.23c-0.24,0-0.44-0.21-0.66-0.04c-0.02,0.22,0.32,0.04,0.27,0.32c0,0.06,0.14,0,0.14,0.06v1.1
				c0.12,0.09,0.31,0,0.31,0.09c0,0.31,0.02,0.66,0,0.9c-0.37-0.24-1.05-0.1-1.16-0.52c-0.09-0.46,0.19-1.11-0.22-1.36h-0.49v-0.23
				c-0.43,0.03-0.78-0.03-0.69-0.47h-0.29c0-0.08,0.07-0.19,0-0.27c-0.28-0.11-0.78-0.11-1.22-0.11c-0.09,0.03,0.08,0.19-0.04,0.19
				c0-0.08-0.19-0.12-0.08-0.19h0.08c-0.08-0.24,0.12-0.4,0.33-0.6c-0.21-0.14-0.26-0.46-0.21-0.91c0-0.07-0.2,0.04-0.2-0.05
				c0-0.32,0.07-0.64,0.03-0.91c-0.79,0.02-1.54,0.28-2.24,0.02c0.32-0.37,0.75-0.78,1.15-1.06h1.13c0.04-0.74,0.12-1.45,0.12-2.17
				c0.1-0.08,0.24,0,0.29-0.08c0.07-0.66-0.23-1.27-0.06-1.85c0.09,0,0.21,0.05,0.25-0.05c0.04-0.51,0.66-0.45,0.73-0.89h0.65
				c0.09,0-0.03-0.26,0.09-0.26h0.83c0.09,0,0-0.14,0.09-0.19h1.57c0,0.1,0,0.19,0,0.19h0.73c0,0.1-0.08,0.28,0.06,0.26h1.08
				c0,0.07-0.01,0.19,0.05,0.23h1.3c0.31,0.7,1.41,0.49,2.16,0.66c0.04,0.09,0.04,0.16,0.04,0.29c0.67-0.14,0.56,0.47,0.86,0.68
				c0.31,0,0.57,0.07,0.73,0.26c-0.15,0.66,0.79,0.35,0.94,0.74v0.68h0.68c0.09-0.31,0.09-0.6,0.51-0.51
				c0.03-0.09-0.02-0.18,0.03-0.18c0.21,0,0.38-0.08,0.44-0.27c0.49,0,0.83-0.13,0.94-0.48
				C121.76,155.38,122.92,155.27,124.14,155.21 M122.21,156.83h-1.38c-0.05,0.07,0,0.26-0.05,0.26h-0.68
				c-0.26,0.39-0.69,0.55-1.18,0.67c0.03,0.36-0.29,0.27-0.26,0.49c-0.29,0-0.51,0.08-0.68,0.2c-0.05,0.38,0,0.82-0.5,0.72
				c-0.3,0.23-0.19,0.72-0.24,1.16c0.24-0.01,0.3,0.13,0.3,0.26c0.25-0.05,0.22,0.13,0.32,0.22
				C119.27,159.43,120.78,158.2,122.21,156.83 M121.4,159.83c0.19,0,0.34-0.14,0.27-0.19C121.59,159.69,121.48,159.75,121.4,159.83
				 M120.33,160.84c0.31,0,0.55-0.17,0.46-0.43C120.67,160.64,120.45,160.67,120.33,160.84 M120.1,161.74
				c-0.01-0.19,0.03-0.51-0.01-0.64c-0.36,0.37-0.83,0.62-1.1,1.14c0-0.07-0.04-0.11-0.07-0.07c0.07,0.1,0.13,0.21,0.23,0.33
				c0.26,0,0.5-0.06,0.69-0.23v-0.48C119.91,161.79,120.05,161.79,120.1,161.74 M108.62,203.92c1.64-0.67,3.12-1.57,4.15-2.59
				c-6.02-3.19-10.49-7.92-13.64-13.96c-0.83,1.66-1.54,3.38-2.11,5.3c2,0.53,3.53,2.01,3.72,4.33c0.1,2.52-1.51,4.2-3.69,4.79
				c0.67,1.41,1.6,2.42,3.08,2.81c0.54,0.14,1.04,0.14,1.72,0.2c0.35,0.04,0.7,0.16,1.05,0.16
				C105.12,205.12,106.95,204.55,108.62,203.92 M113.58,144.61c-1.15-0.35-2.31-0.79-3.53-1.09c-0.69,1.69-2.17,3.06-4.44,3.06
				c-2.35-0.04-4.02-1.61-4.5-3.68c-0.06,0-0.06-0.04-0.06-0.04c-2.06,0.55-3.87,1.95-4.29,3.94c-0.19,0.85-0.19,1.73-0.19,2.58
				c0,3.57,1.29,6.76,3.08,8.59C102.91,152.12,107.57,147.72,113.58,144.61 M109.22,159.5c0-0.6,0.04-1.24-0.08-1.74
				c-0.11,0-0.27,0.1-0.27,0v-1.43c-0.1-0.2-0.52-0.2-0.9-0.12v0.62h-0.24v1.2c0.09,0.03,0.22-0.07,0.24,0.03v0.93
				C108.39,159.11,108.77,159.38,109.22,159.5 M108.91,161.68c0.04-0.1,0.04-0.15,0.04-0.26c-0.1,0.05-0.26,0.05-0.32,0.13
				C108.77,161.53,108.87,161.55,108.91,161.68 M108.62,160.9c0.15,0,0.15,0.05,0.29,0.05c-0.04-0.11-0.19-0.11-0.29-0.17V160.9z"/>
			<path class="st18" d="M160.83,27.68v1.1h-3.62c0.04-3.28-0.02-6.67,0.04-9.87h3.52v1.07h-2.46v3.13c0.7,0.12,1.55,0.03,2.33,0.08
				v1.08h-2.33v3.38C159.05,27.71,160,27.68,160.83,27.68"/>
			<path class="st18" d="M157.35,236.22c-0.47,0.27-0.83,0.59-1.26,0.84c-1.01-1.51-2.13-2.94-3.16-4.46
				c-3.14-1.55-6.19-3.25-9.39-4.77c0.4-0.42,0.88-0.68,1.35-1.03c2.55,1.35,5.06,2.69,7.65,4.02c-0.4-2.21-0.88-4.93-1.29-7.37
				c-0.03-0.32-0.22-0.89-0.15-1.07c0.05-0.24,1.1-0.76,1.27-0.98c0.02-0.01,0.02,0,0.02,0c0.54,2.82,0.97,6.06,1.45,9.05
				c0.08,0.42,0.08,0.93,0.19,1.27c0.16,0.39,0.57,0.73,0.87,1.14C155.71,233.99,156.48,235.14,157.35,236.22"/>
			<path class="st18" d="M155.74,23.7c0,2.19,0.26,4.38-1.14,5.02c-1.13,0.48-2.52,0.07-2.98-0.74c-0.18-0.34-0.3-0.81-0.33-1.17
				c-0.19-2.41,0.15-5.41,0-7.85c0-0.03,0-0.06,0.03-0.06h1.05v4.77c0,1.43-0.3,3.72,0.69,4.04c0.21,0.12,0.61,0.16,0.91,0
				c0.94-0.32,0.68-2.62,0.68-4.1V18.9h1.09V23.7z"/>
			<path class="st18" d="M150.31,27.64v1.14c-1.55-0.13-3.45,0.63-4.33-0.26c-0.79-0.73-0.68-2.84-0.68-4.42
				c0-2.52-0.25-5.19,2.14-5.29c2.68-0.13,2.35,2.4,2.35,5.08c0,1.61,0.03,3.05-0.55,3.79C149.56,27.64,149.99,27.64,150.31,27.64
				 M148.7,24.77c0-1.23,0.11-2.07,0-3.49c-0.07-0.92-0.5-1.5-1.4-1.31c-0.8,0.11-0.91,1.04-0.91,2.02v2.03
				c0,1.29-0.2,3.19,0.47,3.62c0.38,0.29,1.04,0.23,1.3,0.04C148.76,27.39,148.7,26.05,148.7,24.77"/>
			<path class="st18" d="M141.5,27.68v1.1h-3.58c0-3.28-0.07-6.67,0.02-9.87h3.52v1.07h-2.49v3.13c0.71,0.12,1.58,0.03,2.33,0.08
				v1.08h-2.33v3.38C139.75,27.71,140.66,27.68,141.5,27.68"/>
			<path class="st18" d="M137.09,237.05c1.18,1.36,2.13,3.48,1.87,5.88c-0.47,4.74-4.64,5.66-7.97,7.7
				c-2.3-4.36-4.73-8.68-7.16-13.01c1.12-0.7,2.26-1.25,3.43-1.92c1.32-0.76,2.71-1.59,4.79-1.4
				C134.33,234.48,136,235.7,137.09,237.05 M137.53,242.83c0.16-2-0.84-3.82-1.69-4.91c-0.94-1.12-2.36-2.25-4.37-2.25
				c-1.1,0-2.23,0.55-3.11,1.08c-0.88,0.44-1.72,0.96-2.57,1.45c1.49,2.64,3.01,5.27,4.44,7.87c0.47,0.91,0.94,1.81,1.49,2.59
				C134.1,247.17,137.3,246.33,137.53,242.83"/>
			<path class="st18" d="M135.82,19.48c0.87,0.88,0.69,3.05,0.69,4.69c0,1.8,0.07,3.8-0.97,4.47c-0.92,0.44-2.35,0.01-3.53,0.13
				v-9.82c0-0.03,0-0.06,0.02-0.06C133.52,18.93,135.02,18.71,135.82,19.48 M135.44,23.67c0-1.37,0.12-2.95-0.48-3.45
				c-0.4-0.25-1.2-0.25-1.84-0.25c-0.09,0-0.09,0.05-0.09,0.1v7.56c0.62,0,1.31,0.14,1.78-0.07
				C135.61,27.15,135.44,25.12,135.44,23.67"/>
			<path class="st18" d="M132.62,198.8c0.06,0.11-0.09,0.11-0.13,0.11C132.53,198.81,132.61,198.8,132.62,198.8"/>
			<path class="st18" d="M128.25,28.78h-1.19c-0.1-0.74-0.25-1.47-0.37-2.2h-2.03c-0.26,0.68-0.3,1.47-0.51,2.2h-1
				c0.62-3.28,1.15-6.67,1.85-9.87h1.41C127.01,22.21,127.58,25.5,128.25,28.78 M124.77,25.47h1.77c-0.26-1.8-0.55-3.58-0.94-5.32
				C125.42,21.97,125.07,23.67,124.77,25.47"/>
			<path class="st18" d="M127.51,180.54c0.04,0.05,0.08,0.11,0.04,0.18C127.54,180.6,127.51,180.59,127.51,180.54"/>
			<path class="st18" d="M127.48,180.47c0,0.04,0.03,0.04,0.03,0.07C127.48,180.51,127.48,180.51,127.48,180.47"/>
			<path class="st18" d="M125.71,252.86c-0.51,0.11-0.98,0.15-1.5,0.19c-0.87-1.36-1.57-2.9-2.46-4.38
				c-2.2,0.33-4.37,0.67-6.51,0.99c-0.47,1.55-0.73,3.24-1.14,4.85c-0.52,0.05-1.05,0.13-1.5,0.19c1.15-5.16,2.38-10.33,3.61-15.55
				c0.57-0.07,1.16-0.13,1.66-0.23C120.58,243.49,123.12,248.21,125.71,252.86 M115.53,248.21c1.83-0.2,3.74-0.45,5.5-0.71
				c-1.26-2.4-2.48-4.76-3.85-7.04C116.62,243.06,116.06,245.66,115.53,248.21"/>
			<path class="st18" d="M121.92,18.9v9.87h-0.96v-8.5c-0.59,2.82-1.08,5.72-1.63,8.5h-1.1c-0.49-2.85-1.06-5.59-1.58-8.48
				c-0.06,2.73-0.03,5.7-0.03,8.48h-1.01c0-3.28-0.05-6.67,0-9.87h1.76c0.49,2.61,0.94,5.27,1.43,7.94
				c0.47-2.66,0.93-5.32,1.42-7.94H121.92z"/>
			<path class="st18" d="M113.58,19.44c0.78,0.86,0.6,2.92,0.6,4.58c0,1.87,0.15,3.91-0.91,4.63c-0.67,0.44-2.12,0.44-2.89-0.14
				c-0.77-0.73-0.72-2.96-0.72-4.65c0-2.58-0.25-4.99,2.2-5.05C112.37,18.81,113.18,18.93,113.58,19.44 M113.07,26.38
				c0.11-0.88,0-2.24,0-3.34c0-0.8,0.11-2.5-0.37-2.96c-0.24-0.21-0.8-0.21-1.01-0.1c-0.66,0.09-0.9,0.71-0.91,1.35
				c-0.08,0.7,0,2.16,0,3.39c0,0.95-0.05,2.57,0.44,2.93c0.25,0.14,0.82,0.27,1.15,0.07C112.72,27.6,113.02,27.04,113.07,26.38"/>
			<path class="st18" d="M107.31,242.36c1.83,1.42,3.06,4.14,2.41,7.37c-0.52,2.79-2.15,4.74-4.5,5.64
				c-2.73,1.01-5.78-0.27-8.65-0.67c0.93-4.87,1.89-9.64,2.87-14.53c0-0.05,0-0.08,0.05-0.08
				C102.23,240.8,105.3,240.86,107.31,242.36 M107.97,250.38c0.72-2.46,0.38-5.15-1.24-6.64c-1.39-1.33-3.87-1.5-6.14-2.01
				c-0.81,3.92-1.6,7.93-2.3,11.92c1.78,0.24,3.23,0.81,5.01,0.67C105.82,254.17,107.31,252.43,107.97,250.38"/>
			<path class="st18" d="M108.22,18.9v9.87h-1.69c-0.68-2.78-1.41-5.55-1.97-8.39c-0.07,2.72,0,5.62-0.03,8.39h-1.05v-9.82
				c0-0.03,0-0.06,0.05-0.06h1.67c0.65,2.81,1.34,5.64,2.03,8.54c0.07-2.78,0-5.75,0.01-8.54H108.22z"/>
			<path class="st18" d="M103.56,74.79c0.1,1.71,0.24,3.58,0.34,5.38c-0.7,0.12-1.56,0-2.31-0.02c-0.54,1.24-1.03,2.63-1.58,3.86
				c-0.36,0-0.74,0.03-1.02-0.03c-0.42-2.23-0.9-4.54-1.32-6.76c-4.75-0.61-9.62-1.16-14.36-1.74c-0.24,1.2-0.41,2.5-0.61,3.81
				c-0.17,1.32-0.32,2.67-0.57,3.83c-0.07,0.27-0.3,0.6-0.18,0.86c0.17,0.22,1.68,0.35,2.03,0.41c1.56,0.23,2.76,0.47,4.27,0.67
				c0.69,0.13,1.52,0.14,2.05,0.39c0.86,0.24,1.58,1.03,2.07,1.73c0.16,0.26,0.41,0.58,0.48,0.82c0.07,0.38,0,1.03,0,1.61
				c0,3.74-0.08,7.8-0.08,11.35c0,2.53,0.02,4.12,1.08,5.48c0.41,0.67,1,1.22,1.86,1.43c0.78,0.17,1.64,0.28,2.66,0.55
				c0.16,0.5,0.35,0.97,0.5,1.51c0.12,0.54,0.19,1.33-0.22,1.55c-0.53,0.29-1.72,0.04-2.44,0.04h-7.77c-0.45-0.73-0.26-1.68,0-2.4
				c0.08-0.22,0.27-0.44,0.29-0.69c0.21-0.7,0.13-1.64,0.09-2.47c0-0.4-0.08-0.75-0.1-1.13c-0.03-0.41-0.03-0.79-0.19-1.14
				c-0.08-0.33-0.41-0.72-0.62-1.1c-1.42-2.35-3.1-5.41-2.08-9.39c-3.25,0.79-6.44,1.6-9.7,2.32c-0.7,2.11-1.37,4.22-1.97,6.35
				c0.92-0.2,2.06,0.3,3.02,0.64c0.78,0.31,1.59,0.65,2.36,0.88c1.2,0.39,2.99,0.26,4.41,0.12c0.53-0.08,1.23-0.21,1.46-0.05
				c0.13,0.07,0.13,0.26,0.21,0.43c0.1,0.16,0.21,0.27,0.26,0.43c0.18,0.52,0.12,1.15,0.18,1.78c0.05,0.4,0.36,0.9,0.57,1.38
				c0.56,1.23,1.18,2.81,1.05,4.75c-0.05,1.29-0.69,2.34-1.47,3.14c-0.2,0.2-0.64,0.61-0.89,0.66c-0.9,0.22-1.68-0.24-2.54,0.12
				c-0.17,0.65-0.31,1.37-0.45,2.03h-2.16c-0.7,0-1.51-0.13-2.2,0c-0.36,0.09-1.12,0.94-1.37,1.18c-0.51,0.42-0.87,0.85-1.32,1.25
				c-0.91-0.77-1.74-1.61-2.6-2.46c-1.26,0.26-2.55,0.4-3.8,0.61c-0.06-1.36-0.08-2.72-0.06-4.17c-0.68-0.37-1.44-0.63-2.23-0.94
				c-0.12-0.23-0.24-0.44-0.39-0.61c0.33-0.71,0.71-1.35,1.06-2.07c-0.54-0.02-1.04-0.07-1.64-0.02c-1.64-2.32-3.17-4.73-4.8-7.13
				c0.24-0.37,0.63-0.68,1-1.07c0.31-0.4,0.7-0.75,1.06-1.09c-0.32-0.96-0.58-1.95-0.84-2.94c0.9-0.75,1.94-1.33,2.87-2.02
				c0.22-3.51,0.56-7.23,0.91-10.88c0.03-0.5,0.19-1.12,0.09-1.5c0-0.29-0.39-0.63-0.53-0.94c-0.52-0.94-0.93-1.89-1.03-3.26
				c-0.14-2.23,0.1-4.98,0.57-6.84c0.14-0.65,0.29-1.35,0.56-1.86c0.17-0.39,0.59-0.65,0.93-0.98c0.32-0.22,0.69-0.52,1.22-0.6
				c-0.16-0.77,0-1.52-0.52-1.92c-0.4-0.4-1.19-0.37-1.72-0.65c-0.4-0.23-0.77-0.79-0.77-1.27c0-0.51,0.68-1.24,0.89-1.6
				c0.41-0.54,0.7-0.93,1.03-1.47c-0.06-0.92,0.1-1.77,0-2.68v-0.14c-0.4-1.67-0.51-3.42,0.06-5.01c-2.44,0.7-4.28-0.63-5.33-1.94
				c-1.19,0.58-2.6,0.88-3.85,0.35c-0.75-0.26-1.36-0.87-1.91-1.52c-0.15-0.23-0.36-0.49-0.56-0.57c-0.16-0.21-0.51-0.31-0.74-0.44
				c-1.44-0.73-3.16-1.55-4.25-2.67c-0.17-0.22-0.36-0.49-0.57-0.59c-0.22-0.15-0.73-0.22-1.14-0.3c-0.91-0.31-1.42-0.47-2.48-0.52
				c-0.51-0.05-1.04-0.09-1.18-0.3c-0.21-0.33-0.04-0.73,0.03-1.08c3.52-0.94,8.16-0.41,11.26,0.59c0.57-1.71,1.3-3.12,3.01-3.51
				c1.89-0.51,3.85,0.44,5.14,1.22c1.98,1.18,3.78,2.86,5.22,4.67c0.46,0.64,1.02,1.28,1.08,2.17c1.04-0.56,2.13-1.2,3.21-1.76
				c0.36-0.15,0.9-0.29,1.15-0.5c0.26-0.26,0.63-1.22,0.91-1.55c0.85-1.61,1.88-2.88,3.06-4.06c1.57-1.57,3.59-2.93,6.47-3.21
				c6.17-0.57,7.35,6.79,5.75,12.33c5.04,0.94,8.57,3.62,10.34,7.88c0.87,2.16,1.33,5.13,0.67,7.73c-0.54,2.43-1.82,4.29-3.46,5.62
				C100.13,73.7,101.89,74.2,103.56,74.79 M103.44,78.73c0.05-0.16-0.13-0.51-0.2-0.76c-0.15-0.91-0.28-1.87-0.48-2.62
				c-6.2-1.82-12.42-3.57-18.64-5.33c-0.61,1.06-1.54,2.22-2.38,3.15c-0.46,0.57-0.77,1.15-1.65,1.15c-0.59,0.58-0.51,1.78-0.85,2.6
				h3.33c0.16-0.69,0.32-2.37,1.04-2.54c0.2-0.04,0.59,0.14,0.92,0.16c4.75,0.67,9.72,1.3,14.14,1.9c0.46,1.93,0.84,3.85,1.35,5.7
				c0.48-1.12,0.84-2.3,1.3-3.41c0.46-0.04,1.27,0.41,1.67,0.37C103.11,79.1,103.38,78.88,103.44,78.73 M101.42,66.7
				c0.6-3.09-0.29-6.05-1.56-8.08c-2.42-3.98-7.16-6.88-13.57-6.54c-0.82,0.03-1.52,0.14-2.35,0.23c-0.05,0.55-0.13,0.99-0.22,1.52
				c5.21,0.55,9.72,2.17,12.41,5.35c1.36,1.63,2.33,3.83,1.98,6.74c-0.3,2.71-1.49,4.44-2.57,6.31c0.68,0.11,1.31,0.34,1.95,0.56
				C99.34,71.27,100.84,69.35,101.42,66.7 M96.57,110.56c0.88,0,1.86,0.15,1.86-0.63c0-0.63-0.83-0.54-1.64-0.54h-4.43
				c-0.66,0-1.75-0.14-2.26,0c-0.27,0.12-0.45,0.32-0.39,0.67c0.11,0.66,1.14,0.51,1.99,0.51H96.57z M94.81,108.66
				c-0.77-1.21-1.73-1.93-2.17-3.52c-0.49-1.47-0.32-3.39-0.32-5.42c0-2.84-0.08-5.74-0.08-8.56c0-0.97,0.11-2.14-0.1-2.87
				c-0.24-0.93-1.09-1.43-1.86-1.96c-1.82-0.16-3.56-0.39-5.39-0.58c-0.59,0.64-1.17,1.4-1.77,2.1c-0.19,0.21-0.44,0.62-0.61,0.67
				c-0.29,0.08-0.7,0.08-1.06,0.08c-0.67,0.09-1.25,0.21-1.93,0.17c-0.52,0.76-0.89,1.72-1.49,2.48c-1.46-0.04-2.85-0.08-4.27-0.08
				c-0.46,0.85-0.86,1.74-1.24,2.56c-0.79-0.17-1.49-0.39-2.24-0.56c-0.19,0.47-0.42,0.95-0.59,1.42c-1.01,0.67-1.9,1.27-2.95,1.93
				c-0.29,0.17-0.84,0.44-0.9,0.65c-0.07,0.18-0.03,0.5-0.03,0.77c-0.2,1.79-0.3,3.65-0.38,5.36c-0.16,1.79-0.66,4.65,0.68,5.5
				c0.57,0.37,1.44,0.1,2.18,0.06c1.4-0.2,2.81-0.41,4.24-0.53c3.33-0.38,8.21-1.4,10.84,0.33c0.52,0.35,1.1,0.98,1.5,1.61
				c0.4,0.52,1,1.73,1.42,1.67c0.25,0,0.54-0.46,0.54-0.76c0.1-0.53-0.1-1.12-0.35-1.45c-1.26-1.74-5.01-1.85-4.8-4.96
				c-2.81-0.14-4.52-1.62-7.21-1.99c-0.31-0.06-0.78,0.04-1.01-0.28c-0.14-0.73,0.19-1.36,0.39-1.99c0.56-1.95,1.1-3.81,1.75-5.71
				c3.17-0.8,6.53-1.61,9.82-2.39c0.47-0.07,1.01-0.37,1.37-0.27c0.41,0.1,0.66,0.59,0.66,0.97c0,0.15-0.15,0.35-0.17,0.61
				c-0.08,0.17-0.13,0.43-0.22,0.58c-0.72,3.18,0.57,5.81,1.8,7.59c0.24,0.35,0.58,0.68,0.7,1.02c0.27,0.79,0.27,1.81,0.36,2.75
				c0.09,0.97,0.11,1.97,0,2.95C91.54,108.62,93.17,108.66,94.81,108.66 M91.18,70.92c0.79-1.46,1.55-3,1.55-5.15
				c0-2.89-1.44-5.02-3.18-6.43c-1.8-1.49-4.2-2.37-6.95-2.68c-0.39,0.46-0.66,1.29-1,1.79c2.28,0.74,4.31,1.93,5.58,3.79
				c1.19,1.83,1.67,4.85,1.1,7.81C89.21,70.32,90.2,70.63,91.18,70.92 M85.87,107.64c-0.05-0.47-0.47-0.59-0.68-1.16
				c-0.17-0.5,0-1.13-0.21-1.62c-0.21-0.51-1.53-0.76-2.04-0.24C82.85,106.5,84.44,107.06,85.87,107.64 M85.12,51.26
				c0.41-2.01,0.19-4.8-1.85-4.62c-1.38,0.07-2.14,1.2-2.62,2.18c1.3,0.43,2.56,0.94,2.81,2.49C84.02,51.28,84.63,51.36,85.12,51.26
				 M83.13,68.52c0.07-3.21-0.92-5.38-2.89-6.54c-0.24,0.32-0.59,0.7-0.76,1.11c0.75,1.27,1.19,2.79,1.33,4.62
				C81.56,67.99,82.32,68.24,83.13,68.52 M80.67,54.14c1.24,0.11,1.9-0.76,1.79-1.91c-0.2-1.33-1.4-2.15-2.46-2.59
				c0-0.07,0-0.07-0.02-0.07c-0.2,0.44-0.47,0.72-0.67,1.13c0.45,0.26,0.92,0.56,1.34,0.91c0.33,0.37,0.82,0.82,0.57,1.43
				c-1.11,0.09-1.68-0.73-2.47-1.15c-0.1,0.29-0.16,0.62-0.37,0.89C78.99,53.31,79.65,54.05,80.67,54.14 M81.89,78.7h-3.02
				c-0.44,0.72-0.71,1.57-1.06,2.45c1.06,0.07,2.09,0.02,3.14,0.09C81.47,80.64,81.74,79.73,81.89,78.7 M80.32,72.67
				c0.89-0.86,1.94-1.59,2.45-2.86c-0.75-0.68-1.9-1.11-3.27-1.24c-0.31,0.3-0.92,0.7-1.27,1.12c-0.14,0.37-0.25,0.77-0.43,1.17
				c-0.16,0.34-0.33,0.68-0.48,1.02c-1.01,1.74-2.01,3.28-2.96,5.08c-0.16,0.34-0.47,0.89-0.83,0.78c-0.45-0.15-0.04-1.4-0.04-1.67
				c0.04-2.02-1.38-3.39-2.98-3.68c-0.48-0.11-0.91-0.11-1.27-0.23c-0.71-0.27-1.09-0.88-1.94-1.16c-1.03,1.43-1.57,3.36-1.66,5.85
				c0.7,0.22,2.16-0.22,2.66,0.14c0.19,0.17,0.35,0.79,0.44,1.07c0.8,1.88,1.83,3.32,3.19,4.43c0.56,0.45,1.13,0.94,1.86,1.24
				c0.11,0.07,0.38,0.15,0.58,0.23c1.72,0.19,2.08-1.19,2.48-2.46c0.58-1.82,0.97-3.49,1.4-5.31
				C78.64,74.63,78.89,73.06,80.32,72.67 M80.49,84.57c0.18-0.1,0.48-0.3,0.48-0.78c-1.22,0.05-2.6-0.08-3.65,0.07
				c-0.16,0.13-0.33,0.31-0.45,0.48c-0.08,0.14-0.29,0.29-0.26,0.35C77.87,84.68,79.2,84.62,80.49,84.57 M76.31,57.66
				c1.34,0.73,4.06,0.77,3.74-1.31c-0.15-1.26-1.4-1.91-2.67-2.09c-0.14,0.27-0.2,0.68-0.38,1.02c0.48,0.11,0.81,0.28,1.24,0.51
				c0.24,0.22,0.96,0.59,0.78,0.92c-0.13,0.34-0.93,0.19-1.29,0.09c-0.49-0.16-0.76-0.36-1.14-0.46
				C76.49,56.8,76.38,57.18,76.31,57.66 M77.84,68.2c0.49-0.53,1.18-0.82,2.21-0.78c-0.07-1.81-0.67-3.12-1.4-4.28
				c-1.32,0-2.57-0.15-3.33-0.78c0-0.06-0.03-0.01-0.05,0C75.02,65.3,76.21,67.04,77.84,68.2 M79.25,60.95
				c0-1.43-1.2-2.12-2.92-2.03c-0.02,0-0.02,0.04-0.08,0.08c-0.13,0.35-0.26,0.64-0.34,1.04c0.7,0.03,1.47,0.13,1.93,0.46
				c0.43,0.31,0.81,0.89,0,0.99c-0.7,0.13-1.51-0.29-2.11-0.38c-0.01,0.35-0.11,0.68-0.14,1.07C76.97,63.02,79.25,62.78,79.25,60.95
				 M74.41,74.32c1.31-1.39,2.29-3.11,2.83-5.33c-2.15-1.1-3.71-4.38-2.56-7.59c-0.53-0.22-1.15-0.47-1.78-0.78
				c-0.54-0.26-1.33-0.67-1.92-0.67c-0.47,0.07-0.98,0.14-1.52,0.22c-0.52,0-1.05,0.07-1.69,0.07c0,0.94,0.07,1.93,0.07,2.89
				c-0.35,0.62-1,1.5-1.45,2.22c-0.19,0.18-0.45,0.65-0.45,0.81c0.06,0.66,1.66,0.69,2.32,0.69c0,0.59,0.18,1.15,0.29,1.76
				c0.15,0.56,0.24,1.2,0.41,1.59c0.15,0.2,0.64,0.79,0.82,0.92c0.78,0.56,2.09,0.35,3.3,0.26c0,0.41-0.03,0.7-0.03,1.14
				C73.67,72.94,74.15,73.53,74.41,74.32 M72.53,84.65c-0.11-0.17-0.38-0.26-0.62-0.45c-0.17-0.12-0.41-0.37-0.67-0.43
				c-0.57-0.14-1.32,0-2.01,0H67.2c-0.16,0.15-0.19,0.34-0.16,0.56c0.14,0.46,0.71,0.32,1.11,0.32
				C69.53,84.65,71.41,84.68,72.53,84.65 M69.53,51.36c0.02,0.05,0.07,0.23,0.26,0.14c-0.56-2.19-2-3.68-3.61-5.07
				c-1.53-1.28-3.3-2.61-5.96-2.71c-1.04-0.05-1.8,0.56-2.31,1.09c-0.51,0.54-1.02,1.27-1.02,2.21c0,2,1.75,3.52,3.76,3.34
				c1.53-0.12,2.34-1.22,3.31-2.2C66.44,48.58,67.87,50.09,69.53,51.36 M66.15,81.64h3.21c-0.63-0.97-1.1-2-1.56-3.13h-1.96
				c-0.07,0.04-0.07,0.07-0.07,0.13C65.72,79.73,65.46,81.11,66.15,81.64 M64.43,50.23c1.03,0.94,2.86,2.01,4.45,1.47
				c-1.36-1.23-2.73-2.34-4.7-2.87C63.34,49.09,63.92,49.76,64.43,50.23"/>
			<path class="st18" d="M102.03,22.6c0,2.1,0.4,5.32-0.97,6.09c-0.84,0.42-2.33,0.31-2.88-0.32c-0.67-0.69-0.64-2.75-0.64-4.35
				c0-2.7-0.25-5.16,2.22-5.21c0.47,0,1.23,0.1,1.61,0.47C102.03,19.97,102.03,21.21,102.03,22.6 M100.99,26.01
				c0.07-1.38,0-2.79,0-4.24c-0.01-1.23-0.23-2.04-1.41-1.8c-0.81,0.09-0.93,0.96-0.93,1.74c-0.03,0.65,0,1.39,0,2.15
				c0,1.23-0.19,3.25,0.43,3.74c0.36,0.31,1.14,0.18,1.43,0C100.84,27.39,100.98,26.63,100.99,26.01"/>
			<path class="st18" d="M96.42,18.9v1.07h-1.81v8.8h-1.09v-8.75c-0.53-0.05-1.19,0-1.78-0.05c0.05-0.36-0.11-0.78,0.05-1.07H96.42z
				"/>
			<path class="st18" d="M90.34,236.5c2.09,0.97,4.36,1.92,4.31,4.94c0,1.49-0.63,2.73-1.48,3.53c-0.85,0.81-2.49,1.55-3.99,0.96
				c0.25,2.24,0.62,4.48,0.91,6.76c-0.56-0.2-1.12-0.43-1.63-0.68c-0.27-2.87-0.71-5.58-1.11-8.32c0.89,0.22,1.5,0.78,2.48,0.85
				c2.04,0.15,3.45-1.45,3.34-3.47c-0.25-2.6-3.15-2.9-4.95-3.94c-1.88,4.06-3.69,8.2-5.52,12.28c-0.44-0.19-0.86-0.39-1.28-0.58
				c1.98-4.55,3.99-9.09,6.06-13.63C88.44,235.67,89.36,236.11,90.34,236.5"/>
			<path class="st18" d="M90.57,23.59c0,2.07,0.22,4.24-0.96,5.06c-0.76,0.44-2.13,0.37-2.83-0.22c-0.86-0.8-0.68-2.73-0.68-4.38
				v-5.09c0-0.03,0-0.06,0.04-0.06h1.07v4.8c0,1.61-0.45,4.62,1.5,4.05c1.11-0.26,0.72-2.63,0.72-4.05v-4.8h1.13V23.59z"/>
			<path class="st18" d="M84.9,28.78h-1.14c-0.08-0.74-0.25-1.38-0.36-2.2c-0.65-0.06-1.35,0-2.11,0c-0.16,0.68-0.25,1.47-0.42,2.2
				H79.9c0.6-3.28,1.14-6.67,1.8-9.87h1.44C83.73,22.21,84.3,25.5,84.9,28.78 M81.47,25.47h1.76c-0.29-1.8-0.59-3.58-0.91-5.32
				C82.05,21.97,81.74,23.67,81.47,25.47"/>
			<path class="st18" d="M82.6,233.64c-0.23,0.42-0.49,0.84-0.77,1.24c-1.79-1.06-3.5-2.2-5.24-3.27c-1,1.38-1.91,2.9-2.81,4.38
				c1.74,1.11,3.55,2.21,5.26,3.31c-0.18,0.46-0.56,0.79-0.77,1.27c-1.74-1.08-3.52-2.2-5.28-3.33c-0.99,1.43-1.88,3.03-2.87,4.46
				c1.76,1.16,3.56,2.2,5.31,3.35c-0.2,0.42-0.48,0.81-0.74,1.21c-2.2-1.35-4.36-2.76-6.53-4.07c2.61-4.24,5.26-8.43,7.89-12.63
				C78.23,230.87,80.41,232.3,82.6,233.64"/>
			<path class="st18" d="M76.21,21.28c0.03,1.24,0,2.74,0,4.19c0,1.47-0.22,2.68-1.05,3.18c-0.88,0.44-2.3,0.04-3.49,0.13v-9.82
				c0-0.03,0-0.06,0.03-0.06c1.75,0,3.25-0.19,4.02,0.82C75.94,20.06,76.12,20.74,76.21,21.28 M75.14,23.88
				c0-1.16,0.17-3.02-0.4-3.58c-0.39-0.4-1.25-0.27-1.94-0.33c-0.04,0-0.03,0.09-0.03,0.1v7.6c0.62,0,1.5,0.11,1.9-0.19
				C75.28,26.97,75.14,25.25,75.14,23.88"/>
			<path class="st18" d="M70.51,28.78h-1.15c-0.12-0.74-0.26-1.38-0.39-2.2c-0.63-0.06-1.41,0-2.06,0c-0.21,0.68-0.29,1.47-0.44,2.2
				h-1c0.54-3.28,1.12-6.67,1.79-9.87h1.43C69.29,22.21,69.87,25.5,70.51,28.78 M67.04,25.47h1.75c-0.3-1.8-0.55-3.58-0.92-5.32
				C67.62,21.97,67.3,23.67,67.04,25.47"/>
			<path class="st18" d="M70.12,226.8c0.44,0.23,0.86,0.51,1.24,0.82c-4.31,3.08-8.64,6.12-12.95,9.18
				c-0.35-0.17-0.64-0.39-0.95-0.62c1.19-5.22,2.38-10.34,3.6-15.51c0.43,0.25,0.87,0.51,1.23,0.83c-1,4.4-2.09,8.8-3.15,13.08
				C62.75,232.15,66.46,229.35,70.12,226.8"/>
			<path class="st18" d="M70.03,62.8c0.48,0.14,0.6,1.27-0.03,1.36c-0.4,0.07-0.76-0.08-0.76-0.72c0.05-0.29,0.13-0.49,0.46-0.55
				C69.85,62.8,69.93,62.8,70.03,62.8"/>
			<path class="st18" d="M63.6,19.48c0.94,0.88,0.7,3.05,0.7,4.69c0,1.8,0.13,3.82-0.97,4.47c-0.9,0.44-2.35,0.01-3.54,0.13v-9.82
				c0-0.03,0-0.06,0.02-0.06C61.37,18.93,62.87,18.71,63.6,19.48 M63.25,24.02c0-1.3,0.19-3.28-0.49-3.8
				c-0.39-0.32-1.19-0.19-1.84-0.25c-0.04,0-0.06,0.05-0.06,0.1v7.56c0.51,0.04,1.35,0.14,1.8-0.07
				C63.44,27.15,63.25,25.41,63.25,24.02"/>
			<path class="st18" d="M63.34,91.17c0.16,3.52-1.18,6.18-3,8.06c-1.71,1.85-4.17,3.35-7.45,3.44c-3.59,0.19-6.12-1.12-8.08-2.89
				c-1.92-1.72-3.33-4.07-3.55-7.46c-0.2-3.44,1.27-6.22,2.9-7.99c1.79-1.92,4.07-3.26,7.51-3.46c3.59-0.23,6.28,1.2,8.13,2.86
				C61.61,85.43,63.21,87.82,63.34,91.17"/>
			<path class="st18" d="M58.22,18.9v9.87h-1.01v-9.82c0-0.03,0-0.06,0.03-0.06H58.22z"/>
			<path class="st18" d="M53.81,18.79c1.77-0.06,2.23,1.03,2.11,2.92h-1.1c0.28-1.15-0.54-2.39-1.63-1.65
				c-0.45,0.31-0.54,1.26-0.36,1.91c0.23,0.55,0.91,0.85,1.44,1.32c0.59,0.38,1.15,0.81,1.48,1.29c0.67,1.26,0.28,3.25-0.56,3.92
				c-0.53,0.45-1.93,0.62-2.73,0.2c-0.84-0.5-1.04-1.52-0.96-3.19h1.08c0.06,1.08-0.03,1.89,0.51,2.14c0.51,0.34,1.31,0.14,1.62-0.2
				c0.26-0.48,0.36-1.43,0.1-2c-0.46-1.04-2.08-1.39-2.85-2.57c-0.73-1.29-0.3-3.37,0.68-3.8C52.92,18.86,53.35,18.79,53.81,18.79"
				/>
			<path class="st18" d="M50.47,28.78h-1.11c-0.11-0.58-0.21-1.37-0.21-2.2c-0.06-1.59-0.2-2.56-2.11-2.22v4.42h-1.06
				c0.05-3.28-0.02-6.67,0.06-9.87c1.56,0.06,3.29-0.32,4,0.66c0.83,1.25,0.47,4.05-1.13,4.16C50.93,23.88,49.87,27.21,50.47,28.78
				 M48.95,22.94c0.58-0.54,0.54-2.4-0.04-2.74c-0.44-0.33-1.04-0.14-1.81-0.22c-0.01,0-0.07,0.05-0.07,0.1v3.11
				C47.8,23.19,48.47,23.4,48.95,22.94"/>
			<path class="st18" d="M48.75,208.64c0.51,0.38,0.94,0.76,1.41,1.13c-1.67,5.03-3.24,10.12-4.9,15.09
				c-0.1,0.1-0.17-0.09-0.25-0.16c-0.31-0.2-0.76-0.48-0.96-0.73c0.54-1.56,1-3.16,1.53-4.72c-1.43-1.23-2.99-2.42-4.53-3.65
				c-0.17-0.15-0.52-0.54-0.6-0.54c-0.1,0-0.97,0.54-1.11,0.6c-1.09,0.63-2.18,1.3-3.18,1.9c-0.45-0.28-0.84-0.63-1.23-0.93
				C39.54,213.92,44.16,211.34,48.75,208.64 M46.07,217.81c0.83-2.47,1.7-5.04,2.42-7.52c-2.28,1.39-4.58,2.66-6.8,4.04
				c1.19,1.04,2.57,2.1,3.85,3.12C45.72,217.55,45.87,217.81,46.07,217.81"/>
			<path class="st18" d="M44.71,27.68v1.1h-3.65c0.05-3.28-0.02-6.67,0.05-9.87h3.52v1.07H42.2c-0.09,1.01,0,2.14-0.04,3.13
				c0.73,0.12,1.54,0.03,2.3,0.08v1.08H42.2c-0.09,1.07,0,2.32-0.04,3.38C42.89,27.71,43.86,27.68,44.71,27.68"/>
			<path class="st18" d="M42.27,198.26c0.28,0.38,0.49,0.84,0.81,1.23c-3.8,2.39-7.63,4.74-11.46,7.11
				c0.93,1.54,1.84,2.94,2.75,4.41c-0.34,0.35-0.79,0.58-1.19,0.79c-1.16-1.92-2.4-3.79-3.57-5.67
				C33.89,203.54,38.09,200.84,42.27,198.26"/>
			<path class="st18" d="M38.96,18.9h1.07c-0.59,3.26-1.16,6.6-1.69,9.87h-1.36c-0.54-3.28-1.08-6.57-1.66-9.87h1.13
				c0.45,2.77,0.85,5.58,1.27,8.38C38.15,24.55,38.51,21.7,38.96,18.9"/>
			<path class="st18" d="M37.44,187.37c0.07,0.45,0.22,0.88,0.38,1.31c-4.77,1.44-9.43,3-14.22,4.39c-0.09-0.26-0.2-0.56-0.32-0.83
				c-0.02-0.28-0.24-0.57-0.21-0.79c0-0.24,0.43-0.49,0.65-0.74c3.14-3.61,6.42-7.47,9.49-10.95c-4.21,1.27-8.33,2.67-12.48,3.92
				c-0.08-0.46-0.34-0.87-0.41-1.35c4.72-1.44,9.45-2.86,14.13-4.3c0.21,0.05,0.24,0.47,0.3,0.81c0.16,0.23,0.35,0.62,0.35,0.76
				c-0.06,0.16-0.44,0.58-0.65,0.78c-3.1,3.59-6.52,7.4-9.53,10.89C29.14,190.06,33.21,188.59,37.44,187.37"/>
			<path class="st18" d="M34.24,18.9v9.87h-1.03v-9.82c0-0.03,0-0.06,0.04-0.06H34.24z"/>
			<path class="st18" d="M33.95,145.43c0.17,2.52-0.7,4.36-1.94,5.69c-1.21,1.35-2.77,2.41-5.08,2.56c-2.38,0.23-4.47-0.6-5.84-1.82
				c-1.33-1.18-2.44-2.79-2.62-5.02c-0.2-2.64,0.74-4.44,1.84-5.74c1.1-1.24,2.87-2.34,5.17-2.57c2.59-0.21,4.43,0.7,5.8,1.85
				C32.59,141.48,33.79,143.1,33.95,145.43 M32.38,147.53c0.31-1.29,0.17-2.75-0.41-4.01c-0.94-1.9-3.17-3.66-6.09-3.47
				c-1.56,0.15-2.69,0.54-3.65,1.3c-1.2,0.94-2.2,2.32-2.38,4.14c-0.26,3.32,1.52,5.08,3.43,6.08
				C27.44,153.53,31.54,150.94,32.38,147.53"/>
			<path class="st18" d="M31.53,120.37c1.41,1.42,2.42,3.2,2.28,5.97c-0.17,3.14-1.89,5-4.16,6.15c0.11-0.6-0.17-1.07,0-1.62
				c0.1-0.23,0.4-0.33,0.53-0.51c1.22-1.05,2.3-2.55,2.19-4.96c-0.12-1.8-0.91-3.06-1.95-3.99c-1.05-1.04-2.51-1.75-4.29-1.75
				c-1.69,0-3.21,0.61-4.33,1.61c-1.27,1.07-2.25,2.59-2.09,5.01c0.13,1.89,1,3.13,2.14,4.06c0.13,0.17,0.38,0.26,0.46,0.41
				c0.12,0.5-0.15,1,0,1.59c-0.15,0.04-0.33-0.07-0.51-0.16c-2.27-1.48-4.18-4.32-3.3-8.14c0.7-3.14,3.3-5.62,6.88-5.9
				C28.19,117.99,30.11,119.02,31.53,120.37"/>
			<path class="st18" d="M33.7,84.09c0,3.43,0.25,6.62-1.04,8.7c-1.18,1.86-3.37,3.31-6.37,3.31c-3.11,0-5.2-1.33-6.44-3.31
				c-0.63-1.05-0.92-2.27-1.05-3.8c0-1.48,0-3.06,0-4.79v-0.12H33.7z M31.37,92.13c1.09-1.54,0.96-3.84,0.96-6.57H20.26v0.1
				c-0.09,2.72-0.16,5.02,0.87,6.53c1.02,1.52,2.75,2.35,5.17,2.35C28.7,94.54,30.36,93.56,31.37,92.13"/>
			<path class="st18" d="M33.57,69.27v7.68h-1.46v-6.19c-1.67-0.11-3.45,0-5.19-0.04c-0.12,2.02-0.03,4.16-0.06,6.23H25.4v-6.23
				h-5.31v6.23h-1.44v-7.68H33.57z"/>
			<path class="st18" d="M33.42,165.79c0.39,2.46,0.57,5.12,0.81,7.72c-0.42,0-0.91,0.09-1.41,0.14c-0.24-2.06-0.41-4.16-0.65-6.24
				c-1.66,0.14-3.43,0.39-5.15,0.52c0.15,2.03,0.42,4.16,0.56,6.25c-0.41,0.04-0.89,0.13-1.44,0.13c-0.21-1.98-0.42-4.1-0.6-6.19
				c-1.78,0.14-3.55,0.38-5.3,0.5c0.2,2.17,0.44,4.2,0.66,6.27c-0.53,0.03-1,0.08-1.46,0.16c-0.24-2.57-0.52-5.14-0.8-7.68
				C23.5,166.8,28.51,166.33,33.42,165.79"/>
			<path class="st18" d="M33.52,110.4v1.43h-8.43c-3.01,0-5.31-0.31-6.29-2.19c-0.77-1.61-0.61-4.28,0.29-5.51
				c0.83-1.12,2.35-1.72,4.24-1.82c3.39-0.15,6.74,0.13,10.19,0v1.48h-7.94c-1.48,0-2.77-0.08-3.71,0.31
				c-1.6,0.53-2.93,2.41-1.84,4.54c0.95,1.97,3.97,1.77,6.91,1.77H33.52z"/>
			<path class="st18" d="M31.79,18.9v9.87h-1.68c-0.72-2.77-1.35-5.59-2.03-8.41c-0.07,2.74,0,5.65,0,8.41h-1.02v-9.82
				c0-0.03,0-0.06,0-0.06h1.69c0.65,2.81,1.37,5.64,2,8.54c0.09-2.78,0.03-5.75,0.03-8.54H31.79z"/>
			<path class="st18" d="M25.57,18.9c-0.14,2.28,0.17,5.45,0,7.85c-0.06,0.93-0.48,1.77-1.25,2.03c-1.06,0.34-2.32,0-2.76-0.73
				c-0.6-0.9-0.44-2.79-0.44-4.32v-4.77c0-0.03,0-0.06,0.05-0.06h1.05c0.09,2.22-0.08,4.77,0,7.14c0.01,1.02,0.4,2.11,1.56,1.7
				c0.98-0.3,0.72-2.76,0.72-4.08V18.9H25.57z"/>
		</g>
	</g>
</g>
</svg>
