<?xml version="1.0" encoding="utf-8"?>
<!-- Generator: Adobe Illustrator 26.0.0, SVG Export Plug-In . SVG Version: 6.00 Build 0)  -->
<svg version="1.1" id="Capa_1" xmlns="http://www.w3.org/2000/svg" xmlns:xlink="http://www.w3.org/1999/xlink" x="0px" y="0px"
	 viewBox="0 0 426.96 550.69" style="enable-background:new 0 0 426.96 550.69;" xml:space="preserve">
<style type="text/css">
	.st0{clip-path:url(#SVGID_00000136392743765018757740000014403620883390407576_);}
	.st1{clip-path:url(#SVGID_00000017514381991041394530000017361614991380103860_);}
	.st2{fill:none;}
	.st3{fill:#143A61;}
	.st4{fill:#0B7798;}
	.st5{fill:#90CDD1;}
	.st6{fill:#E23E48;}
	.st7{fill:#020203;}
	.st8{fill:#FFFFFF;}
	.st9{clip-path:url(#SVGID_00000116234834681342020120000007572017300557498279_);}
	.st10{clip-path:url(#SVGID_00000127755785674851166570000002922548966748476822_);}
	.st11{clip-path:url(#SVGID_00000054965223107522660320000015931571516176143748_);}
	.st12{fill:url(#SVGID_00000024714883156100205140000003310143994931678855_);}
	.st13{fill:url(#SVGID_00000093877505763656394200000008365835720679323781_);}
	.st14{fill:#219991;}
	.st15{fill:#01613B;}
	.st16{fill:#056734;}
	.st17{fill:#06A099;}
	.st18{fill:#123A5E;}
	.st19{fill:url(#SVGID_00000009591718803177564970000006563467817340973754_);}
	.st20{fill:url(#SVGID_00000079482809838079923690000017793183088706962083_);}
	.st21{clip-path:url(#SVGID_00000073721116047559004640000003929825085548492478_);}
	.st22{fill:url(#SVGID_00000149370072387836499140000015909773257864064444_);}
	.st23{fill:url(#SVGID_00000106116487896986604120000005102677821389971615_);}
	.st24{fill:#BA1E41;}
	.st25{fill:#C08F5A;}
</style>
<g>
	<g>
		<g>
			<g>
				<g>
					<path class="st8" d="M124.54,430.43c0,3.28-1.2,5.9-3.59,7.85c-2.39,1.94-5.64,2.92-9.76,2.92c-3.11,0-5.74-0.63-7.9-1.88
						c-2.14-1.25-3.72-3.08-4.72-5.47l5.19-3.28c0.72,1.71,1.73,3,3.02,3.84c1.3,0.84,2.88,1.27,4.79,1.27
						c2.08,0,3.74-0.43,4.99-1.3c1.24-0.88,1.85-2.08,1.85-3.59c0-1.67-0.57-2.93-1.69-3.8c-1.13-0.88-3.34-1.89-6.63-3.07
						c-3.19-1.19-5.6-2.66-7.2-4.43c-1.62-1.78-2.41-3.85-2.41-6.26c0-3.09,1.02-5.51,3.08-7.27c2.04-1.77,4.91-2.64,8.6-2.64
						c2.69,0,4.92,0.54,6.71,1.64c1.8,1.08,3.22,2.78,4.29,5.05l-5.03,3.07c-0.64-1.49-1.48-2.59-2.47-3.3
						c-0.99-0.7-2.23-1.05-3.73-1.05c-1.71,0-3.04,0.39-4.02,1.17c-0.98,0.79-1.46,1.85-1.46,3.19c0,1.37,0.5,2.52,1.51,3.43
						c1,0.92,2.83,1.81,5.5,2.69c3.92,1.27,6.75,2.78,8.5,4.53C123.68,425.48,124.54,427.72,124.54,430.43z"/>
					<path class="st8" d="M141.8,390.34c0,1.14-0.41,2.13-1.25,2.95c-0.82,0.81-1.81,1.22-2.97,1.22c-1.13,0-2.12-0.41-2.93-1.22
						c-0.82-0.82-1.23-1.81-1.23-2.95c0-1.13,0.41-2.13,1.23-2.95c0.81-0.84,1.8-1.25,2.93-1.25c1.16,0,2.14,0.41,2.97,1.25
						C141.39,388.21,141.8,389.2,141.8,390.34z M140.64,440.04h-6.12V404.4h6.12V440.04z"/>
					<path class="st8" d="M179.71,438.59c-1.6,0.87-3.35,1.52-5.25,1.95c-1.89,0.43-3.89,0.66-6.04,0.66
						c-5.69,0-10.34-1.75-13.96-5.29c-3.62-3.51-5.42-8.04-5.42-13.58c0-5.59,1.85-10.15,5.57-13.7c3.71-3.54,8.51-5.31,14.4-5.31
						c2.04,0,3.89,0.2,5.56,0.59c1.67,0.4,3.23,1.01,4.69,1.84v6.52c-1.42-1-3.01-1.78-4.79-2.32c-1.78-0.54-3.52-0.82-5.24-0.82
						c-4.23,0-7.62,1.22-10.19,3.65c-2.58,2.44-3.85,5.7-3.85,9.77c0,3.81,1.29,6.89,3.89,9.23c2.6,2.34,5.99,3.52,10.16,3.52
						c1.99,0,3.9-0.28,5.72-0.83c1.83-0.55,3.42-1.34,4.75-2.37V438.59z"/>
					<path class="st8" d="M223.38,422.11c0,5.29-1.84,9.79-5.54,13.5c-3.71,3.73-8.22,5.59-13.54,5.59c-5.27,0-9.74-1.85-13.42-5.55
						c-3.66-3.7-5.49-8.22-5.49-13.54c0-5.32,1.81-9.77,5.43-13.38c3.63-3.61,8.12-5.41,13.47-5.41c5.39,0,9.92,1.8,13.59,5.42
						C221.56,412.36,223.38,416.81,223.38,422.11z M217.3,422.11c0-3.76-1.23-6.85-3.72-9.31c-2.49-2.44-5.55-3.68-9.21-3.68
						c-3.7,0-6.76,1.23-9.22,3.68c-2.47,2.45-3.69,5.54-3.69,9.31c0,3.78,1.24,6.93,3.74,9.47c2.5,2.53,5.55,3.81,9.16,3.81
						c3.66,0,6.75-1.28,9.23-3.81C216.07,429.04,217.3,425.88,217.3,422.11z"/>
					<path class="st8" d="M237.3,440.04h-6.09v-63.01h6.09V440.04z"/>
					<path class="st8" d="M283.34,422.11c0,5.29-1.85,9.79-5.55,13.5c-3.71,3.73-8.23,5.59-13.54,5.59c-5.26,0-9.74-1.85-13.4-5.55
						c-3.66-3.7-5.5-8.22-5.5-13.54c0-5.32,1.81-9.77,5.44-13.38c3.62-3.61,8.11-5.41,13.46-5.41c5.4,0,9.93,1.8,13.58,5.42
						C281.51,412.36,283.34,416.81,283.34,422.11z M277.27,422.11c0-3.76-1.24-6.85-3.73-9.31c-2.48-2.44-5.55-3.68-9.21-3.68
						c-3.69,0-6.75,1.23-9.22,3.68c-2.45,2.45-3.7,5.54-3.7,9.31c0,3.78,1.25,6.93,3.75,9.47c2.5,2.53,5.55,3.81,9.16,3.81
						c3.68,0,6.74-1.28,9.23-3.81C276.04,429.04,277.27,425.88,277.27,422.11z"/>
					<path class="st8" d="M324.37,441.95c0,6.35-1.47,11.07-4.36,14.13c-2.92,3.05-7.42,4.59-13.5,4.59c-4.8,0-8.62-1.03-11.47-3.1
						c-2.84-2.07-4.53-4.98-5.09-8.73h6.34c0.4,2,1.47,3.49,3.21,4.5c1.73,1,4.11,1.51,7.1,1.51c4.14,0,7.12-0.98,8.94-2.94
						c1.81-1.97,2.71-5.11,2.71-9.41v-8.35c-1.21,2.29-2.92,4.04-5.12,5.24c-2.2,1.21-4.79,1.81-7.77,1.81
						c-4.99,0-9.06-1.8-12.27-5.41c-3.2-3.6-4.81-8.22-4.81-13.84c0-5.49,1.61-9.97,4.83-13.44c3.22-3.46,7.35-5.2,12.4-5.2
						c2.85,0,5.37,0.56,7.56,1.67c2.18,1.13,3.91,2.73,5.18,4.82v-5.41h6.13V441.95z M318.24,421.81c0-3.91-1.07-7-3.22-9.26
						c-2.14-2.28-5.01-3.42-8.6-3.42c-3.55,0-6.43,1.18-8.66,3.54c-2.22,2.37-3.34,5.49-3.34,9.36c0,3.94,1.1,7.12,3.29,9.58
						c2.19,2.45,5,3.69,8.42,3.69c3.48,0,6.37-1.25,8.67-3.78C317.09,428.99,318.24,425.76,318.24,421.81z"/>
					<path class="st8" d="M348.59,390.12l-10.92,10.06l-2.28-2.45l9.99-11.22L348.59,390.12z M343.15,440.04h-6.11V404.4h6.11
						V440.04z"/>
					<path class="st8" d="M388.69,440.04h-6.12v-5.9c-1.22,2.29-2.92,4.04-5.13,5.24c-2.2,1.21-4.79,1.81-7.77,1.81
						c-4.98,0-9.06-1.8-12.27-5.41c-3.2-3.6-4.81-8.22-4.81-13.84c0-5.49,1.61-9.97,4.83-13.44c3.22-3.46,7.35-5.2,12.39-5.2
						c2.87,0,5.39,0.56,7.58,1.67c2.18,1.13,3.91,2.73,5.17,4.82v-5.41h6.12V440.04z M382.57,421.81c0-3.91-1.08-7-3.23-9.26
						c-2.14-2.28-5.02-3.42-8.6-3.42c-3.57,0-6.44,1.18-8.66,3.54c-2.22,2.37-3.33,5.49-3.33,9.36c0,3.94,1.09,7.12,3.26,9.58
						c2.2,2.45,5.01,3.69,8.43,3.69c3.49,0,6.37-1.25,8.67-3.78C381.41,428.99,382.57,425.76,382.57,421.81z"/>
				</g>
				<path class="st8" d="M62.81,382.5v6.25h3.69v19.26h-3.45c-5.87,0-9.82-0.7-11.86-2.07c-2.02-1.37-3.03-3.78-3.03-7.21V382.5
					H37.07v6.25h3.7v9.98l0,0c0.06,2.62,0.56,5.02,1.55,7.18c1.02,2.29,2.47,4.08,4.29,5.39c1.48,1.05,3.2,1.79,5.18,2.24
					c1.98,0.44,5.09,0.66,9.34,0.66h5.37v19.58h-3.69v6.24h10.37V382.5H62.81z"/>
				<path class="st8" d="M97.37,390.75c-1.03-2.28-2.47-4.08-4.31-5.39c-1.47-1.02-3.19-1.75-5.18-2.2c-2-0.44-5.1-0.67-9.32-0.67
					h-4.33v6.25h2.4c5.76,0,9.69,0.74,11.77,2.24c2.08,1.49,3.13,4.08,3.13,7.74c0,3.43-1.02,5.84-3.05,7.21
					c-2.03,1.37-5.99,2.07-11.85,2.07h-2.4v6.2h4.33c4.23,0,7.34-0.21,9.33-0.66c1.98-0.45,3.7-1.19,5.16-2.24
					c1.84-1.31,3.28-3.1,4.31-5.39c1.03-2.28,1.54-4.81,1.54-7.57C98.91,395.56,98.4,393.03,97.37,390.75z"/>
			</g>
			<g>
				<path class="st8" d="M149.81,515.32h-0.14c-2.69,3.52-6.77,5.39-11.19,5.39c-9.53,0-15.54-8.08-15.54-17.06
					c0-9.26,5.87-17.2,15.61-17.2c4.35,0,8.5,2.07,11.12,5.53h0.14v-29.15h5.53v56.98h-5.53V515.32z M128.6,503.23
					c0,6.35,3.73,12.36,10.64,12.36c7.12,0,10.84-5.73,10.84-12.3c0-6.49-4.08-11.74-10.91-11.74
					C132.75,491.56,128.6,497.16,128.6,503.23z"/>
				<path class="st8" d="M170.66,505.44c0,5.46,0.62,10.15,7.32,10.15s7.32-4.7,7.32-10.15v-18.1h5.53v18.72
					c0,8.63-3.25,14.64-12.85,14.64c-9.6,0-12.85-6.01-12.85-14.64v-18.72h5.53V505.44z"/>
				<path class="st8" d="M225.02,497.02h-0.14c-2.56-3.25-5.73-5.46-10.09-5.46c-6.7,0-11.47,5.53-11.47,12.02
					c0,6.42,4.42,12.02,11.19,12.02c4.63,0,7.87-2.07,10.57-5.59h0.14v7.39c-3.18,2.14-6.42,3.32-10.29,3.32
					c-9.81,0-17.27-7.32-17.27-17.13c0-9.67,7.81-17.13,17.34-17.13c3.52,0,7.11,1.17,10.02,3.25V497.02z"/>
				<path class="st8" d="M263.42,519.81h-5.53v-4.49h-0.14c-2.83,3.59-6.63,5.39-11.19,5.39c-9.53,0-15.54-8.08-15.54-17.06
					c0-9.26,5.87-17.2,15.61-17.2c4.42,0,8.43,2.07,11.12,5.53h0.14v-4.63h5.53V519.81z M236.69,503.23
					c0,6.35,3.73,12.36,10.64,12.36c7.11,0,10.84-5.73,10.84-12.3c0-6.49-4.08-11.74-10.91-11.74
					C240.84,491.56,236.69,497.16,236.69,503.23z"/>
				<path class="st8" d="M297.75,497.02h-0.14c-2.56-3.25-5.73-5.46-10.08-5.46c-6.7,0-11.47,5.53-11.47,12.02
					c0,6.42,4.42,12.02,11.19,12.02c4.63,0,7.87-2.07,10.57-5.59h0.14v7.39c-3.18,2.14-6.42,3.32-10.29,3.32
					c-9.81,0-17.27-7.32-17.27-17.13c0-9.67,7.81-17.13,17.34-17.13c3.52,0,7.11,1.17,10.02,3.25V497.02z"/>
				<path class="st8" d="M314.25,475.12c0,2.21-1.8,3.94-3.94,3.94c-2.14,0-3.94-1.73-3.94-3.94c0-2.14,1.8-3.94,3.94-3.94
					C312.46,471.18,314.25,472.98,314.25,475.12z M313.08,519.81h-5.53v-32.46h5.53V519.81z"/>
				<path class="st8" d="M321.71,503.65c0-9.53,7.53-17.2,17.06-17.2c9.53,0,17.06,7.67,17.06,17.2s-7.6,17.06-17.06,17.06
					C329.31,520.71,321.71,513.18,321.71,503.65z M327.24,503.58c0,6.63,4.7,12.02,11.54,12.02s11.54-5.39,11.54-12.02
					c0-6.56-4.7-12.02-11.54-12.02S327.24,497.02,327.24,503.58z M348.58,471.05l-10.57,10.64l-3.45-1.93l8.22-11.33L348.58,471.05z
					"/>
				<path class="st8" d="M368.95,491.28h0.14c2.28-3.11,5.25-4.84,9.26-4.84c8.98,0,11.05,6.49,11.05,14.09v19.27h-5.53v-18.3
					c0-5.25-0.41-9.95-6.84-9.95c-7.6,0-8.08,7.05-8.08,12.85v15.4h-5.53v-32.46h5.53V491.28z"/>
			</g>
			<g>
				<path class="st8" d="M36.65,487.35h4.41l7.87,15.98l7.21-15.98h4.32L44,522.15h-4.31l7.21-14.6L36.65,487.35z"/>
			</g>
			<g>
				<path class="st8" d="M183.76,30.13v35.54h21.01v109.51H185.1c-33.37,0-55.84-3.91-67.38-11.73
					c-11.55-7.82-17.32-21.49-17.32-41.01v-92.3H37.37v35.54h21.01v56.77h0.05c0.27,14.91,3.17,28.56,8.77,40.9
					c5.89,12.96,14.04,23.17,24.47,30.62c8.35,5.96,18.14,10.21,29.39,12.74c11.25,2.53,28.94,3.8,53.08,3.8h30.62v111.3h-21.01
					v35.54h59V30.13H183.76z"/>
			</g>
			<path class="st8" d="M311.19,172.51h-55.73v35.54h55.73V172.51z M353.62,321.79h-98.16v35.54h133.69v-56.54h-35.54V321.79z
				 M255.46,30.13v35.54h98.16v21.01h35.54V30.13H255.46z"/>
			<g>
				<polygon class="st8" points="84.34,487.95 84.34,468.45 80.6,468.45 80.6,462.13 91.1,462.13 91.1,520.39 80.6,520.39 
					80.6,514.06 84.34,514.06 84.34,494.24 				"/>
			</g>
			<path class="st8" d="M103.29,487.48h-9.92v6.33h9.92V487.48z M110.84,514.06H93.36v6.33h23.81v-10.07h-6.33V514.06z
				 M93.36,462.13v6.33h17.48v3.74h6.33v-10.07H93.36z"/>
		</g>
	</g>
</g>
</svg>
