<?xml version="1.0" encoding="utf-8"?>
<!-- Generator: Adobe Illustrator 26.0.0, SVG Export Plug-In . SVG Version: 6.00 Build 0)  -->
<svg version="1.1" id="Capa_1" xmlns="http://www.w3.org/2000/svg" xmlns:xlink="http://www.w3.org/1999/xlink" x="0px" y="0px"
	 viewBox="0 0 216.27 269.98" style="enable-background:new 0 0 216.27 269.98;" xml:space="preserve">
<style type="text/css">
	.st0{clip-path:url(#SVGID_00000035532291489281207350000008021002793043627658_);}
	.st1{clip-path:url(#SVGID_00000147218751029337971880000008840539519801699984_);}
	.st2{fill:none;}
	.st3{fill:#143A61;}
	.st4{fill:#0B7798;}
	.st5{fill:#90CDD1;}
	.st6{fill:#E23E48;}
	.st7{fill:#020203;}
	.st8{fill:#FFFFFF;}
	.st9{clip-path:url(#SVGID_00000150092100951786694670000012351096839147780779_);}
	.st10{clip-path:url(#SVGID_00000147215155224495120900000001988994225195155602_);}
	.st11{clip-path:url(#SVGID_00000133512116529611751710000012664454524204556201_);}
	.st12{fill:url(#SVGID_00000088097796473782888120000017670112795655153591_);}
	.st13{fill:url(#SVGID_00000007389099475746363270000013286313729636095123_);}
	.st14{fill:#219991;}
	.st15{fill:#01613B;}
	.st16{fill:#056734;}
	.st17{fill:#06A099;}
	.st18{fill:#123A5E;}
	.st19{fill:url(#SVGID_00000067919114205844131150000010897282583102704015_);}
	.st20{fill:url(#SVGID_00000015339994583595083610000001129708148138214288_);}
	.st21{clip-path:url(#SVGID_00000054963147621162934970000005725014879948578993_);}
	.st22{fill:url(#SVGID_00000065072654491563297770000002574994677649142438_);}
	.st23{fill:url(#SVGID_00000089550495889498978340000016121602705682611643_);}
	.st24{fill:#BA1E41;}
	.st25{fill:#C08F5A;}
</style>
<g>
	<g>
		<g>
			<g>
				<g>
					<path class="st14" d="M68.8,215.5c0,1.66-0.61,2.98-1.81,3.97c-1.21,0.98-2.85,1.48-4.94,1.48c-1.57,0-2.9-0.32-3.99-0.95
						c-1.08-0.63-1.88-1.56-2.39-2.77l2.62-1.66c0.37,0.87,0.88,1.52,1.53,1.94c0.66,0.43,1.46,0.64,2.42,0.64
						c1.05,0,1.89-0.22,2.52-0.66c0.63-0.44,0.94-1.05,0.94-1.81c0-0.84-0.29-1.48-0.85-1.92c-0.57-0.44-1.69-0.96-3.35-1.55
						c-1.61-0.6-2.83-1.35-3.64-2.24c-0.82-0.9-1.22-1.95-1.22-3.17c0-1.56,0.52-2.79,1.56-3.68c1.03-0.89,2.48-1.34,4.35-1.34
						c1.36,0,2.49,0.28,3.39,0.83c0.91,0.54,1.63,1.4,2.17,2.56l-2.55,1.55c-0.33-0.75-0.75-1.31-1.25-1.67
						c-0.5-0.35-1.13-0.53-1.89-0.53c-0.87,0-1.54,0.2-2.03,0.59c-0.49,0.4-0.74,0.94-0.74,1.61c0,0.69,0.25,1.28,0.76,1.74
						c0.51,0.47,1.43,0.92,2.78,1.36c1.98,0.64,3.42,1.4,4.3,2.29C68.37,213,68.8,214.13,68.8,215.5z"/>
					<path class="st14" d="M77.54,195.22c0,0.58-0.21,1.08-0.63,1.49c-0.42,0.41-0.92,0.62-1.5,0.62c-0.57,0-1.07-0.21-1.48-0.62
						c-0.42-0.42-0.62-0.92-0.62-1.49c0-0.57,0.21-1.08,0.62-1.49c0.41-0.43,0.91-0.63,1.48-0.63c0.58,0,1.08,0.21,1.5,0.63
						C77.33,194.14,77.54,194.64,77.54,195.22z M76.95,220.36h-3.1v-18.04h3.1V220.36z"/>
					<path class="st14" d="M96.72,219.63c-0.81,0.44-1.7,0.77-2.66,0.99c-0.96,0.22-1.97,0.33-3.06,0.33
						c-2.88,0-5.23-0.89-7.06-2.67c-1.83-1.78-2.74-4.07-2.74-6.87c0-2.83,0.94-5.14,2.82-6.93c1.88-1.79,4.3-2.69,7.29-2.69
						c1.03,0,1.97,0.1,2.82,0.3c0.84,0.2,1.63,0.51,2.37,0.93v3.3c-0.72-0.51-1.52-0.9-2.42-1.17c-0.9-0.28-1.78-0.42-2.65-0.42
						c-2.14,0-3.85,0.62-5.16,1.85c-1.3,1.24-1.95,2.88-1.95,4.94c0,1.93,0.65,3.48,1.97,4.67s3.03,1.78,5.14,1.78
						c1.01,0,1.97-0.14,2.89-0.42c0.93-0.28,1.73-0.68,2.4-1.2V219.63z"/>
					<path class="st14" d="M118.81,211.29c0,2.67-0.93,4.96-2.8,6.83c-1.88,1.89-4.16,2.83-6.85,2.83c-2.67,0-4.93-0.94-6.79-2.81
						c-1.85-1.87-2.78-4.16-2.78-6.85c0-2.69,0.92-4.94,2.75-6.77c1.84-1.83,4.11-2.74,6.82-2.74c2.73,0,5.02,0.91,6.88,2.74
						C117.89,206.36,118.81,208.61,118.81,211.29z M115.74,211.29c0-1.9-0.62-3.47-1.88-4.71c-1.26-1.24-2.81-1.86-4.66-1.86
						c-1.87,0-3.42,0.62-4.66,1.86c-1.25,1.24-1.87,2.8-1.87,4.71c0,1.91,0.63,3.51,1.89,4.79c1.26,1.28,2.81,1.93,4.64,1.93
						c1.85,0,3.42-0.65,4.67-1.93C115.11,214.8,115.74,213.2,115.74,211.29z"/>
					<path class="st14" d="M125.86,220.36h-3.08v-31.88h3.08V220.36z"/>
					<path class="st14" d="M149.15,211.29c0,2.67-0.94,4.96-2.81,6.83c-1.88,1.89-4.16,2.83-6.85,2.83c-2.66,0-4.93-0.94-6.78-2.81
						c-1.85-1.87-2.78-4.16-2.78-6.85c0-2.69,0.92-4.94,2.75-6.77c1.83-1.83,4.1-2.74,6.81-2.74c2.73,0,5.02,0.91,6.87,2.74
						C148.22,206.36,149.15,208.61,149.15,211.29z M146.08,211.29c0-1.9-0.63-3.47-1.89-4.71c-1.25-1.24-2.81-1.86-4.66-1.86
						c-1.87,0-3.42,0.62-4.66,1.86c-1.24,1.24-1.87,2.8-1.87,4.71c0,1.91,0.63,3.51,1.9,4.79c1.26,1.28,2.81,1.93,4.64,1.93
						c1.86,0,3.41-0.65,4.67-1.93C145.45,214.8,146.08,213.2,146.08,211.29z"/>
					<path class="st14" d="M169.91,221.33c0,3.21-0.74,5.6-2.21,7.15c-1.48,1.55-3.75,2.32-6.83,2.32c-2.43,0-4.36-0.52-5.8-1.57
						c-1.44-1.05-2.29-2.52-2.57-4.42h3.21c0.2,1.01,0.74,1.76,1.62,2.28c0.88,0.51,2.08,0.76,3.59,0.76c2.1,0,3.6-0.49,4.52-1.49
						c0.92-0.99,1.37-2.58,1.37-4.76v-4.23c-0.61,1.16-1.48,2.05-2.59,2.65c-1.11,0.61-2.42,0.92-3.93,0.92
						c-2.52,0-4.58-0.91-6.21-2.74c-1.62-1.82-2.43-4.16-2.43-7c0-2.78,0.81-5.05,2.44-6.8c1.63-1.75,3.72-2.63,6.28-2.63
						c1.44,0,2.72,0.28,3.83,0.84c1.1,0.57,1.98,1.38,2.62,2.44v-2.74h3.1V221.33z M166.81,211.14c0-1.98-0.54-3.54-1.63-4.69
						c-1.08-1.15-2.53-1.73-4.35-1.73c-1.8,0-3.25,0.6-4.38,1.79c-1.12,1.2-1.69,2.78-1.69,4.74c0,1.99,0.56,3.6,1.66,4.85
						c1.11,1.24,2.53,1.87,4.26,1.87c1.76,0,3.23-0.63,4.39-1.91C166.23,214.77,166.81,213.14,166.81,211.14z"/>
					<path class="st14" d="M182.16,195.1l-5.52,5.09l-1.15-1.24l5.06-5.67L182.16,195.1z M179.41,220.36h-3.09v-18.04h3.09V220.36z"
						/>
					<path class="st14" d="M202.45,220.36h-3.1v-2.98c-0.62,1.16-1.48,2.05-2.6,2.65c-1.11,0.61-2.42,0.92-3.93,0.92
						c-2.52,0-4.58-0.91-6.21-2.74c-1.62-1.82-2.43-4.16-2.43-7c0-2.78,0.81-5.05,2.44-6.8c1.63-1.75,3.72-2.63,6.27-2.63
						c1.45,0,2.73,0.28,3.84,0.84c1.1,0.57,1.98,1.38,2.62,2.44v-2.74h3.1V220.36z M199.35,211.14c0-1.98-0.54-3.54-1.63-4.69
						c-1.08-1.15-2.54-1.73-4.35-1.73c-1.8,0-3.26,0.6-4.38,1.79c-1.12,1.2-1.69,2.78-1.69,4.74c0,1.99,0.55,3.6,1.65,4.85
						c1.11,1.24,2.53,1.87,4.26,1.87c1.76,0,3.23-0.63,4.39-1.91C198.77,214.77,199.35,213.14,199.35,211.14z"/>
				</g>
				<path class="st15" d="M37.57,191.25v3.16h1.87v9.74h-1.75c-2.97,0-4.97-0.35-6-1.05c-1.02-0.69-1.53-1.91-1.53-3.65v-8.21h-5.61
					v3.16h1.87v5.05l0,0c0.03,1.33,0.28,2.54,0.79,3.64c0.52,1.16,1.25,2.06,2.17,2.73c0.75,0.53,1.62,0.9,2.62,1.13
					c1,0.22,2.57,0.33,4.73,0.33h2.72v9.91h-1.87v3.16h5.25v-29.1H37.57z"/>
				<path class="st14" d="M55.06,195.42c-0.52-1.15-1.25-2.06-2.18-2.73c-0.74-0.52-1.61-0.89-2.62-1.11
					c-1.01-0.22-2.58-0.34-4.71-0.34h-2.19v3.16h1.21c2.92,0,4.91,0.38,5.96,1.13c1.05,0.75,1.58,2.06,1.58,3.92
					c0,1.74-0.52,2.96-1.55,3.65c-1.03,0.69-3.03,1.05-6,1.05h-1.21v3.14h2.19c2.14,0,3.71-0.11,4.72-0.33
					c1-0.23,1.87-0.6,2.61-1.13c0.93-0.66,1.66-1.57,2.18-2.73c0.52-1.15,0.78-2.43,0.78-3.83
					C55.84,197.86,55.58,196.58,55.06,195.42z"/>
			</g>
			<g>
				<path class="st14" d="M81.59,258.45h-0.07c-1.36,1.78-3.42,2.73-5.66,2.73c-4.82,0-7.86-4.09-7.86-8.63c0-4.68,2.97-8.7,7.9-8.7
					c2.2,0,4.3,1.05,5.63,2.8h0.07v-14.75h2.8v28.83h-2.8V258.45z M70.86,252.34c0,3.22,1.89,6.26,5.38,6.26
					c3.6,0,5.49-2.9,5.49-6.22c0-3.28-2.06-5.94-5.52-5.94C72.96,246.43,70.86,249.26,70.86,252.34z"/>
				<path class="st14" d="M92.14,253.45c0,2.76,0.31,5.14,3.7,5.14s3.7-2.38,3.7-5.14v-9.16h2.8v9.47c0,4.37-1.64,7.41-6.5,7.41
					c-4.86,0-6.5-3.04-6.5-7.41v-9.47h2.8V253.45z"/>
				<path class="st14" d="M119.64,249.19h-0.07c-1.29-1.64-2.9-2.76-5.1-2.76c-3.39,0-5.8,2.8-5.8,6.08c0,3.25,2.24,6.08,5.66,6.08
					c2.34,0,3.98-1.05,5.35-2.83h0.07v3.74c-1.61,1.08-3.25,1.68-5.21,1.68c-4.96,0-8.74-3.7-8.74-8.67c0-4.89,3.95-8.67,8.77-8.67
					c1.78,0,3.6,0.59,5.07,1.64V249.19z"/>
				<path class="st14" d="M139.07,260.72h-2.8v-2.27h-0.07c-1.43,1.82-3.35,2.73-5.66,2.73c-4.82,0-7.86-4.09-7.86-8.63
					c0-4.68,2.97-8.7,7.9-8.7c2.24,0,4.26,1.05,5.63,2.8h0.07v-2.34h2.8V260.72z M125.55,252.34c0,3.22,1.89,6.26,5.38,6.26
					c3.6,0,5.49-2.9,5.49-6.22c0-3.28-2.06-5.94-5.52-5.94C127.64,246.43,125.55,249.26,125.55,252.34z"/>
				<path class="st14" d="M156.44,249.19h-0.07c-1.29-1.64-2.9-2.76-5.1-2.76c-3.39,0-5.8,2.8-5.8,6.08c0,3.25,2.24,6.08,5.66,6.08
					c2.34,0,3.98-1.05,5.35-2.83h0.07v3.74c-1.61,1.08-3.25,1.68-5.21,1.68c-4.96,0-8.74-3.7-8.74-8.67c0-4.89,3.95-8.67,8.77-8.67
					c1.78,0,3.6,0.59,5.07,1.64V249.19z"/>
				<path class="st14" d="M164.79,238.11c0,1.12-0.91,1.99-1.99,1.99c-1.08,0-1.99-0.87-1.99-1.99c0-1.08,0.91-1.99,1.99-1.99
					C163.88,236.12,164.79,237.03,164.79,238.11z M164.2,260.72h-2.8V244.3h2.8V260.72z"/>
				<path class="st14" d="M168.56,252.55c0-4.82,3.81-8.7,8.63-8.7c4.82,0,8.63,3.88,8.63,8.7c0,4.82-3.84,8.63-8.63,8.63
					C172.41,261.18,168.56,257.37,168.56,252.55z M171.36,252.51c0,3.35,2.38,6.08,5.84,6.08c3.46,0,5.84-2.73,5.84-6.08
					c0-3.32-2.38-6.08-5.84-6.08C173.74,246.43,171.36,249.19,171.36,252.51z M182.16,236.05l-5.35,5.38l-1.75-0.98l4.16-5.73
					L182.16,236.05z"/>
				<path class="st14" d="M192.47,246.29h0.07c1.15-1.57,2.66-2.45,4.68-2.45c4.54,0,5.59,3.29,5.59,7.13v9.75h-2.8v-9.26
					c0-2.66-0.21-5.03-3.46-5.03c-3.84,0-4.09,3.56-4.09,6.5v7.79h-2.8V244.3h2.8V246.29z"/>
			</g>
			<g>
				<path class="st14" d="M24.33,244.3h2.23l3.98,8.09l3.65-8.09h2.18l-8.33,17.61h-2.18l3.65-7.39L24.33,244.3z"/>
			</g>
			<g>
				<path class="st16" d="M98.77,12.97v17.98h10.63v55.41h-9.95c-16.89,0-28.25-1.98-34.09-5.94c-5.84-3.96-8.76-10.87-8.76-20.75
					v-46.7H24.7v17.98h10.63v28.72h0.03c0.14,7.55,1.6,14.45,4.44,20.69c2.98,6.56,7.11,11.72,12.38,15.49
					c4.22,3.02,9.18,5.16,14.87,6.45c5.69,1.28,14.64,1.92,26.86,1.92h15.49v56.31H98.77v17.98h29.85V12.97H98.77z"/>
			</g>
			<path class="st17" d="M163.24,85h-28.2v17.98h28.2V85z M184.71,160.53h-49.66v17.98h67.64v-28.61h-17.98V160.53z M135.04,12.97
				v17.98h49.66v10.63h17.98V12.97H135.04z"/>
			<g>
				<polygon class="st16" points="48.46,244.61 48.46,234.74 46.57,234.74 46.57,231.54 51.89,231.54 51.89,261.02 46.57,261.02 
					46.57,257.81 48.46,257.81 48.46,247.79 				"/>
			</g>
			<path class="st17" d="M58.05,244.36h-5.02v3.2h5.02V244.36z M61.87,257.81h-8.84v3.2h12.04v-5.09h-3.2V257.81z M53.03,231.54v3.2
				h8.84v1.89h3.2v-5.09H53.03z"/>
		</g>
	</g>
</g>
</svg>
