<?xml version="1.0" encoding="utf-8"?>
<!-- Generator: Adobe Illustrator 26.0.0, SVG Export Plug-In . SVG Version: 6.00 Build 0)  -->
<svg version="1.1" id="Capa_1" xmlns="http://www.w3.org/2000/svg" xmlns:xlink="http://www.w3.org/1999/xlink" x="0px" y="0px"
	 viewBox="0 0 404.72 538.72" style="enable-background:new 0 0 404.72 538.72;" xml:space="preserve">
<style type="text/css">
	.st0{clip-path:url(#SVGID_00000091707129986375210340000002344083102956933541_);}
	.st1{clip-path:url(#SVGID_00000156549361477626537170000012613271001751772838_);}
	.st2{fill:none;}
	.st3{fill:#143A61;}
	.st4{fill:#0B7798;}
	.st5{fill:#90CDD1;}
	.st6{fill:#E23E48;}
	.st7{fill:#020203;}
	.st8{fill:#FFFFFF;}
	.st9{clip-path:url(#SVGID_00000013154392029861889980000001367620091750759309_);}
	.st10{clip-path:url(#SVGID_00000023971309727196162720000005243070395453100190_);}
	.st11{clip-path:url(#SVGID_00000155867051441200397290000009173607342861474710_);}
	.st12{fill:url(#SVGID_00000088838989687263581930000017685304790726823040_);}
	.st13{fill:url(#SVGID_00000175290474612158811090000012394305271103359666_);}
	.st14{fill:#219991;}
	.st15{fill:#01613B;}
	.st16{fill:#056734;}
	.st17{fill:#06A099;}
	.st18{fill:#123A5E;}
	.st19{fill:url(#SVGID_00000057855403233763972620000000408802551284148869_);}
	.st20{fill:url(#SVGID_00000060009590365527056080000003243593203688763530_);}
	.st21{clip-path:url(#SVGID_00000159444744583887639610000000707619357816324002_);}
	.st22{fill:url(#SVGID_00000014620753611364710890000004157924800062814113_);}
	.st23{fill:url(#SVGID_00000101098707684189388190000009964076819917345699_);}
	.st24{fill:#BA1E41;}
	.st25{fill:#C08F5A;}
</style>
<g>
	<g>
		<g>
			<path class="st8" d="M387.47,30.71c-0.03,101.5,0.13,203.9,0,305.89c-0.03,0-0.03,0.03-0.03,0.08
				c-1.79,41.91-14.05,72.67-32.72,97.75c-13.97,18.86-30.91,34.42-50.31,47.81c-3.24,2.21-6.56,4.15-10.09,6.1
				c-3.33,2.09-6.91,3.99-10.55,5.81c-22.85,12.24-48.53,22.41-78.24,27.79c-1.37,0.32-1.96,0.22-3.4,0
				c-24.2-4.46-44.94-12.12-64.51-21.15c-14.96-6.88-29-14.7-41.39-23.97c-25.1-18.9-45.92-41.04-59.66-70.8
				c-8.6-18.57-14.37-40.27-15.83-65.99c-0.17-5.12-0.13-10.55-0.13-16.12V30.2h274.52c30.37,0,60.77-0.16,91.39,0h0.65
				C387.47,30.25,387.47,30.2,387.47,30.71 M383.51,324.67V34.16c-3.59-0.24-7.88-0.11-11.76-0.11H24.78
				c-0.16,0.07-0.16,0.07-0.16,0.22v290.4c0,6.85,0,13.57,0.4,20c0.52,6.36,1.32,12.56,2.41,18.52
				c8.21,46.71,32.04,78.53,62.26,103.55c7.56,6.31,15.67,12.05,24.4,17.1c17.41,10.31,35.96,18.96,56.93,26.05
				c9.41,3.2,20.08,6.06,30.87,7.93c0.81,0.17,1.67,0.56,2.16,0.47c0.67,0,1.47-0.29,2.25-0.47c10.9-1.98,21.35-4.74,30.86-7.93
				c20.95-7.09,39.65-15.74,56.91-26.05c4.4-2.59,8.63-5.19,12.68-8.06c3.95-2.86,7.88-5.89,11.69-9.04
				c30.1-24.97,54.17-56.88,62.37-103.65c0.98-5.87,1.79-12.06,2.27-18.42C383.51,338.25,383.51,331.52,383.51,324.67"/>
			<path class="st8" d="M380.14,187.27c0.28,5.01-1.46,8.58-3.87,11.15c-2.62,2.67-5.59,4.53-10.23,4.91
				c-4.93,0.31-8.78-1.58-11.41-3.73c-2.75-2.36-4.6-5.49-5.11-10.09c-0.35-5.15,1.44-8.57,3.88-11.26
				c1.21-1.24,2.45-2.36,4.26-3.23c1.62-0.93,3.71-1.49,5.99-1.68c4.87-0.32,8.99,1.47,11.48,3.75
				C377.6,179.38,379.71,182.63,380.14,187.27 M370.18,199.19c3.76-1.79,7.21-5.34,7.21-11.05c0-4.06-1.92-6.85-3.96-8.76
				c-2.16-1.87-5.57-3.45-9.78-3.05c-2.91,0.19-4.83,1.18-6.58,2.49c-1.95,1.49-3.17,3.05-3.98,5.07c-0.99,2.55-1.02,5.47-0.29,7.77
				C354.63,197.91,362.46,202.72,370.18,199.19"/>
			<path class="st8" d="M379.92,265.2c0.36,4.91-1.37,8.63-3.82,11.19c-2.57,2.63-5.63,4.35-10.28,4.81
				c-4.94,0.35-8.75-1.55-11.21-3.83c-2.97-2.43-4.71-5.42-5.19-9.96c-0.38-5.22,1.64-8.66,3.88-11.32c1.17-1.27,2.47-2.36,4.2-3.22
				c1.78-0.91,3.81-1.48,6.05-1.61c4.84-0.34,8.96,1.4,11.44,3.75C377.51,257.42,379.64,260.63,379.92,265.2 M376.41,270.73
				c1.42-3.32,0.99-8.48-1.27-11.45c-2.07-2.75-5.97-5.56-11.62-5.05c-3.79,0.33-6.09,1.78-8.04,3.73c-1.75,1.87-3.37,4.63-3.3,8.37
				c0,4.53,2.31,7.5,4.99,9.42c3.1,2.26,7.35,3.22,11.51,1.78C372.13,276.48,374.95,274.17,376.41,270.73"/>
			<path class="st8" d="M379.64,142.07c-0.27,0.95,0.28,2.22,0,3.24c-0.12,0.51-1.21,0.87-1.73,1.19
				c-4.13,2.54-8.63,5.42-12.49,7.64c0.3-4.24-0.52-7.01-3.07-8.31c-2.63-1.53-6.45-0.42-7.87,1.4c-2.07,2.36-1.3,6.72-1.49,10.75
				h26.65v2.8h-29.45c0.24-4.84-0.64-9.46,0.64-12.85c1.07-3.16,3.94-5.59,7.81-5.87c5.22-0.39,8.84,2.52,9.45,7.04
				C371.78,147.04,375.93,144.22,379.64,142.07"/>
			<path class="st8" d="M379.64,311.27v2.85h-29.45v-2.85h13.07c0.21-4.54,0.1-9.28,0.1-13.98c-4.27-0.19-8.75-0.07-13.17-0.07
				v-2.68c0-0.12,0-0.2,0-0.2h29.45v2.88h-13.41c-0.06,4.56-0.02,9.31-0.02,13.95C370.56,311.39,375.13,311.27,379.64,311.27"/>
			<path class="st8" d="M379.52,216.31v3.29c-8.6,5.61-17.32,10.75-25.96,16.24c8.64-0.07,17.25-0.15,25.87-0.31
				c0.12,0.8,0,1.96,0.09,2.91h-29.43c0.28-0.95-0.33-2.42,0-3.37c0.1-0.39,0.99-0.83,1.49-1.16c8.05-4.95,16.58-10.28,24.37-15.16
				c-8.6,0.14-17.24,0.28-25.86,0.32v-2.68c0-0.05,0-0.06,0-0.06H379.52z"/>
			<path class="st8" d="M379.15,341.16c-0.6,4.38-0.96,8.85-1.49,13.21c-9.74-1.06-19.51-2.08-29.36-3.12
				c0.12-0.96,0.24-2.01,0.39-2.84c8.82,0.97,17.74,1.72,26.44,2.76c0.37-3.34,0.71-7.01,1.21-10.31
				C377.16,340.94,378.13,341.05,379.15,341.16"/>
			<path class="st8" d="M374.81,44.53c1.54,1.65,1.17,5.2,1.17,8.77c0,3.77,0.51,8.26-1.8,9.6c-1.57,0.91-4.59,0.73-5.88-0.57
				c-1.35-1.44-1.11-5.94-1.11-9.03c0-5.07-0.53-9.76,4.26-9.87C372.6,43.43,374.05,43.68,374.81,44.53 M373.95,57.67
				c0.11-2.73,0.03-5.51,0-8.39c-0.08-2.43-0.52-4.04-2.74-3.55c-1.68,0.17-1.92,1.93-1.92,3.66v4.07c0,2.43-0.32,6.5,0.9,7.42
				c0.74,0.54,2.42,0.28,2.81-0.07C373.65,60.4,373.87,58.88,373.95,57.67"/>
			<path class="st8" d="M372.85,367.93c0.88,0.24,1.81,0.5,2.65,0.69c-1.21,5.03-2.59,9.9-3.87,14.81
				c-9.44-2.48-18.89-5.03-28.54-7.63c1.31-4.89,2.73-9.68,4-14.8c1,0.36,1.83,0.56,2.86,0.77c-1.16,3.99-2.15,8.04-3.23,11.96
				c3.32,0.93,6.66,1.83,9.9,2.61c1.21-3.85,2.1-7.91,3.3-11.85c0.96,0.25,1.82,0.5,2.78,0.74c-1.06,4.04-2.13,7.88-3.23,11.85
				c3.25,1.04,6.73,1.87,10.11,2.78C370.78,376.02,371.69,371.82,372.85,367.93"/>
			<path class="st8" d="M364.66,63.14h-2.2c-0.81-2.32,0.46-7.78-1.72-8.74c-0.64-0.19-1.66,0-2.77,0v8.74h-2.19
				c0.08-6.48-0.12-13.18,0.08-19.51c2.97,0.33,6.06-0.95,7.67,1.06c1.91,2.07,1.45,8.36-1.87,8.48
				C365.65,53.47,363.52,59.97,364.66,63.14 M362.08,51.17c0.65-1.21,0.65-3.91-0.17-4.78c-0.85-0.85-2.27-0.48-3.81-0.65
				c-0.13,0-0.13,0.11-0.13,0.2v6.15C359.63,51.99,361.31,52.52,362.08,51.17"/>
			<path class="st8" d="M360.19,409.97c-0.46,1.04-1.11,1.89-1.65,3.02c-10.24,0.56-20.31,1.04-30.51,1.53
				c7.41,4.03,15.17,8.3,22.8,12.35c-0.41,0.84-0.8,1.69-1.41,2.41c-8.57-4.64-17.1-9.56-25.77-14.19c0.67-1.06,1.14-2.01,1.66-3
				c10.21-0.67,20.3-1.1,30.46-1.55c-7.35-4.12-15.19-8.35-22.74-12.37c0.49-0.78,0.92-1.66,1.45-2.41
				C343.1,400.45,351.64,405.17,360.19,409.97"/>
			<path class="st8" d="M353.52,63.05c-0.59,0.22-1.62,0.09-2.29,0.09c-0.18-1.46-0.52-2.74-0.67-4.34c-1.3-0.12-2.8,0-4.24,0
				c-0.28,1.34-0.5,2.9-0.77,4.34h-2.08c1.26-6.48,2.32-13.06,3.62-19.51h2.86C351.09,50.15,352.23,56.66,353.52,63.05 M346.72,56.6
				h3.38c-0.54-3.56-1.05-7.07-1.8-10.52C347.94,49.67,347.12,53.04,346.72,56.6"/>
			<path class="st8" d="M343.1,294.92v33.83c0,5.51-0.38,10.92-0.68,16.11c-0.41,5.02-1.4,9.9-2.39,14.66
				c-0.83,4.63-1.96,9.26-3.29,13.55c-2.7,8.59-6.3,16.51-10.3,23.53c-12.4,21.48-29.88,37.71-50.63,50.86
				c-10.11,6.59-21.46,12.34-33.35,17.3c-10.94,4.58-22.31,8.59-34.99,11.44c-1.34,0.37-2.56,0.83-3.56,0.76
				c-0.97-0.12-2.33-0.47-3.52-0.76c-7.79-1.91-15.68-4.31-22.75-6.8c-24.92-8.98-47.01-20.9-65.15-36.53
				c-18.18-15.68-33.04-34.39-41.18-60.19c-3.96-12.66-6.27-27.6-6.27-44.37c0-84.54,0.12-168.86,0.05-253.52
				c0-0.13-0.05-0.24,0.07-0.24H203.7c46.15,0,92.16-0.28,138.31,0c0.44,0,0.67-0.05,0.81,0c0.28,0.24,0.2,0.11,0.28,0.45
				c0.16,1.02,0,2.77,0,4.32V294.92z M339.62,337.65c0.25-3.96,0.21-7.95,0.21-12.13c0-81.87,0-163.84-0.12-245.89
				c-2.27,1.98-4.76,4.57-6.97,6.9c-10.22,10.26-20.4,20.47-30.68,30.78c-1.25,1.15-2.46,2.23-3.29,3.6
				c-3.33,5.15-6.7,10.45-9.93,15.62c-0.21,0.3-0.53,0.73-0.47,1.05c15.16,3.65,30.22,7.2,45.3,11c-14.46,3.29-28.9,6.48-43.44,9.79
				c3.87,6.82,8.25,13.5,12.24,20.39c-6.95-4.09-13.92-8.56-20.8-12.48c-3.75,15.27-7.49,30.47-11.38,45.71
				c-3.73-15.39-7.54-30.62-11.12-45.89c-4.84,2.79-9.51,5.89-14.32,8.91c-2.13,1.38-3.96,3.81-5.87,5.75
				C182.91,236.9,127.29,293.18,71.13,349.25c-0.55,0.72-1.18,1.12-1.29,1.63c-0.07,0.74,0.28,1.66,0.44,2.56
				c0.38,2.81,0.85,5.63,1.41,7.91c3.8,16.91,10.29,30.69,18.67,42.82c3.29,4.86,7.17,9.22,11,13.47
				c7.92,8.68,16.76,16.27,26.28,22.92c9.7,6.77,20.27,12.44,31.56,17.71c12.98,5.9,26.28,10.85,40.89,14.4
				c1.48,0.45,3.47,1.12,4.92,0.85c23.07-5.22,43.66-14.21,61.71-24.37c10.46-5.82,20.07-12.8,28.88-20.39
				c8.71-7.64,16.6-16.16,23.22-25.95c6.5-9.74,12.14-20.8,15.58-33.55c1.75-6.4,3.22-13.2,4.29-20.26
				C339.2,345.38,339.24,341.52,339.62,337.65 M336.28,78.26c0.13-0.15,0.46-0.25,0.13-0.35c-0.63-0.32-2.88,0-4.17,0H68.44
				c0,0,0,0.1,0,0.2c-0.12,78.35-0.12,156.87-0.12,235.42c0,11.14-0.35,22.41,0.91,32.8c0.32,0.06,0.53-0.39,0.71-0.54
				c56.54-56.52,112.86-113.53,169.38-170.14c0.99-0.9,2.18-2.02,2.83-2.95c1.59-2.36,2.99-4.78,4.51-7.05
				c1.2-2.17,2.51-4.42,3.76-6.32c0.19-0.24,0.46-0.44,0.29-0.84c-14.76-3.45-29.9-6.5-44.7-9.95c15.44-3.57,30.81-7.39,46.28-10.95
				c-4.38-7.33-8.88-14.73-12.97-22.03c6.34,3.79,12.97,7.58,19.32,11.43c0.38,0.17,0.67,0.56,1.15,0.56
				c3.65-13.7,6.95-27.59,10.64-41.36c3.41,14.03,7.13,27.87,10.7,41.67c4.25-2.31,8.33-4.99,12.36-7.38
				c0.67-0.42,1.4-0.73,2.09-1.3c0.52-0.41,0.97-1.08,1.64-1.69c8.71-8.73,17.53-17.53,26.28-26.46
				C327.77,86.81,332.32,82.75,336.28,78.26 M272.44,147.51c15.44-0.12,31.01,0.1,46.27-0.12c-12.54-2.81-24.92-5.96-37.54-8.76
				c-2.54,2.44-5.81,5.61-8.48,8.37C272.63,147.11,272.44,147.22,272.44,147.51 M296.11,170.56c0.13,0.01,0.23,0.01,0.13,0
				c-2.46-3.98-4.84-8.09-7.4-11.9c-1.26,0.36-2.41,0.63-3.67,0.81C288.58,163.16,292.63,166.81,296.11,170.56 M282.61,133.69
				c3.83-3.64,7.95-7.73,11.63-11.57c-4.15,2.61-8.53,5.03-12.56,7.88C281.93,131.23,282.15,132.42,282.61,133.69 M280.74,162.6
				c0.1-0.73,0.48-1.82,0.42-2.24c-0.02-0.64-1.5-1.8-2.1-2.31c-2.32-2.44-4.5-4.46-6.75-6.59c0-0.07-0.03-0.07-0.03,0.03
				c0.03,15.33-0.13,30.89,0.03,46.18C274.95,186.35,277.93,174.13,280.74,162.6 M270.44,144.38c0.17-0.37,0-1.88,0-2.72
				c0-14.5,0.05-29.21-0.14-43.28c-1.48,6.06-2.75,12.2-4.45,18.81c-1.2,5.31-2.54,10.74-3.75,16.17c-0.18,0.67-0.72,1.96-0.72,2.28
				c0.11,0.72,1.72,1.82,2.24,2.35c2.22,2.11,4.11,4.08,6.35,6.23C270.14,144.29,270.3,144.76,270.44,144.38 M265.97,148.83
				c0.25-0.19,0.61-0.29,0.32-0.51c-0.44-0.18-1.86,0-2.83,0c-14.55,0-29.14,0-43.24,0.13c11.39,2.68,23.46,5.49,35,8.28
				c0.72,0.19,1.95,0.56,2.39,0.5c0.71-0.05,1.71-1.62,2.22-2.04C261.97,152.96,263.9,151.09,265.97,148.83 M257.61,136.26
				c0-0.5,0.58-1.17,0.5-1.81c-0.13-0.42-1.26-1.14-1.62-1.55c-3.68-3.79-7.79-7.91-11.2-11.36c3.27,5.18,6.21,10.45,9.47,15.43
				C255.7,136.76,256.7,136.51,257.61,136.26 M258.65,163.8c-0.46-1.26-0.68-2.64-1.04-3.9c-0.77,0.25-1.19,0.96-1.56,1.44
				c-3.63,3.56-7.45,7.14-10.76,10.81C249.67,169.29,254.22,166.63,258.65,163.8"/>
			<path class="st8" d="M341.86,43.62v2.11h-3.63v17.4h-2.09V45.84c-1.19-0.11-2.46-0.11-3.67-0.11c0.06-0.72-0.09-1.54,0.06-2.11
				H341.86z"/>
			<path class="st8" d="M338.81,438.76c0.38,0.47,0.56,0.71,0.9,1.08c-3.57,3.67-7.06,7.31-10.57,11.02
				c-6.63-6.15-13.16-13.03-19.96-19.26c-0.28-0.26-1.21-1.16-1.21-1.27c0-0.14,0.83-0.74,1.3-1.33c2.91-3.17,6.31-6.54,9.22-9.63
				c0.3,0.25,0.61,0.63,1.11,0.98c0.24,0.23,0.91,0.77,0.91,0.93c0,0.27-0.81,1.07-0.91,1.18c-2.54,2.49-5.27,5.41-7.58,7.84
				c2,2.13,4.23,4.01,6.47,6.22c0.3,0.23,0.81,0.88,0.86,0.88c0.34,0.08,1.88-1.88,2.17-2.15c1.93-1.98,3.45-3.58,5.43-5.57
				c0.12-0.29,0.93-1.12,1.05-1.12c0.15,0,0.89,0.71,1.08,1.03c0.4,0.29,0.63,0.74,0.99,0.85c-2.32,2.76-4.85,5.09-7.42,7.9
				c-0.31,0.28-1.13,0.96-1.13,1.02c0,0.31,0.65,0.77,0.99,0.97c1.94,1.93,3.7,3.51,5.57,5.44c0.24,0.19,0.75,0.99,0.98,0.99
				c0.33,0.03,1.88-1.93,2.07-2.25c1.89-1.9,3.5-3.61,5.34-5.55c0.35-0.25,1.02-1.14,1.12-1.14
				C337.88,437.84,338.61,438.63,338.81,438.76"/>
			<path class="st8" d="M330.68,60.96v2.18h-7.21c0.05-6.48-0.14-13.18,0.05-19.51h6.93v2.11h-4.79v6.19
				c1.32,0.24,3.11,0.06,4.57,0.16v2.13h-4.57v6.67C327.09,61.03,328.98,60.96,330.68,60.96"/>
			<path class="st8" d="M321.09,63.14h-2.27c-0.86-2.32,0.51-7.78-1.74-8.74c-0.61-0.19-1.63,0-2.68,0c-0.21,2.76,0,5.83-0.05,8.74
				h-2.15c0.07-6.48-0.08-13.18,0.07-19.51c2.83,0.4,5.65-0.89,7.58,0.91c1.99,1.86,1.4,8.57-1.93,8.63
				C321.99,53.47,320.01,59.97,321.09,63.14 M318.33,51.34c0.79-1.14,0.79-4.11-0.08-4.96c-0.93-0.85-2.26-0.48-3.82-0.65
				c-0.04,0-0.09,0.11-0.09,0.2v6.15C315.99,51.93,317.4,52.55,318.33,51.34"/>
			<path class="st8" d="M312.69,298.95c0,3.88-1.86,6.23-4.32,7.97c-1,6.85-3.12,12.29-6.82,16.5c2.85,6.57,4.86,13.71,5.25,22.59
				c0.45,8.87-1.02,16.44-3.27,22.91c-0.2,0.39-0.52,0.9-0.52,1.1c0,0.4,0.52,1.13,0.77,1.57c1.56,3.15,3.28,6.67,4.75,10.03
				c1.64,3.97,3,8.27,3.29,13.64c0.13,8.47-2.91,14.52-8.58,17.04c-1.44,0.7-2.96,0.96-5.27,1.1c-0.41,0-1.26,0.05-1.73,0.27
				c-0.38,0.18-0.5,0.86-0.88,1.27c-1.6,2.32-5.36,4.76-9.81,3.59c-4.07-0.92-6.68-4.18-7.06-9.06c-2.24-1.5-4.35-3.03-6.25-4.83
				c-7.52,3.8-16.08,6.38-26.55,6.7c-10.44,0.44-18.98-1.87-26.15-4.9c-0.36-0.16-1.25-0.6-1.41-0.6c-0.39,0-1.4,1.19-2,1.57
				c-4.36,3.69-10.12,6.55-17.41,7.2c-2.41,0.41-4.6-0.08-6.7-0.16c-6.44-0.41-10.05-4.2-12.1-9.18c-4.17-0.9-7.73-4.05-7.7-9.24
				c0.1-5.11,3.41-8.04,7.92-9.08c1.14-4.44,2.94-8.67,4.91-12.59c0.25-0.6,0.89-1.35,0.89-1.65c0-0.6-0.84-2.22-1.11-2.88
				c-0.98-2.81-1.89-5.9-2.56-8.9c-0.93-4.39-1.12-9.21-1.12-14.06c0-9.91,2.79-17.66,5.84-24.86c-0.09-0.43-0.48-0.81-0.79-1.16
				c-3.59-4.27-6.29-9.53-6.71-17.07c-0.25-2.6-0.33-5.54,0.23-8.04c0.65-2.86,2.33-5.21,4.19-6.9c2.03-1.81,4.5-3,7.46-3.58
				c1.01-4.21,3.88-7.45,8.36-7.87c3.03-0.26,5.56,0.96,7.22,2.55c1.67,1.57,2.86,3.8,2.92,6.74c3.8,1.05,7.41,2.17,10.76,3.57
				c3.55-1.4,7.2-2.52,11.36-3.4c8.14-1.58,18.63-1.23,26.31,0.57c2.85,0.66,5.63,1.47,8.38,2.54c0.77,0.29,2.09,1.14,2.58,1.14
				c0.38,0,1.6-0.74,2.35-1.14c5.18-2.64,10.7-4.93,17.46-6.05c8.87-1.46,16.7,0.79,19.06,7.22
				C310.53,292.68,312.63,295.03,312.69,298.95 M297.04,410.1c8.54,0,11.87-6.89,11.25-15.64c-0.56-8.38-4.16-14.25-6.99-20.13
				c-5.71,12.3-14.5,21.93-25.89,28.55c1.12,1.23,2.52,2.11,3.95,3.02c1.49-3.2,4.38-5.97,9.2-5.62
				C293.65,400.59,297.04,404.63,297.04,410.1 M304.8,308.31c-5.81,0.44-10.11-3.24-10.57-8.31c-0.48-5.83,3.51-9.79,9.1-10.24
				c-2.26-2.33-5.98-3.22-10.52-3c-7.81,0.41-13.95,3.64-19.74,6.16c11.83,6.23,20.69,15.36,26.91,26.98
				C302.37,316.88,303.97,312.86,304.8,308.31 M300.81,366.14c2.26-6.78,3.16-15.69,2.34-23.97c-0.94-8.11-3.29-14.98-6.26-20.8
				c-6.14-11.93-15.54-20.79-27.51-26.6c-6.91,3.74-13.22,7.93-19.39,12.45C270.14,323.67,287.22,343.27,300.81,366.14
				 M298.57,372.41c0.21-0.71,0.72-1.72,0.67-1.99c0-0.4-0.75-1.5-1.26-2.3c-1.09-2.27-2.67-4.53-3.91-6.56
				c-12.92-20.19-28.58-37.74-46.93-52.2c-4.36,3.5-9.04,7.15-13.15,10.84c-0.23,0.2-0.65,0.55-0.59,0.68
				c1.19,0.19,3.27-0.48,3.18,1c0.7-0.05,0.92,0.47,0.85,1.28c0.18,0.07,0.38-0.03,0.38,0.07v2.8c0.29,0.08,0.52-0.09,0.52,0.08
				c-0.05,0.84,0.34,1.21,0.93,1.4v2.23c0.18,0.07,0.53-0.03,0.58,0.07v1.72h-0.58v1.42c0.08,0.48,1,0.33,0.9,0.91
				c1.53-0.05,0.79,2.09,1,3.22c1.81,0,3.86-0.39,5.51,0v0.57c3,0.94,6.73-0.07,10.09,0c-0.06,0.45,0.26,0.51,0.31,0.88h0.62
				c0,0.19-0.08,0.33,0.06,0.43c0.79-0.1,0.78,0.82,1.73,0.44c0,0.42,0.06,0.64,0.21,0.82c0.55,0.64,1.61,0.75,2.07,1.55h0.55
				c-0.04,0.51,0.16,0.66,0.44,0.92c2.09,0.07,4.31-0.42,6.3-0.03c0.14,0.09,0.13,0.35,0.23,0.52c0.24,0,0.69-0.18,0.86,0.08
				c0.15,0.35,0.15,0.74,0.3,1.12c0.05,0.17,0.4,0.01,0.64,0.17v0.48c0.85-0.19,0.98,0.5,0.85,1.34c0.21,0,0.5-0.03,0.5,0.11v1.34
				c0.19,0.19,0.49,0.45,0.93,0.51c-0.12,0.4,0.32,0.31,0.44,0.4v0.45c0.67-0.16,0.34,0.64,0.93,0.52c0.21,1.16,1.37,1.3,1.79,2.21
				c0.56,0.07,1.05,0.07,1.4,0.36c0,1.58,1.13,1.96,1.86,2.94c1.56,0.21,2.92,0.58,4.74,0.58v1.23c0.09,0.08,0.35-0.04,0.38,0.08
				v3.18c-1.58,0.43-1.97,2.09-3.75,2.3c-0.73,0.84-1.48,1.55-2.29,2.28c0.15,1.12-0.94,0.97-0.94,1.88c-0.35,0-0.45,0.24-0.76,0.24
				c-0.36,1.17-1.17,1.91-2.17,2.3c0-0.12,0.35-0.39,0.09-0.68c-0.15,0.21-0.24,0.64-0.36,0.72c-0.24,0.11-0.46,0.2-0.88,0.2
				c-0.37,0.96-2.22,0.47-2.39,1.81c-0.59,0.12-1.02,0.2-1.32,0.47v1.04h-0.48v2.17c-0.27,0-0.38,0-0.48,0.19
				c0.1,0.45-0.14,0.77-0.39,0.86v1.34c-0.65-0.23-0.25,0.61-0.99,0.37c0,0.64,0,0.94-0.2,1.21c-0.51,1.01-1.89,0.64-1.71,2.16
				c-0.48,0-0.96,0.12-1.24,0.4c0,0.45-0.12,0.84-0.27,1.26c-0.62,0.28-1.34,0.23-1.63,0.62c0.41,1.67-1.26,1.24-1.84,1.83
				c0,0.67-0.13,1.16-0.51,1.38c-1.69-0.41-1.08,1.31-1.75,1.82c-0.46,0-0.79,0.19-1.19,0.19c-0.4,0.52-0.25,1.51-0.77,1.72
				c-0.62-0.08-1.08,0.13-1.29,0.54v0.83c-0.29,0-0.44-0.06-0.51,0.03c-0.39,2.03-0.15,4.42,0.07,6.54c-0.34,0.08-0.75,0.5-1.05,0.5
				c0-0.16,0.18-0.35,0-0.42c-0.25,0.13-0.35,0.74-0.46,1.17c-0.08,0.05-0.13,0.11-0.51,0.11c0.15,0.65-0.49,0.8-0.82,1.1v6.69
				c12.2-1.83,21.48-6.26,29.35-12.68C288.55,389.16,294.69,381.42,298.57,372.41 M260.7,295.97c1.56-0.96,3.09-1.85,4.78-2.86
				c-6.34-2.39-14.33-4.35-23.04-3.92c-6.29,0.18-12.15,1.03-17.08,2.88c8.09,3.63,15.13,8.02,21.77,13.03
				C251.59,301.99,256.08,298.86,260.7,295.97 M248.5,407.86c-0.14-1.43-0.26-2.92-0.58-4.21c-0.39-0.35-1.25-0.35-2.2-0.35v-0.91
				c0.24-0.08,0.54,0.11,0.46-0.2v-1.1c-0.81-0.25-1.46-0.78-1.35-1.93c-0.18,0-0.58,0.05-0.58-0.13c-0.37-1.5,0.14-3.23,0.14-4.82
				c-0.64-0.24-1.04-0.64-0.93-1.46c-0.11-0.07-0.49,0.03-0.52-0.17v-1.66h0.52V389c0.5,0.16,0.35-0.54,0.93-0.54
				c-0.43-1.76,0.76-1.89,1.79-2.23v-1.32c0.17-0.09,0.49,0.13,0.49-0.24c0.47-2.36-0.15-4.82,0-7.31c0.17-3.71,0.86-8.05,0-11.41
				c0-0.18-0.49,0.05-0.49-0.09c0.08-1.94-1.53-2.05-2.43-2.9c-0.29-0.45-0.79-0.77-1.14-1.32c0-0.12,0.58-0.4,0.17-0.47
				c-1.54,0.25-1.87-0.67-2.45-1.43c0.18,0,0.58,0.22,0.73,0.03c-1.11,0-1.8-0.52-1.85-1.63c-0.2-0.18-0.62-0.13-0.88-0.26v-0.84
				c-0.12,0-0.45,0.08-0.52-0.09v-6.35h0.52v-3.73c0.67,0,0.48-0.53,1.01-0.49c0.35-0.43,0.35-0.82,0.5-1.27
				c0.15,0.05,0.21-0.04,0.42-0.04c-0.27-2.03,0.99-5.38-1.93-4.67c0-0.51-0.33-0.6-0.58-0.98h-0.78v-0.44
				c-0.29,0-0.7,0.11-0.94-0.1v-0.84c-0.06,0-0.39,0.08-0.47-0.08v-2.22c-1.47,0-3.11,0.43-4.54,0.13c-0.15-0.13,0.09-0.68-0.15-0.6
				h-1.25c-0.66-1-2.49-0.82-3.99-1c1.13-0.08,2.08-0.27,3.1-0.31c0.06,0,0.06-0.09-0.07-0.09c-2.5,0.13-5.84,0.77-8.22,0.09
				c-0.23-0.09,0-0.54-0.23-0.52c-11.7,11.72-22.27,24.45-30.52,39.47c4.38,9.45,10.83,17.51,19.36,23.72
				C218.76,403.65,231.39,408.98,248.5,407.86 M243.68,362.87c0.2,0,0.4,0.23,0.57,0.09C243.96,362.95,243.81,362.6,243.68,362.87
				 M237.16,313.02c2.33-1.97,4.93-3.89,7.23-5.8c-6.19-4.52-12.78-8.84-20.39-11.97c-0.61-0.32-2.62-1.43-3.34-1.43
				c-0.35,0-1.18,0.53-1.9,0.86c-13.86,6.81-24.39,17.68-30.17,32.31c-2.11,5.22-3.64,11.27-4.01,17.81
				c-0.4,8.98,0.91,17.4,3.56,23.94c7.93-13.85,17.89-25.54,28.48-36.67h-0.85c-0.08-0.19,0.11-0.54-0.15-0.54
				c-1.74,0.4-1.42-0.67-2.12-1.42h-1.43c-0.44-0.3-0.56-1.28-1.32-1.36v-0.87c-0.17,0-0.5,0.05-0.5-0.07
				c-0.03-0.49-0.31-0.83-0.45-1.02c-0.54,0.05-0.96,0.46-1.52,0.46c-0.47,0-0.88-0.41-1.3-0.08c-0.05,0.43,0.64,0.08,0.54,0.64
				c0,0.12,0.29,0,0.29,0.12v2.18c0.23,0.18,0.61,0,0.61,0.18c0,0.61,0.03,1.3,0,1.78c-0.73-0.48-2.07-0.19-2.3-1.04
				c-0.19-0.92,0.38-2.19-0.43-2.7h-0.96v-0.45c-0.85,0.05-1.53-0.07-1.37-0.92h-0.57c0-0.17,0.14-0.38,0-0.54
				c-0.55-0.23-1.54-0.21-2.41-0.21c-0.17,0.07,0.15,0.37-0.08,0.37c0-0.16-0.38-0.24-0.16-0.37h0.16
				c-0.16-0.48,0.23-0.79,0.65-1.18c-0.42-0.27-0.51-0.92-0.42-1.79c0-0.15-0.39,0.08-0.39-0.09c0-0.63,0.14-1.26,0.07-1.81
				c-1.55,0.04-3.05,0.55-4.42,0.04c0.64-0.74,1.47-1.54,2.27-2.09h2.24c0.08-1.46,0.23-2.86,0.23-4.28c0.2-0.16,0.47,0,0.58-0.16
				c0.14-1.31-0.46-2.51-0.11-3.66c0.17,0,0.42,0.09,0.49-0.09c0.08-1,1.3-0.9,1.43-1.75h1.29c0.17,0-0.05-0.52,0.17-0.52h1.64
				c0.17,0,0-0.28,0.17-0.37h3.11c0,0.21,0,0.37,0,0.37h1.44c0,0.2-0.17,0.55,0.12,0.52H213c0,0.13-0.03,0.37,0.1,0.45h2.56
				c0.61,1.39,2.79,0.96,4.26,1.3c0.09,0.19,0.09,0.31,0.09,0.58c1.32-0.28,1.11,0.93,1.69,1.35c0.61,0,1.13,0.13,1.43,0.51
				c-0.3,1.31,1.56,0.7,1.85,1.47v1.35h1.35c0.18-0.61,0.18-1.19,1.01-1c0.06-0.19-0.03-0.35,0.06-0.35c0.41,0,0.75-0.16,0.86-0.53
				c0.97,0,1.64-0.25,1.87-0.94C232.45,313.37,234.75,313.15,237.16,313.02 M233.34,316.22h-2.72c-0.09,0.15,0,0.52-0.09,0.52h-1.34
				c-0.51,0.77-1.37,1.08-2.33,1.32c0.05,0.71-0.57,0.54-0.52,0.98c-0.56,0-1.02,0.17-1.35,0.4c-0.09,0.75,0,1.62-0.98,1.43
				c-0.58,0.45-0.37,1.42-0.46,2.29c0.46-0.03,0.58,0.25,0.58,0.51c0.49-0.11,0.44,0.25,0.63,0.44
				C227.53,321.37,230.52,318.94,233.34,316.22 M231.74,322.15c0.38,0,0.67-0.28,0.54-0.38
				C232.12,321.88,231.91,321.99,231.74,322.15 M229.62,324.15c0.61,0,1.08-0.34,0.9-0.84C230.3,323.76,229.86,323.82,229.62,324.15
				 M229.18,325.93c-0.03-0.38,0.05-1.02-0.03-1.26c-0.71,0.74-1.63,1.22-2.17,2.25c0-0.14-0.09-0.22-0.14-0.14
				c0.14,0.19,0.25,0.41,0.46,0.65c0.51,0,0.99-0.12,1.36-0.46v-0.95C228.8,326.02,229.07,326.02,229.18,325.93 M206.49,409.29
				c3.24-1.33,6.16-3.1,8.19-5.11c-11.9-6.3-20.74-15.65-26.95-27.6c-1.64,3.27-3.03,6.69-4.18,10.48c3.94,1.06,6.99,3.97,7.36,8.56
				c0.19,4.98-2.98,8.3-7.29,9.46c1.33,2.78,3.15,4.79,6.08,5.55c1.06,0.28,2.06,0.28,3.41,0.39c0.7,0.08,1.37,0.31,2.08,0.32
				C199.57,411.68,203.19,410.53,206.49,409.29 M216.28,292.07c-2.28-0.69-4.58-1.56-6.98-2.15c-1.36,3.34-4.29,6.04-8.77,6.04
				c-4.65-0.08-7.95-3.18-8.89-7.28c-0.12,0-0.12-0.09-0.13-0.09c-4.07,1.08-7.64,3.86-8.48,7.78c-0.38,1.68-0.38,3.41-0.38,5.1
				c0,7.05,2.55,13.36,6.08,16.98C195.19,306.92,204.41,298.23,216.28,292.07 M207.68,321.5c0-1.19,0.08-2.46-0.16-3.44
				c-0.21,0-0.54,0.19-0.54,0v-2.82c-0.19-0.4-1.02-0.4-1.78-0.24v1.22h-0.47v2.38c0.17,0.07,0.44-0.15,0.47,0.07v1.83
				C206.02,320.74,206.79,321.26,207.68,321.5 M207.06,325.81c0.07-0.19,0.07-0.29,0.07-0.51c-0.2,0.11-0.51,0.11-0.64,0.25
				C206.79,325.52,206.98,325.56,207.06,325.81 M206.49,324.27c0.3,0,0.3,0.11,0.57,0.11c-0.08-0.23-0.38-0.23-0.57-0.33V324.27z"/>
			<path class="st8" d="M309.67,60.96v2.18h-7.16c0.08-6.48-0.03-13.18,0.08-19.51h6.95v2.11h-4.86v6.19
				c1.39,0.24,3.07,0.06,4.61,0.16v2.13h-4.61v6.67C306.16,61.03,308.04,60.96,309.67,60.96"/>
			<path class="st8" d="M302.8,473.13c-0.93,0.53-1.64,1.16-2.48,1.66c-2-2.98-4.21-5.82-6.25-8.81c-6.2-3.06-12.24-6.43-18.56-9.43
				c0.79-0.83,1.75-1.35,2.66-2.03c5.05,2.68,10,5.33,15.13,7.95c-0.78-4.37-1.73-9.74-2.56-14.57c-0.05-0.64-0.43-1.75-0.29-2.11
				c0.09-0.48,2.17-1.5,2.5-1.93c0.03-0.01,0.03,0,0.03,0c1.08,5.57,1.91,11.99,2.87,17.89c0.17,0.82,0.17,1.85,0.38,2.51
				c0.31,0.76,1.12,1.44,1.72,2.26C299.56,468.73,301.08,471.01,302.8,473.13"/>
			<path class="st8" d="M299.61,53.1c0,4.32,0.51,8.67-2.25,9.92c-2.23,0.94-4.99,0.13-5.89-1.46c-0.35-0.68-0.59-1.59-0.65-2.31
				c-0.37-4.76,0.29-10.7,0-15.52c0-0.05,0-0.11,0.06-0.11h2.07v9.42c0,2.82-0.58,7.36,1.36,7.99c0.41,0.23,1.21,0.31,1.79,0
				c1.87-0.63,1.34-5.17,1.34-8.11v-9.3h2.16V53.1z"/>
			<path class="st8" d="M288.88,60.89v2.25c-3.06-0.25-6.82,1.24-8.55-0.51c-1.57-1.45-1.35-5.62-1.35-8.74
				c0-4.98-0.49-10.26,4.24-10.45c5.29-0.27,4.65,4.74,4.65,10.03c0,3.19,0.06,6.04-1.09,7.49
				C287.41,60.89,288.25,60.89,288.88,60.89 M285.7,55.22c0-2.44,0.22-4.09,0-6.9c-0.15-1.81-0.99-2.97-2.77-2.59
				c-1.59,0.22-1.79,2.05-1.79,3.99v4.01c0,2.54-0.4,6.3,0.92,7.15c0.76,0.57,2.05,0.45,2.56,0.07
				C285.82,60.4,285.7,57.74,285.7,55.22"/>
			<path class="st8" d="M271.47,60.96v2.18h-7.08c0-6.48-0.13-13.18,0.05-19.51h6.96v2.11h-4.92v6.19c1.4,0.24,3.12,0.06,4.61,0.16
				v2.13h-4.61v6.67C268.01,61.03,269.81,60.96,271.47,60.96"/>
			<path class="st8" d="M262.76,474.79c2.33,2.69,4.21,6.87,3.7,11.61c-0.93,9.37-9.18,11.19-15.74,15.22
				c-4.54-8.62-9.35-17.15-14.14-25.71c2.22-1.38,4.47-2.48,6.77-3.8c2.61-1.51,5.35-3.14,9.46-2.77
				C257.29,469.69,260.6,472.11,262.76,474.79 M263.63,486.21c0.32-3.96-1.65-7.55-3.33-9.71c-1.86-2.21-4.67-4.45-8.65-4.45
				c-2.17,0-4.4,1.08-6.15,2.13c-1.75,0.87-3.41,1.89-5.09,2.86c2.94,5.22,5.94,10.41,8.77,15.55c0.93,1.8,1.87,3.58,2.95,5.11
				C256.84,494.79,263.16,493.12,263.63,486.21"/>
			<path class="st8" d="M260.25,44.77c1.72,1.74,1.37,6.02,1.37,9.28c0,3.56,0.14,7.52-1.92,8.84c-1.83,0.88-4.65,0.01-6.98,0.25
				v-19.4c0-0.05,0-0.11,0.04-0.11C255.7,43.68,258.65,43.24,260.25,44.77 M259.49,53.04c0-2.71,0.23-5.82-0.94-6.82
				c-0.79-0.49-2.38-0.49-3.64-0.49c-0.19,0-0.19,0.11-0.19,0.2v14.95c1.23,0,2.58,0.28,3.51-0.14
				C259.83,59.92,259.49,55.9,259.49,53.04"/>
			<path class="st8" d="M253.93,399.17c0.13,0.21-0.18,0.21-0.26,0.21C253.75,399.2,253.9,399.17,253.93,399.17"/>
			<path class="st8" d="M245.29,63.14h-2.35c-0.2-1.46-0.49-2.91-0.73-4.34h-4.01c-0.51,1.34-0.6,2.9-1,4.34h-1.97
				c1.23-6.48,2.27-13.18,3.66-19.51h2.79C242.82,50.15,243.96,56.66,245.29,63.14 M238.4,56.6h3.49c-0.52-3.56-1.1-7.07-1.85-10.52
				C239.69,49.67,239,53.04,238.4,56.6"/>
			<path class="st8" d="M243.81,363.1c0.07,0.11,0.15,0.21,0.07,0.35C243.89,363.2,243.81,363.2,243.81,363.1"/>
			<path class="st8" d="M243.75,362.95c0,0.07,0.06,0.07,0.06,0.14C243.75,363.03,243.75,363.03,243.75,362.95"/>
			<path class="st8" d="M240.26,506.02c-1,0.22-1.93,0.29-2.97,0.38c-1.72-2.69-3.11-5.73-4.87-8.65
				c-4.34,0.65-8.63,1.33-12.86,1.96c-0.93,3.07-1.43,6.4-2.25,9.59c-1.03,0.11-2.07,0.26-2.96,0.37
				c2.27-10.19,4.69-20.43,7.13-30.74c1.14-0.13,2.3-0.27,3.29-0.45C230.13,487.5,235.15,496.83,240.26,506.02 M220.14,496.83
				c3.62-0.4,7.38-0.9,10.88-1.4c-2.48-4.74-4.9-9.4-7.6-13.91C222.3,486.65,221.19,491.79,220.14,496.83"/>
			<path class="st8" d="M232.77,43.62v19.51h-1.89v-16.8c-1.16,5.58-2.13,11.31-3.22,16.8h-2.17c-0.96-5.63-2.1-11.05-3.12-16.75
				c-0.12,5.39-0.06,11.26-0.06,16.75h-1.99c0-6.48-0.09-13.18,0-19.51h3.47c0.96,5.16,1.85,10.42,2.83,15.69
				c0.94-5.26,1.84-10.52,2.81-15.69H232.77z"/>
			<path class="st8" d="M216.28,44.68c1.53,1.71,1.18,5.78,1.18,9.06c0,3.69,0.29,7.72-1.8,9.15c-1.32,0.88-4.19,0.88-5.72-0.27
				c-1.53-1.45-1.42-5.86-1.42-9.2c0-5.1-0.49-9.86,4.34-9.99C213.89,43.43,215.49,43.68,216.28,44.68 M215.28,58.39
				c0.21-1.73,0-4.43,0-6.61c0-1.57,0.21-4.93-0.73-5.84c-0.48-0.41-1.58-0.41-2.01-0.2c-1.3,0.17-1.78,1.4-1.8,2.66
				c-0.17,1.38,0,4.26,0,6.7c0,1.88-0.09,5.08,0.88,5.79c0.49,0.28,1.61,0.54,2.27,0.14C214.58,60.82,215.19,59.71,215.28,58.39"/>
			<path class="st8" d="M203.9,485.27c3.62,2.81,6.04,8.19,4.75,14.57c-1.03,5.51-4.24,9.36-8.89,11.14
				c-5.39,1.99-11.42-0.54-17.09-1.33c1.84-9.63,3.74-19.06,5.68-28.73c0-0.1,0-0.15,0.09-0.15
				C193.86,482.2,199.93,482.31,203.9,485.27 M205.19,501.13c1.43-4.86,0.76-10.18-2.44-13.12c-2.74-2.62-7.64-2.97-12.14-3.97
				c-1.6,7.75-3.16,15.67-4.54,23.57c3.52,0.48,6.39,1.6,9.9,1.32C200.95,508.62,203.9,505.17,205.19,501.13"/>
			<path class="st8" d="M205.69,43.62v19.51h-3.34c-1.35-5.49-2.78-10.97-3.89-16.57c-0.13,5.37,0,11.11-0.06,16.57h-2.08v-19.4
				c0-0.05,0-0.11,0.1-0.11h3.29c1.28,5.55,2.65,11.15,4.02,16.88c0.13-5.5,0-11.36,0.03-16.88H205.69z"/>
			<path class="st8" d="M196.48,154.07c0.19,3.38,0.47,7.08,0.68,10.64c-1.37,0.24-3.08,0-4.58-0.04c-1.07,2.46-2.04,5.2-3.12,7.63
				c-0.71,0-1.46,0.06-2.01-0.06c-0.82-4.41-1.79-8.98-2.62-13.37c-9.39-1.21-19.01-2.29-28.38-3.43c-0.48,2.36-0.82,4.94-1.21,7.54
				c-0.34,2.61-0.62,5.28-1.13,7.57c-0.14,0.54-0.6,1.19-0.35,1.69c0.34,0.44,3.33,0.69,4.01,0.82c3.09,0.45,5.45,0.93,8.44,1.32
				c1.37,0.25,3,0.28,4.05,0.76c1.7,0.48,3.12,2.04,4.09,3.41c0.31,0.52,0.8,1.14,0.96,1.63c0.13,0.76,0,2.03,0,3.17
				c0,7.4-0.15,15.41-0.15,22.44c0,5.01,0.05,8.14,2.13,10.83c0.8,1.33,1.98,2.42,3.68,2.82c1.55,0.34,3.25,0.56,5.26,1.09
				c0.31,0.99,0.69,1.91,0.99,2.98c0.23,1.07,0.38,2.62-0.44,3.06c-1.05,0.58-3.4,0.07-4.81,0.07H166.6c-0.88-1.45-0.51-3.32,0-4.75
				c0.17-0.44,0.54-0.88,0.56-1.36c0.41-1.39,0.25-3.24,0.17-4.88c0-0.79-0.15-1.47-0.2-2.24c-0.07-0.81-0.07-1.56-0.37-2.26
				c-0.17-0.66-0.81-1.42-1.23-2.18c-2.81-4.64-6.13-10.69-4.11-18.56c-6.42,1.57-12.73,3.16-19.18,4.58
				c-1.38,4.17-2.71,8.34-3.88,12.55c1.83-0.39,4.06,0.59,5.98,1.27c1.54,0.62,3.13,1.28,4.66,1.74c2.38,0.77,5.91,0.51,8.71,0.24
				c1.05-0.16,2.44-0.41,2.89-0.11c0.26,0.13,0.26,0.51,0.41,0.86c0.19,0.32,0.41,0.54,0.51,0.84c0.35,1.03,0.24,2.27,0.35,3.52
				c0.1,0.8,0.71,1.77,1.13,2.72c1.11,2.44,2.33,5.55,2.08,9.39c-0.11,2.54-1.37,4.63-2.91,6.2c-0.4,0.39-1.27,1.21-1.75,1.3
				c-1.78,0.43-3.33-0.47-5.02,0.24c-0.33,1.28-0.61,2.7-0.9,4.01h-4.28c-1.38,0-2.98-0.25-4.35,0c-0.71,0.19-2.21,1.87-2.7,2.33
				c-1.02,0.83-1.72,1.68-2.61,2.46c-1.8-1.52-3.44-3.18-5.13-4.87c-2.49,0.51-5.04,0.78-7.51,1.21c-0.12-2.68-0.15-5.38-0.12-8.25
				c-1.34-0.73-2.84-1.24-4.4-1.86c-0.24-0.45-0.48-0.88-0.78-1.2c0.65-1.39,1.41-2.68,2.1-4.1c-1.06-0.04-2.07-0.13-3.24-0.04
				c-3.24-4.59-6.26-9.35-9.48-14.09c0.48-0.72,1.25-1.34,1.98-2.12c0.62-0.8,1.37-1.48,2.09-2.15c-0.64-1.9-1.15-3.85-1.66-5.81
				c1.78-1.47,3.83-2.63,5.68-4c0.44-6.93,1.11-14.3,1.8-21.51c0.05-0.99,0.38-2.21,0.17-2.97c0-0.57-0.77-1.25-1.05-1.87
				c-1.02-1.87-1.84-3.73-2.04-6.44c-0.28-4.41,0.21-9.85,1.13-13.52c0.27-1.29,0.57-2.68,1.11-3.67c0.34-0.77,1.17-1.28,1.84-1.93
				c0.64-0.44,1.37-1.02,2.41-1.18c-0.31-1.53,0-3.01-1.04-3.79c-0.78-0.78-2.34-0.73-3.4-1.28c-0.78-0.46-1.52-1.56-1.52-2.51
				c0-1.01,1.34-2.45,1.76-3.16c0.82-1.06,1.39-1.84,2.04-2.9c-0.12-1.81,0.19-3.5,0-5.29v-0.27c-0.79-3.29-1.01-6.77,0.13-9.89
				c-4.82,1.38-8.46-1.24-10.54-3.83c-2.35,1.15-5.14,1.74-7.6,0.69c-1.49-0.52-2.68-1.73-3.78-3c-0.3-0.46-0.72-0.97-1.11-1.13
				c-0.31-0.41-1.01-0.6-1.47-0.88c-2.84-1.45-6.24-3.06-8.4-5.27c-0.33-0.44-0.71-0.96-1.13-1.17c-0.43-0.3-1.43-0.44-2.25-0.6
				c-1.8-0.61-2.81-0.94-4.9-1.02c-1.01-0.11-2.06-0.18-2.33-0.59c-0.41-0.65-0.07-1.45,0.06-2.14c6.95-1.85,16.13-0.81,22.26,1.16
				c1.12-3.38,2.56-6.17,5.96-6.93c3.73-1.01,7.6,0.87,10.17,2.42c3.92,2.33,7.47,5.65,10.31,9.23c0.91,1.27,2.02,2.52,2.14,4.29
				c2.05-1.11,4.2-2.38,6.34-3.48c0.72-0.3,1.77-0.57,2.27-1c0.52-0.51,1.25-2.41,1.8-3.07c1.68-3.19,3.72-5.69,6.04-8.02
				c3.11-3.11,7.09-5.8,12.8-6.34c12.2-1.13,14.54,13.41,11.37,24.38c9.95,1.85,16.93,7.15,20.44,15.57
				c1.72,4.27,2.63,10.14,1.33,15.29c-1.06,4.8-3.59,8.48-6.84,11.11C189.7,151.91,193.18,152.91,196.48,154.07 M196.24,161.87
				c0.09-0.32-0.26-1.01-0.4-1.51c-0.3-1.8-0.56-3.7-0.94-5.17c-12.26-3.59-24.54-7.05-36.84-10.54c-1.21,2.1-3.05,4.39-4.7,6.22
				c-0.9,1.12-1.52,2.28-3.25,2.28c-1.17,1.14-1.02,3.52-1.68,5.14H155c0.31-1.36,0.63-4.69,2.06-5.01c0.4-0.07,1.17,0.28,1.81,0.32
				c9.39,1.31,19.22,2.57,27.95,3.76c0.91,3.81,1.65,7.61,2.68,11.26c0.96-2.22,1.66-4.55,2.56-6.74c0.91-0.07,2.52,0.82,3.29,0.73
				C195.59,162.6,196.14,162.16,196.24,161.87 M192.26,138.09c1.19-6.11-0.56-11.95-3.08-15.97c-4.78-7.86-14.16-13.59-26.82-12.92
				c-1.63,0.05-3,0.27-4.64,0.46c-0.11,1.09-0.25,1.95-0.43,3c10.29,1.08,19.21,4.29,24.52,10.58c2.7,3.22,4.6,7.57,3.92,13.33
				c-0.6,5.35-2.95,8.78-5.08,12.46c1.35,0.22,2.59,0.67,3.86,1.1C188.14,147.11,191.1,143.33,192.26,138.09 M182.67,224.78
				c1.73,0,3.67,0.29,3.67-1.25c0-1.24-1.64-1.07-3.24-1.07h-8.75c-1.3,0-3.47-0.27-4.47,0c-0.54,0.23-0.9,0.63-0.77,1.31
				c0.23,1.3,2.26,1.01,3.94,1.01H182.67z M179.19,221.03c-1.52-2.39-3.42-3.82-4.28-6.96c-0.97-2.9-0.62-6.69-0.62-10.72
				c0-5.61-0.15-11.34-0.15-16.91c0-1.92,0.22-4.23-0.19-5.68c-0.47-1.84-2.16-2.84-3.68-3.88c-3.59-0.32-7.03-0.77-10.66-1.15
				c-1.17,1.27-2.32,2.76-3.49,4.14c-0.38,0.42-0.86,1.23-1.2,1.33c-0.57,0.16-1.39,0.16-2.09,0.16c-1.32,0.18-2.46,0.41-3.82,0.34
				c-1.02,1.49-1.76,3.4-2.95,4.9c-2.88-0.07-5.63-0.16-8.43-0.16c-0.92,1.68-1.71,3.43-2.46,5.07c-1.56-0.34-2.95-0.76-4.43-1.11
				c-0.38,0.93-0.83,1.88-1.17,2.8c-2,1.31-3.75,2.51-5.84,3.82c-0.56,0.34-1.67,0.88-1.79,1.28c-0.13,0.36-0.05,0.99-0.05,1.51
				c-0.4,3.54-0.6,7.22-0.75,10.58c-0.32,3.54-1.3,9.2,1.35,10.87c1.14,0.73,2.85,0.19,4.31,0.12c2.77-0.39,5.55-0.82,8.37-1.05
				c6.58-0.75,16.23-2.77,21.42,0.66c1.02,0.7,2.18,1.94,2.96,3.18c0.79,1.02,1.98,3.41,2.81,3.31c0.5,0,1.06-0.91,1.06-1.5
				c0.2-1.05-0.2-2.21-0.69-2.87c-2.48-3.45-9.91-3.66-9.5-9.81c-5.56-0.27-8.93-3.2-14.26-3.93c-0.61-0.12-1.54,0.07-2-0.55
				c-0.27-1.45,0.37-2.69,0.78-3.94c1.11-3.86,2.17-7.52,3.45-11.29c6.27-1.58,12.91-3.19,19.4-4.73c0.92-0.14,2.01-0.74,2.71-0.52
				c0.8,0.21,1.31,1.16,1.31,1.91c0,0.3-0.29,0.69-0.34,1.2c-0.17,0.34-0.26,0.86-0.43,1.14c-1.42,6.29,1.12,11.49,3.56,15
				c0.48,0.69,1.15,1.35,1.38,2.01c0.54,1.56,0.54,3.58,0.71,5.43c0.17,1.92,0.21,3.88,0,5.83
				C172.74,220.93,175.96,221.03,179.19,221.03 M172.01,146.44c1.57-2.88,3.07-5.92,3.07-10.18c0-5.71-2.84-9.92-6.28-12.71
				c-3.56-2.95-8.3-4.68-13.73-5.29c-0.77,0.92-1.3,2.55-1.97,3.53c4.52,1.46,8.52,3.82,11.02,7.48c2.36,3.63,3.3,9.58,2.17,15.44
				C168.13,145.25,170.07,145.86,172.01,146.44 M161.53,219.01c-0.1-0.92-0.92-1.17-1.35-2.29c-0.33-0.99,0-2.24-0.42-3.21
				c-0.41-1-3.02-1.5-4.02-0.48C155.55,216.76,158.7,217.86,161.53,219.01 M160.04,107.57c0.82-3.96,0.38-9.48-3.66-9.13
				c-2.73,0.15-4.23,2.38-5.19,4.31c2.57,0.85,5.06,1.85,5.54,4.92C157.86,107.62,159.08,107.76,160.04,107.57 M156.11,141.69
				c0.14-6.35-1.81-10.63-5.72-12.92c-0.47,0.64-1.17,1.39-1.51,2.2c1.48,2.51,2.36,5.51,2.62,9.13
				C153.01,140.64,154.5,141.14,156.11,141.69 M151.24,113.27c2.44,0.22,3.76-1.51,3.53-3.77c-0.39-2.63-2.77-4.25-4.86-5.11
				c0-0.15,0-0.15-0.04-0.15c-0.4,0.86-0.93,1.43-1.33,2.23c0.9,0.51,1.81,1.1,2.65,1.79c0.65,0.73,1.63,1.63,1.12,2.82
				c-2.2,0.19-3.31-1.45-4.88-2.27c-0.19,0.57-0.32,1.22-0.73,1.76C147.92,111.62,149.23,113.1,151.24,113.27 M153.65,161.8h-5.98
				c-0.88,1.42-1.41,3.09-2.09,4.84c2.09,0.13,4.13,0.03,6.2,0.18C152.82,165.65,153.36,163.85,153.65,161.8 M150.55,149.89
				c1.76-1.7,3.83-3.15,4.85-5.65c-1.48-1.34-3.76-2.19-6.45-2.45c-0.61,0.6-1.83,1.39-2.51,2.22c-0.29,0.73-0.49,1.51-0.85,2.31
				c-0.32,0.68-0.66,1.34-0.96,2.01c-2.01,3.43-3.97,6.48-5.86,10.04c-0.31,0.67-0.93,1.75-1.64,1.53c-0.88-0.3-0.07-2.76-0.07-3.3
				c0.07-3.98-2.74-6.7-5.89-7.27c-0.96-0.21-1.8-0.21-2.52-0.46c-1.41-0.54-2.16-1.74-3.83-2.3c-2.03,2.82-3.11,6.64-3.29,11.56
				c1.39,0.44,4.28-0.44,5.26,0.28c0.38,0.33,0.69,1.57,0.86,2.11c1.59,3.72,3.62,6.56,6.3,8.75c1.11,0.9,2.24,1.86,3.67,2.44
				c0.23,0.15,0.74,0.29,1.15,0.45c3.41,0.38,4.12-2.35,4.9-4.85c1.14-3.6,1.91-6.9,2.76-10.49
				C147.24,153.75,147.73,150.65,150.55,149.89 M150.89,173.4c0.35-0.19,0.95-0.59,0.95-1.55c-2.4,0.11-5.14-0.16-7.22,0.13
				c-0.32,0.26-0.65,0.61-0.89,0.95c-0.15,0.27-0.56,0.57-0.52,0.69C145.7,173.63,148.33,173.51,150.89,173.4 M142.62,120.21
				c2.65,1.45,8.03,1.52,7.39-2.6c-0.3-2.49-2.77-3.78-5.28-4.13c-0.28,0.53-0.4,1.34-0.76,2.03c0.94,0.22,1.6,0.55,2.45,1.01
				c0.47,0.43,1.9,1.17,1.54,1.81c-0.25,0.67-1.83,0.37-2.55,0.19c-0.97-0.31-1.5-0.7-2.25-0.9
				C142.99,118.52,142.76,119.28,142.62,120.21 M145.65,141.06c0.97-1.04,2.33-1.62,4.36-1.53c-0.14-3.58-1.31-6.17-2.77-8.46
				c-2.62,0-5.07-0.31-6.59-1.54c0-0.12-0.06-0.03-0.09,0C140.08,135.31,142.42,138.76,145.65,141.06 M148.43,126.73
				c0-2.83-2.38-4.19-5.77-4.02c-0.04,0-0.04,0.07-0.17,0.15c-0.25,0.69-0.51,1.26-0.67,2.06c1.39,0.07,2.91,0.25,3.82,0.92
				c0.84,0.62,1.59,1.76,0,1.96c-1.37,0.26-2.99-0.57-4.16-0.76c-0.03,0.69-0.22,1.34-0.29,2.12
				C143.93,130.81,148.43,130.34,148.43,126.73 M138.86,153.14c2.6-2.75,4.52-6.15,5.6-10.54c-4.25-2.17-7.33-8.66-5.06-15
				c-1.04-0.44-2.27-0.94-3.52-1.55c-1.07-0.51-2.62-1.31-3.79-1.31c-0.93,0.13-1.95,0.29-3.01,0.43c-1.03,0-2.07,0.13-3.33,0.13
				c0,1.86,0.13,3.81,0.13,5.71c-0.69,1.22-1.97,2.97-2.86,4.39c-0.37,0.37-0.88,1.28-0.88,1.61c0.12,1.3,3.29,1.37,4.58,1.37
				c0,1.16,0.35,2.27,0.57,3.48c0.29,1.11,0.47,2.36,0.82,3.14c0.3,0.4,1.26,1.56,1.61,1.82c1.54,1.11,4.14,0.69,6.52,0.51
				c0,0.81-0.06,1.38-0.06,2.26C137.4,150.42,138.36,151.59,138.86,153.14 M135.16,173.57c-0.22-0.33-0.75-0.51-1.22-0.88
				c-0.35-0.23-0.81-0.73-1.32-0.85c-1.12-0.27-2.61,0-3.98,0h-4.03c-0.31,0.3-0.38,0.68-0.32,1.1c0.28,0.9,1.4,0.63,2.19,0.63
				C129.23,173.57,132.94,173.63,135.16,173.57 M129.23,107.76c0.03,0.11,0.14,0.45,0.51,0.27c-1.1-4.34-3.94-7.27-7.13-10.03
				c-3.03-2.53-6.52-5.15-11.79-5.35c-2.06-0.09-3.55,1.1-4.57,2.15c-1.02,1.07-2.01,2.51-2.01,4.37c0,3.96,3.47,6.96,7.43,6.6
				c3.03-0.23,4.63-2.42,6.55-4.36C123.13,102.28,125.94,105.26,129.23,107.76 M122.55,167.61h6.34c-1.25-1.91-2.18-3.95-3.09-6.19
				h-3.88c-0.13,0.08-0.13,0.13-0.13,0.26C121.7,163.85,121.19,166.58,122.55,167.61 M119.15,105.54c2.03,1.87,5.66,3.97,8.8,2.9
				c-2.69-2.43-5.4-4.62-9.28-5.68C116.99,103.28,118.13,104.61,119.15,105.54"/>
			<path class="st8" d="M193.45,50.94c0,4.16,0.78,10.52-1.92,12.03c-1.65,0.84-4.61,0.62-5.7-0.64c-1.33-1.37-1.26-5.43-1.26-8.59
				c0-5.34-0.5-10.19,4.38-10.3c0.93,0,2.43,0.19,3.18,0.92C193.45,45.74,193.45,48.17,193.45,50.94 M191.4,57.67
				c0.13-2.73,0-5.51,0-8.39c-0.02-2.43-0.46-4.04-2.79-3.55c-1.6,0.17-1.84,1.89-1.84,3.44c-0.06,1.28,0,2.75,0,4.25
				c0,2.44-0.37,6.42,0.85,7.39c0.72,0.61,2.25,0.35,2.83,0C191.1,60.4,191.38,58.88,191.4,57.67"/>
			<path class="st8" d="M182.38,43.62v2.11h-3.58v17.4h-2.16V45.84c-1.04-0.11-2.35,0-3.52-0.11c0.09-0.72-0.21-1.54,0.09-2.11
				H182.38z"/>
			<path class="st8" d="M170.36,473.68c4.12,1.92,8.61,3.79,8.52,9.77c0,2.94-1.25,5.39-2.92,6.98c-1.67,1.6-4.93,3.06-7.89,1.9
				c0.5,4.43,1.22,8.86,1.79,13.36c-1.11-0.4-2.22-0.86-3.23-1.34c-0.53-5.67-1.4-11.04-2.19-16.44c1.77,0.43,2.97,1.54,4.9,1.69
				c4.03,0.3,6.82-2.86,6.6-6.85c-0.5-5.14-6.23-5.73-9.79-7.78c-3.72,8.03-7.29,16.21-10.91,24.27c-0.87-0.38-1.71-0.76-2.53-1.14
				c3.92-8.98,7.89-17.97,11.98-26.93C166.6,472.04,168.41,472.93,170.36,473.68"/>
			<path class="st8" d="M170.8,52.89c0,4.09,0.43,8.37-1.89,10c-1.49,0.88-4.21,0.74-5.59-0.43c-1.7-1.57-1.34-5.39-1.34-8.66V43.73
				c0-0.05,0-0.11,0.09-0.11h2.11v9.48c0,3.18-0.9,9.14,2.97,8c2.2-0.51,1.42-5.2,1.42-8v-9.48h2.24V52.89z"/>
			<path class="st8" d="M159.6,63.14h-2.25c-0.16-1.46-0.5-2.74-0.71-4.34c-1.28-0.12-2.66,0-4.18,0c-0.31,1.34-0.5,2.9-0.83,4.34
				h-1.92c1.18-6.48,2.24-13.18,3.56-19.51h2.84C157.28,50.15,158.43,56.66,159.6,63.14 M152.82,56.6h3.48
				c-0.57-3.56-1.16-7.07-1.8-10.52C153.98,49.67,153.36,53.04,152.82,56.6"/>
			<path class="st8" d="M155.06,468.03c-0.46,0.83-0.96,1.66-1.52,2.45c-3.53-2.1-6.92-4.34-10.37-6.46
				c-1.97,2.73-3.77,5.74-5.56,8.66c3.44,2.19,7.01,4.36,10.41,6.55c-0.35,0.9-1.1,1.56-1.53,2.52c-3.43-2.13-6.96-4.36-10.44-6.57
				c-1.95,2.84-3.72,5.99-5.66,8.82c3.47,2.3,7.04,4.34,10.49,6.62c-0.4,0.84-0.95,1.6-1.47,2.4c-4.34-2.67-8.61-5.46-12.91-8.04
				c5.16-8.39,10.4-16.66,15.6-24.96C146.43,462.57,150.73,465.39,155.06,468.03"/>
			<path class="st8" d="M142.42,48.32c0.07,2.44,0,5.41,0,8.28c0,2.9-0.44,5.3-2.07,6.28c-1.73,0.88-4.55,0.08-6.9,0.25v-19.4
				c0-0.05,0-0.11,0.06-0.11c3.47,0,6.41-0.38,7.95,1.63C141.9,45.91,142.24,47.26,142.42,48.32 M140.32,53.47
				c0-2.3,0.33-5.97-0.79-7.08c-0.77-0.8-2.47-0.54-3.83-0.65c-0.08,0-0.06,0.17-0.06,0.2v15.02c1.23,0,2.96,0.21,3.75-0.37
				C140.59,59.56,140.32,56.16,140.32,53.47"/>
			<path class="st8" d="M131.16,63.14h-2.28c-0.24-1.46-0.51-2.74-0.78-4.34c-1.25-0.12-2.78,0-4.08,0
				c-0.42,1.34-0.57,2.9-0.88,4.34h-1.97c1.07-6.48,2.21-13.18,3.53-19.51h2.83C128.75,50.15,129.9,56.66,131.16,63.14 M124.3,56.6
				h3.47c-0.6-3.56-1.08-7.07-1.82-10.52C125.45,49.67,124.81,53.04,124.3,56.6"/>
			<path class="st8" d="M130.39,454.52c0.88,0.46,1.71,1.01,2.45,1.62c-8.53,6.09-17.07,12.09-25.6,18.15
				c-0.68-0.34-1.26-0.77-1.87-1.23c2.36-10.31,4.71-20.44,7.12-30.65c0.85,0.5,1.72,1,2.43,1.63c-1.98,8.7-4.14,17.38-6.22,25.86
				C115.83,465.09,123.15,459.55,130.39,454.52"/>
			<path class="st8" d="M130.21,130.39c0.96,0.28,1.19,2.51-0.06,2.68c-0.78,0.14-1.5-0.16-1.5-1.43c0.1-0.57,0.25-0.97,0.91-1.09
				C129.86,130.39,130.02,130.39,130.21,130.39"/>
			<path class="st8" d="M117.5,44.77c1.86,1.74,1.39,6.02,1.39,9.28c0,3.56,0.26,7.56-1.91,8.84c-1.77,0.88-4.65,0.01-7,0.25v-19.4
				c0-0.05,0-0.11,0.05-0.11C113.09,43.68,116.06,43.24,117.5,44.77 M116.81,53.74c0-2.57,0.38-6.48-0.97-7.51
				c-0.77-0.64-2.36-0.38-3.63-0.49c-0.09,0-0.13,0.11-0.13,0.2v14.95c1.02,0.07,2.67,0.28,3.56-0.14
				C117.19,59.92,116.81,56.49,116.81,53.74"/>
			<path class="st8" d="M116.99,186.45c0.31,6.95-2.34,12.21-5.92,15.93c-3.38,3.66-8.24,6.61-14.72,6.8
				c-7.1,0.38-12.1-2.21-15.98-5.71c-3.79-3.4-6.58-8.04-7.02-14.74c-0.4-6.79,2.5-12.29,5.73-15.79c3.55-3.79,8.04-6.44,14.85-6.84
				c7.1-0.45,12.42,2.38,16.07,5.65C113.58,175.11,116.73,179.84,116.99,186.45"/>
			<path class="st8" d="M106.88,43.62v19.51h-1.99v-19.4c0-0.05,0-0.11,0.06-0.11H106.88z"/>
			<path class="st8" d="M98.16,43.4c3.49-0.12,4.4,2.03,4.17,5.78h-2.17c0.55-2.28-1.08-4.73-3.22-3.27
				c-0.89,0.6-1.08,2.49-0.71,3.77c0.45,1.09,1.81,1.68,2.86,2.61c1.16,0.76,2.28,1.6,2.92,2.55c1.32,2.48,0.56,6.43-1.11,7.74
				c-1.05,0.88-3.82,1.23-5.39,0.39c-1.66-0.99-2.05-3-1.89-6.31h2.13c0.11,2.13-0.05,3.74,1.01,4.23c1.01,0.68,2.6,0.28,3.19-0.39
				c0.52-0.94,0.72-2.83,0.2-3.95c-0.91-2.05-4.11-2.75-5.64-5.08c-1.44-2.55-0.6-6.67,1.35-7.52C96.39,43.54,97.25,43.4,98.16,43.4
				"/>
			<path class="st8" d="M91.55,63.14h-2.2c-0.23-1.15-0.41-2.71-0.41-4.34c-0.12-3.15-0.39-5.06-4.17-4.39v8.74h-2.1
				c0.1-6.48-0.04-13.18,0.12-19.51c3.09,0.11,6.5-0.63,7.91,1.3c1.64,2.47,0.93,8-2.23,8.23C92.47,53.47,90.36,60.03,91.55,63.14
				 M88.54,51.6c1.14-1.07,1.07-4.74-0.09-5.42c-0.86-0.64-2.07-0.27-3.57-0.44c-0.03,0-0.13,0.11-0.13,0.2v6.15
				C86.27,52.09,87.6,52.52,88.54,51.6"/>
			<path class="st8" d="M88.17,418.63c1.01,0.74,1.86,1.5,2.79,2.23c-3.29,9.94-6.41,19.99-9.68,29.83
				c-0.19,0.19-0.34-0.17-0.49-0.32c-0.61-0.4-1.49-0.95-1.89-1.44c1.06-3.09,1.98-6.25,3.02-9.33c-2.83-2.43-5.92-4.79-8.96-7.22
				c-0.34-0.29-1.02-1.07-1.19-1.07c-0.19,0-1.91,1.07-2.2,1.18c-2.15,1.24-4.31,2.57-6.29,3.76c-0.88-0.55-1.65-1.24-2.43-1.83
				C69.95,429.06,79.07,423.96,88.17,418.63 M82.87,436.75c1.65-4.88,3.35-9.95,4.79-14.86c-4.51,2.74-9.06,5.26-13.44,7.99
				c2.35,2.05,5.07,4.15,7.61,6.16C82.16,436.24,82.46,436.75,82.87,436.75"/>
			<path class="st8" d="M80.16,60.96v2.18h-7.22c0.11-6.48-0.04-13.18,0.11-19.51H80v2.11h-4.8c-0.18,2,0,4.22-0.08,6.19
				c1.44,0.24,3.05,0.06,4.55,0.16v2.13h-4.47c-0.18,2.11,0,4.58-0.08,6.67C76.56,61.03,78.49,60.96,80.16,60.96"/>
			<path class="st8" d="M75.35,398.11c0.55,0.75,0.97,1.65,1.59,2.43c-7.52,4.72-15.08,9.36-22.65,14.06
				c1.84,3.05,3.63,5.81,5.43,8.72c-0.67,0.68-1.56,1.14-2.36,1.56c-2.28-3.79-4.75-7.5-7.05-11.22
				C58.79,408.54,67.09,403.22,75.35,398.11"/>
			<path class="st8" d="M68.81,43.62h2.11c-1.17,6.45-2.3,13.04-3.34,19.51h-2.69c-1.06-6.48-2.13-12.98-3.28-19.51h2.22
				c0.9,5.47,1.68,11.03,2.51,16.56C67.21,54.77,67.91,49.14,68.81,43.62"/>
			<path class="st8" d="M65.81,376.58c0.14,0.88,0.44,1.73,0.75,2.59c-9.44,2.84-18.63,5.93-28.11,8.68
				c-0.17-0.51-0.39-1.1-0.64-1.63c-0.04-0.55-0.48-1.12-0.41-1.56c0-0.48,0.84-0.97,1.28-1.47c6.21-7.13,12.69-14.77,18.76-21.64
				c-8.33,2.5-16.47,5.28-24.67,7.75c-0.15-0.92-0.67-1.71-0.82-2.66c9.34-2.85,18.68-5.64,27.92-8.51c0.42,0.11,0.47,0.94,0.6,1.6
				c0.32,0.45,0.68,1.23,0.68,1.5c-0.11,0.32-0.86,1.15-1.28,1.55c-6.12,7.1-12.88,14.62-18.83,21.53
				C49.4,381.91,57.44,379,65.81,376.58"/>
			<path class="st8" d="M59.47,43.62v19.51h-2.03v-19.4c0-0.05,0-0.11,0.08-0.11H59.47z"/>
			<path class="st8" d="M58.91,293.69c0.33,4.98-1.39,8.61-3.83,11.25c-2.39,2.67-5.48,4.76-10.04,5.06
				c-4.7,0.45-8.83-1.19-11.54-3.6c-2.62-2.34-4.82-5.51-5.17-9.93c-0.4-5.22,1.46-8.77,3.63-11.34c2.17-2.44,5.67-4.62,10.23-5.08
				c5.12-0.41,8.76,1.38,11.45,3.65C56.21,285.88,58.58,289.09,58.91,293.69 M55.8,297.85c0.62-2.55,0.33-5.44-0.82-7.92
				c-1.86-3.75-6.27-7.23-12.04-6.85c-3.08,0.29-5.33,1.06-7.21,2.57c-2.37,1.85-4.35,4.58-4.7,8.18c-0.51,6.55,3,10.05,6.78,12.01
				C46.05,309.7,54.15,304.59,55.8,297.85"/>
			<path class="st8" d="M54.12,244.17c2.78,2.81,4.79,6.32,4.52,11.8c-0.34,6.2-3.73,9.87-8.22,12.16c0.22-1.18-0.33-2.11,0-3.2
				c0.19-0.45,0.78-0.66,1.05-1.01c2.41-2.08,4.54-5.04,4.33-9.8c-0.24-3.55-1.8-6.04-3.85-7.89c-2.07-2.05-4.96-3.46-8.48-3.46
				c-3.35,0-6.35,1.2-8.56,3.18c-2.51,2.12-4.44,5.13-4.12,9.91c0.25,3.73,1.98,6.19,4.23,8.03c0.26,0.33,0.74,0.52,0.91,0.81
				c0.24,0.99-0.29,1.98,0,3.14c-0.29,0.08-0.65-0.15-1-0.31c-4.49-2.93-8.26-8.54-6.52-16.09c1.37-6.21,6.52-11.11,13.59-11.67
				C47.52,239.45,51.32,241.49,54.12,244.17"/>
			<path class="st8" d="M58.42,172.46c0,6.78,0.49,13.08-2.05,17.2c-2.34,3.68-6.67,6.55-12.6,6.55c-6.15,0-10.27-2.62-12.74-6.55
				c-1.25-2.07-1.83-4.48-2.07-7.51c-0.01-2.92,0-6.04,0-9.47v-0.23H58.42z M53.8,188.34c2.15-3.05,1.9-7.58,1.9-12.99H31.84v0.2
				c-0.17,5.38-0.32,9.92,1.71,12.9c2.02,3,5.43,4.65,10.22,4.65C48.52,193.11,51.8,191.18,53.8,188.34"/>
			<path class="st8" d="M58.15,143.18v15.18h-2.88v-12.23c-3.3-0.22-6.82,0-10.26-0.08c-0.24,3.99-0.06,8.23-0.13,12.31H42v-12.31
				H31.52v12.31h-2.84v-15.18H58.15z"/>
			<path class="st8" d="M57.86,333.94c0.77,4.86,1.12,10.12,1.61,15.26c-0.84,0-1.8,0.19-2.78,0.27c-0.48-4.08-0.81-8.23-1.29-12.33
				c-3.29,0.28-6.78,0.76-10.17,1.03c0.29,4.01,0.82,8.23,1.11,12.35c-0.82,0.08-1.75,0.27-2.84,0.27
				c-0.42-3.92-0.83-8.11-1.19-12.24c-3.52,0.27-7.02,0.75-10.47,0.99c0.4,4.29,0.87,8.31,1.3,12.4c-1.04,0.07-1.98,0.16-2.88,0.32
				c-0.47-5.07-1.03-10.16-1.57-15.17C38.24,335.94,48.16,335,57.86,333.94"/>
			<path class="st8" d="M58.05,224.45v2.82H41.39c-5.94,0-10.5-0.61-12.44-4.33c-1.53-3.18-1.21-8.46,0.56-10.9
				c1.64-2.22,4.64-3.39,8.38-3.59c6.71-0.3,13.33,0.25,20.15,0v2.92h-15.7c-2.92,0-5.47-0.16-7.33,0.61
				c-3.15,1.05-5.8,4.77-3.64,8.96c1.87,3.89,7.84,3.5,13.66,3.5H58.05z"/>
			<path class="st8" d="M54.64,43.62v19.51h-3.32c-1.42-5.47-2.67-11.05-4.02-16.63c-0.15,5.42,0,11.16,0,16.63h-2.02v-19.4
				c0-0.05,0-0.11,0-0.11h3.34c1.29,5.55,2.71,11.15,3.94,16.88c0.18-5.5,0.06-11.36,0.06-16.88H54.64z"/>
			<path class="st8" d="M42.34,43.62c-0.28,4.5,0.34,10.78,0,15.51c-0.12,1.83-0.95,3.49-2.48,4.01c-2.1,0.67-4.59,0-5.46-1.45
				c-1.18-1.77-0.86-5.51-0.86-8.53v-9.42c0-0.05,0-0.11,0.11-0.11h2.08c0.17,4.39-0.16,9.42,0,14.12c0.03,2.01,0.79,4.16,3.09,3.36
				c1.94-0.6,1.43-5.46,1.43-8.06v-9.42H42.34z"/>
		</g>
	</g>
</g>
</svg>
